0
SECTION
2
HEADER
9
$INSUNITS
70
4
9
$ACADVER
1
AC1014
9
$HANDSEED
5
FFFF
0
ENDSEC
0
SECTION
2
TABLES
0
TABLE
2
VPORT
5
8
100
AcDbSymbolTable
0
ENDTAB
0
TABLE
2
LTYPE
5
5
100
AcDbSymbolTable
0
LTYPE
5
14
100
AcDbSymbolTableRecord
100
AcDbLinetypeTableRecord
2
BYBLOCK
70
0
0
LTYPE
5
15
100
AcDbSymbolTableRecord
100
AcDbLinetypeTableRecord
2
BYLAYER
70
0
0
LTYPE
5
16
100
AcDbSymbolTableRecord
100
AcDbLinetypeTableRecord
2
DASHED
70
0
3
Dashed __ __ __ __ __ __ __ __ __ __ __ __ __ _
72
65
73
2
40
0.75
49
0.5
74
0
49
-0.25
74
0
0
ENDTAB
0
TABLE
2
LAYER
5
2
100
AcDbSymbolTable
70
2
0
LAYER
5
50
100
AcDbSymbolTableRecord
100
AcDbLayerTableRecord
2
0
70
0
62
7
6
CONTINUOUS
0
ENDTAB
0
TABLE
2
STYLE
5
3
100
AcDbSymbolTable
70
1
0
STYLE
5
11
100
AcDbSymbolTableRecord
100
AcDbTextStyleTableRecord
2
STANDARD
70
0
0
ENDTAB
0
TABLE
2
VIEW
5
6
100
AcDbSymbolTable
70
0
0
ENDTAB
0
TABLE
2
UCS
5
7
100
AcDbSymbolTable
70
0
0
ENDTAB
0
TABLE
2
APPID
5
9
100
AcDbSymbolTable
70
2
0
APPID
5
12
100
AcDbSymbolTableRecord
100
AcDbRegAppTableRecord
2
ACAD
70
0
0
ENDTAB
0
TABLE
2
DIMSTYLE
5
A
100
AcDbSymbolTable
70
1
0
ENDTAB
0
TABLE
2
BLOCK_RECORD
5
1
100
AcDbSymbolTable
70
1
0
BLOCK_RECORD
5
1F
100
AcDbSymbolTableRecord
100
AcDbBlockTableRecord
2
*MODEL_SPACE
0
BLOCK_RECORD
5
1B
100
AcDbSymbolTableRecord
100
AcDbBlockTableRecord
2
*PAPER_SPACE
0
ENDTAB
0
ENDSEC
0
SECTION
2
BLOCKS
0
BLOCK
5
20
100
AcDbEntity
100
AcDbBlockBegin
2
*MODEL_SPACE
0
ENDBLK
5
21
100
AcDbEntity
100
AcDbBlockEnd
0
BLOCK
5
1C
100
AcDbEntity
100
AcDbBlockBegin
2
*PAPER_SPACE
0
ENDBLK
5
1D
100
AcDbEntity
100
AcDbBlockEnd
0
ENDSEC
0
SECTION
2
ENTITIES
0
ARC
5
100
100
AcDbEntity
8
0
100
AcDbCircle
10
-88.939854472685894
20
40.824095644148457
30
0
40
2.299999999999975
210
0
220
0
230
1
100
AcDbArc
50
188.71474962439535
51
351.28525037561366
0
ARC
5
101
100
AcDbEntity
8
0
100
AcDbCircle
10
88.914921544254639
20
40.824002245028439
30
0
40
2.2999999999999829
210
0
220
0
230
1
100
AcDbArc
50
188.71317259611862
51
351.28369261379476
0
ARC
5
102
100
AcDbEntity
8
0
100
AcDbCircle
10
0
20
-45.96814147083893
30
0
40
2.3000000000000038
210
-0
220
0
230
1
100
AcDbArc
50
8.7147398223527954
51
171.28525798138182
0
LINE
5
103
100
AcDbEntity
8
0
100
AcDbLine
10
-125.39088259120648
20
41.324095211142009
30
0
11
-92.201755692373013
21
41.324095211144581
31
0
0
LINE
5
104
100
AcDbEntity
8
0
100
AcDbLine
10
-85.475217767720522
20
41.324095211145107
30
0
11
-10.034030997460256
21
30.597150693030557
31
0
0
LINE
5
105
100
AcDbEntity
8
0
100
AcDbLine
10
-10.034030997460256
20
30.597150693030557
30
0
11
10.034030597006165
21
30.597150517008412
31
0
0
LINE
5
106
100
AcDbEntity
8
0
100
AcDbLine
10
10.034030597006165
20
30.597150517008412
30
0
11
85.475217164962828
21
41.32409645789582
31
0
0
LINE
5
107
100
AcDbEntity
8
0
100
AcDbLine
10
85.475217164962828
20
41.32409645789582
30
0
11
85.653033919827521
21
41.324091593504363
31
0
0
LINE
5
108
100
AcDbEntity
8
0
100
AcDbLine
10
92.176836524892252
20
41.323913127028206
30
0
11
125.39091752089021
21
41.323004515846478
31
0
0
LINE
5
109
100
AcDbEntity
8
0
100
AcDbLine
10
126.39089016468603
20
40.323004378745907
30
0
11
126.39088216977524
21
-17.83248155019421
31
0
0
LINE
5
110
100
AcDbEntity
8
0
100
AcDbLine
10
125.39088216977525
20
-18.832481412719456
30
0
11
90.623960129336922
21
-18.83248141271946
31
0
0
LINE
5
111
100
AcDbEntity
8
0
100
AcDbLine
10
89.623960129336936
20
-19.83248141271946
30
0
11
89.623960129336936
21
-35.333930537393471
31
0
0
LINE
5
112
100
AcDbEntity
8
0
100
AcDbLine
10
88.702402690387544
20
-36.330849172295949
30
0
11
70.634814759732194
21
-37.752497659613539
31
0
0
LINE
5
113
100
AcDbEntity
8
0
100
AcDbLine
10
70.634814759732194
20
-37.752497659613539
30
0
11
9.3388506914360381
21
-46.4681418288164
31
0
0
LINE
5
114
100
AcDbEntity
8
0
100
AcDbLine
10
9.3388506914360381
20
-46.4681418288164
30
0
11
3.2619012668939762
21
-46.468141595874329
31
0
0
LINE
5
115
100
AcDbEntity
8
0
100
AcDbLine
10
-3.2619012860600147
20
-46.468141470838916
30
0
11
-9.3388500136467218
21
-46.46814147083893
31
0
0
LINE
5
116
100
AcDbEntity
8
0
100
AcDbLine
10
-9.3388500136467218
20
-46.46814147083893
30
0
11
-70.6348142090702
21
-37.752498689900541
31
0
0
LINE
5
117
100
AcDbEntity
8
0
100
AcDbLine
10
-70.6348142090702
20
-37.752498689900541
30
0
11
-88.702168250969606
21
-36.331097880415832
31
0
0
LINE
5
118
100
AcDbEntity
8
0
100
AcDbLine
10
-89.623738262967564
20
-35.33417825628257
30
0
11
-89.623738262967578
21
-19.832482700539529
31
0
0
LINE
5
119
100
AcDbEntity
8
0
100
AcDbLine
10
-126.39088259120547
20
-17.832482700539551
30
0
11
-126.39088259120639
21
40.32409521114198
31
0
0
LINE
5
120
100
AcDbEntity
8
0
100
AcDbLine
10
-85.677953252998861
20
41.324095211145092
30
0
11
-85.475217767720522
21
41.324095211145107
31
0
0
ARC
5
121
100
AcDbEntity
8
0
100
AcDbCircle
10
-92.20175569237297
20
40.324095211144552
30
0
40
1.000000000000044
210
0
220
-0
230
1
100
AcDbArc
50
8.7147496243971005
51
90.000000000002444
0
ARC
5
122
100
AcDbEntity
8
0
100
AcDbCircle
10
-85.677953252998776
20
40.324095211145092
30
0
40
0.99999999999999645
210
0
220
0
230
1
100
AcDbArc
50
90.000000000004889
51
171.28525037561323
0
ARC
5
123
100
AcDbEntity
8
0
100
AcDbCircle
10
-125.39088259120641
20
40.32409521114203
30
0
40
0.99999999999997868
210
0
220
0
230
1
100
AcDbArc
50
90.000000000004079
51
180
0
LINE
5
124
100
AcDbEntity
8
0
100
AcDbLine
10
-125.39088259120547
20
-18.832482700539536
30
0
11
-90.623738262967578
21
-18.832482700539529
31
0
0
ARC
5
125
100
AcDbEntity
8
0
100
AcDbCircle
10
-125.39088259120548
20
-17.832482700539558
30
0
40
0.99999999999997868
210
0
220
0
230
1
100
AcDbArc
50
180
51
270.0000000000008
0
ARC
5
126
100
AcDbEntity
8
0
100
AcDbCircle
10
-88.623738262967592
20
-35.334178256282584
30
0
40
0.99999999999997868
210
0
220
0
230
1
100
AcDbArc
50
180
51
265.50167290493289
0
ARC
5
127
100
AcDbEntity
8
0
100
AcDbCircle
10
-3.2619012860600058
20
-45.46814147083893
30
0
40
0.99999999999998757
210
0
220
0
230
1
100
AcDbArc
50
269.99999999999949
51
351.28525798138196
0
ARC
5
128
100
AcDbEntity
8
0
100
AcDbCircle
10
3.2619013052260404
20
-45.468141595874343
30
0
40
0.99999999999998823
210
0
220
0
230
1
100
AcDbArc
50
188.71473982235199
51
269.99999780373446
0
ARC
5
129
100
AcDbEntity
8
0
100
AcDbCircle
10
88.62396012933695
20
-35.333930537393485
30
0
40
0.99999999999997968
210
-0
220
0
230
1
100
AcDbArc
50
-85.500950296049353
51
0
0
ARC
5
130
100
AcDbEntity
8
0
100
AcDbCircle
10
90.623960129336922
20
-19.832481412719449
30
0
40
0.99999999999998979
210
0
220
-0
230
1
100
AcDbArc
50
90
51
180
0
ARC
5
131
100
AcDbEntity
8
0
100
AcDbCircle
10
-90.623738262967578
20
-19.832482700539526
30
0
40
0.99999999999999645
210
-0
220
0
230
1
100
AcDbArc
50
0
51
90
0
ARC
5
132
100
AcDbEntity
8
0
100
AcDbCircle
10
125.3908821697753
20
-17.832481412719503
30
0
40
0.99999999999995426
210
0
220
0
230
1
100
AcDbArc
50
269.99999999999756
51
359.99999217503523
0
ARC
5
133
100
AcDbEntity
8
0
100
AcDbCircle
10
125.39089016468603
20
40.323004516220642
30
0
40
1.0000000000000058
210
-0
220
0
230
1
100
AcDbArc
50
-7.8249647439581079e-06
51
89.998432604956477
0
ARC
5
134
100
AcDbEntity
8
0
100
AcDbCircle
10
92.176809168688081
20
40.323913127402385
30
0
40
0.99999999999999667
210
0
220
-0
230
1
100
AcDbArc
50
89.998432604957287
51
171.28369261379513
0
ARC
5
135
100
AcDbEntity
8
0
100
AcDbCircle
10
85.653006563623364
20
40.324091593878549
30
0
40
0.99999999999999856
210
0
220
-0
230
1
100
AcDbArc
50
8.7131725961192075
51
89.998432604958111
0
ENDSEC
0
SECTION
2
OBJECTS
0
DICTIONARY
5
C
100
AcDbDictionary
3
ACAD_GROUP
350
D
3
ACAD_MLINESTYLE
350
17
0
DICTIONARY
5
D
100
AcDbDictionary
0
DICTIONARY
5
1A
330
C
100
AcDbDictionary
0
DICTIONARY
5
17
100
AcDbDictionary
0
ENDSEC
0
EOF
