0
SECTION
2
HEADER
9
$INSUNITS
70
4
9
$ACADVER
1
AC1014
9
$HANDSEED
5
FFFF
0
ENDSEC
0
SECTION
2
TABLES
0
TABLE
2
VPORT
5
8
100
AcDbSymbolTable
0
ENDTAB
0
TABLE
2
LTYPE
5
5
100
AcDbSymbolTable
0
LTYPE
5
14
100
AcDbSymbolTableRecord
100
AcDbLinetypeTableRecord
2
BYBLOCK
70
0
0
LTYPE
5
15
100
AcDbSymbolTableRecord
100
AcDbLinetypeTableRecord
2
BYLAYER
70
0
0
LTYPE
5
16
100
AcDbSymbolTableRecord
100
AcDbLinetypeTableRecord
2
DASHED
70
0
3
Dashed __ __ __ __ __ __ __ __ __ __ __ __ __ _
72
65
73
2
40
0.75
49
0.5
74
0
49
-0.25
74
0
0
ENDTAB
0
TABLE
2
LAYER
5
2
100
AcDbSymbolTable
70
2
0
LAYER
5
50
100
AcDbSymbolTableRecord
100
AcDbLayerTableRecord
2
0
70
0
62
7
6
CONTINUOUS
0
ENDTAB
0
TABLE
2
STYLE
5
3
100
AcDbSymbolTable
70
1
0
STYLE
5
11
100
AcDbSymbolTableRecord
100
AcDbTextStyleTableRecord
2
STANDARD
70
0
0
ENDTAB
0
TABLE
2
VIEW
5
6
100
AcDbSymbolTable
70
0
0
ENDTAB
0
TABLE
2
UCS
5
7
100
AcDbSymbolTable
70
0
0
ENDTAB
0
TABLE
2
APPID
5
9
100
AcDbSymbolTable
70
2
0
APPID
5
12
100
AcDbSymbolTableRecord
100
AcDbRegAppTableRecord
2
ACAD
70
0
0
ENDTAB
0
TABLE
2
DIMSTYLE
5
A
100
AcDbSymbolTable
70
1
0
ENDTAB
0
TABLE
2
BLOCK_RECORD
5
1
100
AcDbSymbolTable
70
1
0
BLOCK_RECORD
5
1F
100
AcDbSymbolTableRecord
100
AcDbBlockTableRecord
2
*MODEL_SPACE
0
BLOCK_RECORD
5
1B
100
AcDbSymbolTableRecord
100
AcDbBlockTableRecord
2
*PAPER_SPACE
0
ENDTAB
0
ENDSEC
0
SECTION
2
BLOCKS
0
BLOCK
5
20
100
AcDbEntity
100
AcDbBlockBegin
2
*MODEL_SPACE
0
ENDBLK
5
21
100
AcDbEntity
100
AcDbBlockEnd
0
BLOCK
5
1C
100
AcDbEntity
100
AcDbBlockBegin
2
*PAPER_SPACE
0
ENDBLK
5
1D
100
AcDbEntity
100
AcDbBlockEnd
0
ENDSEC
0
SECTION
2
ENTITIES
0
LINE
5
100
100
AcDbEntity
8
0
100
AcDbLine
10
-2.2314666455393959e-07
20
30.59715069303056
30
0
11
-10.034030997460256
21
30.597150693030557
31
0
6
DASHED
0
LINE
5
101
100
AcDbEntity
8
0
100
AcDbLine
10
-10.034030997460256
20
30.597150693030557
30
0
11
-85.475217767720522
21
41.324095211145107
31
0
6
DASHED
0
LINE
5
102
100
AcDbEntity
8
0
100
AcDbLine
10
-85.475217767720522
20
41.324095211145107
30
0
11
-126.39088259120642
21
41.324095211141923
31
0
6
DASHED
0
LINE
5
103
100
AcDbEntity
8
0
100
AcDbLine
10
-126.39088259120642
20
41.324095211141923
30
0
11
-126.39088259120544
21
-18.853346248673446
31
0
0
LINE
5
104
100
AcDbEntity
8
0
100
AcDbLine
10
-70.6348142090702
20
-37.752498689900541
30
0
11
-9.3388500136467218
21
-46.46814147083893
31
0
6
DASHED
0
LINE
5
105
100
AcDbEntity
8
0
100
AcDbLine
10
-9.3388500136467218
20
-46.46814147083893
30
0
11
3.3889465688765489e-07
21
-46.468141470838916
31
0
6
DASHED
0
LINE
5
106
100
AcDbEntity
8
0
100
AcDbLine
10
-2.2314666455393959e-07
20
30.59715069303056
30
0
11
10.034030597006165
21
30.597150517008412
31
0
6
DASHED
0
LINE
5
107
100
AcDbEntity
8
0
100
AcDbLine
10
10.034030597006165
20
30.597150517008412
30
0
11
85.475217164962828
21
41.32409645789582
31
0
6
DASHED
0
LINE
5
108
100
AcDbEntity
8
0
100
AcDbLine
10
85.475217164962828
20
41.32409645789582
30
0
11
126.39089030215703
21
41.322977160386891
31
0
6
DASHED
0
LINE
5
109
100
AcDbEntity
8
0
100
AcDbLine
10
70.63481823533985
20
-37.752497659613518
30
0
11
9.3388506914360363
21
-46.4681418288164
31
0
6
DASHED
0
LINE
5
110
100
AcDbEntity
8
0
100
AcDbLine
10
-126.39088259120444
20
46.324108694162298
30
0
11
-126.39088259120544
21
-19.332482700539533
31
0
0
LINE
5
111
100
AcDbEntity
8
0
100
AcDbLine
10
-10.165330010553326
20
-7.8674022967842312
30
0
11
-12.847066118989442
21
-26.727698705184242
31
0
0
LINE
5
112
100
AcDbEntity
8
0
100
AcDbLine
10
-88.29088259120546
20
-16.00037840190895
30
0
11
-88.290882591598063
21
41.324095211145107
31
0
6
DASHED
0
LINE
5
113
100
AcDbEntity
8
0
100
AcDbLine
10
-126.39088259120544
20
0.21751729946046966
30
0
11
-88.290882591205445
21
0.21751729946032775
31
0
6
DASHED
0
LINE
5
114
100
AcDbEntity
8
0
100
AcDbLine
10
-88.290882591205445
20
0.21751729946032775
30
0
11
-88.290882591205445
21
-18.832482700539529
31
0
6
DASHED
0
LINE
5
115
100
AcDbEntity
8
0
100
AcDbLine
10
-88.290882591205445
20
-18.832482700539529
30
0
11
-126.39088259120544
21
-18.832482700539533
31
0
6
DASHED
0
LINE
5
116
100
AcDbEntity
8
0
100
AcDbLine
10
-126.39088259120544
20
-18.832482700539533
30
0
11
-126.39088259120544
21
0.21751729946046966
31
0
6
DASHED
0
LINE
5
117
100
AcDbEntity
8
0
100
AcDbLine
10
-126.39088259120572
20
19.267517299460227
30
0
11
-88.29088259120573
21
19.267517299462472
31
0
6
DASHED
0
LINE
5
118
100
AcDbEntity
8
0
100
AcDbLine
10
-88.29088259120573
20
19.267517299462472
30
0
11
-88.290882591205744
21
0.21751729946032775
31
0
6
DASHED
0
LINE
5
119
100
AcDbEntity
8
0
100
AcDbLine
10
-88.290882591205744
20
0.21751729946032775
30
0
11
-126.39088259120572
21
0.21751729946022569
31
0
6
DASHED
0
LINE
5
120
100
AcDbEntity
8
0
100
AcDbLine
10
-126.39088259120572
20
0.21751729946022569
30
0
11
-126.39088259120572
21
19.267517299460227
31
0
6
DASHED
0
LINE
5
121
100
AcDbEntity
8
0
100
AcDbLine
10
-126.39088259120393
20
38.317517299460235
30
0
11
-88.290882591203939
21
38.317517299460235
31
0
6
DASHED
0
LINE
5
122
100
AcDbEntity
8
0
100
AcDbLine
10
-88.290882591203939
20
38.317517299460235
30
0
11
-88.290882591203911
21
19.267517299462192
31
0
6
DASHED
0
LINE
5
123
100
AcDbEntity
8
0
100
AcDbLine
10
-88.290882591203911
20
19.267517299462192
30
0
11
-126.39088259120393
21
19.267517299460231
31
0
6
DASHED
0
LINE
5
124
100
AcDbEntity
8
0
100
AcDbLine
10
-126.39088259120393
20
19.267517299460231
30
0
11
-126.39088259120393
21
38.317517299460235
31
0
6
DASHED
0
LINE
5
125
100
AcDbEntity
8
0
100
AcDbLine
10
-85.475217767720522
20
41.324095211145107
30
0
11
-88.290882591203939
21
38.317517299460235
31
0
6
DASHED
0
LINE
5
126
100
AcDbEntity
8
0
100
AcDbLine
10
70.63481823533985
20
-37.752497659613518
30
0
11
9.3388506914360363
21
-46.4681418288164
31
0
0
LINE
5
127
100
AcDbEntity
8
0
100
AcDbLine
10
88.290882032300502
20
38.317519010769303
30
0
11
126.39088203230051
21
38.317519010769317
31
0
6
DASHED
0
LINE
5
128
100
AcDbEntity
8
0
100
AcDbLine
10
126.39088203230051
20
38.317519010769317
30
0
11
126.39088203230051
21
19.267518587280541
31
0
6
DASHED
0
LINE
5
129
100
AcDbEntity
8
0
100
AcDbLine
10
126.39088203230051
20
19.267518587280541
30
0
11
88.290882032300502
21
19.267519010769306
31
0
6
DASHED
0
LINE
5
130
100
AcDbEntity
8
0
100
AcDbLine
10
88.290882032300502
20
19.267519010769306
30
0
11
88.290882032300502
21
38.317519010769303
31
0
6
DASHED
0
LINE
5
131
100
AcDbEntity
8
0
100
AcDbLine
10
88.290882032300502
20
19.267518587280545
30
0
11
126.39088203230051
21
19.267518587280545
31
0
6
DASHED
0
LINE
5
132
100
AcDbEntity
8
0
100
AcDbLine
10
126.39088203230051
20
19.267518587280545
30
0
11
126.39088203230051
21
0.21751858728054302
31
0
6
DASHED
0
LINE
5
133
100
AcDbEntity
8
0
100
AcDbLine
10
126.39088203230051
20
0.21751858728054302
30
0
11
88.290882032300502
21
0.21751858728054302
31
0
6
DASHED
0
LINE
5
134
100
AcDbEntity
8
0
100
AcDbLine
10
88.290882032300502
20
0.21751858728054302
30
0
11
88.290882032300502
21
19.267518587280545
31
0
6
DASHED
0
LINE
5
135
100
AcDbEntity
8
0
100
AcDbLine
10
-6.6571137734111261
20
-27.607844794014987
30
0
11
-9.3388500136467218
21
-46.46814147083893
31
0
6
DASHED
0
LINE
5
136
100
AcDbEntity
8
0
100
AcDbLine
10
85.414958651354056
20
41.824099491757487
30
0
11
126.45767509670256
21
41.822973948365068
31
0
0
LINE
5
137
100
AcDbEntity
8
0
100
AcDbLine
10
9.9986524568852317
20
31.097150693030564
30
0
11
85.414958651354056
21
41.824099491757487
31
0
0
LINE
5
138
100
AcDbEntity
8
0
100
AcDbLine
10
-2.2679319145118352e-07
20
31.097150693028276
30
0
11
9.9986524568852317
21
31.097150693030564
31
0
0
LINE
5
139
100
AcDbEntity
8
0
100
AcDbLine
10
-2.2679319145118352e-07
20
31.097150693028276
30
0
11
-9.9986529104716162
21
31.097150691438451
31
0
0
LINE
5
140
100
AcDbEntity
8
0
100
AcDbLine
10
-9.9986529104716162
20
31.097150691438451
30
0
11
-85.439854405335922
21
41.824095211176207
31
0
0
LINE
5
141
100
AcDbEntity
8
0
100
AcDbLine
10
-85.439854405335922
20
41.824095211176207
30
0
11
-126.39089095227655
21
41.824095211168725
31
0
0
LINE
5
142
100
AcDbEntity
8
0
100
AcDbLine
10
70.689179942602522
20
-38.249796672672844
30
0
11
9.3742193198837711
21
-46.96814133410556
31
0
0
LINE
5
143
100
AcDbEntity
8
0
100
AcDbLine
10
9.3742193198837711
20
-46.96814133410556
30
0
11
3.4254118378491552e-07
21
-46.968141470838923
31
0
0
LINE
5
144
100
AcDbEntity
8
0
100
AcDbLine
10
-9.3742195105322423
20
-46.96814147083893
30
0
11
3.4254118378491552e-07
21
-46.968141470838923
31
0
0
LINE
5
145
100
AcDbEntity
8
0
100
AcDbLine
10
88.290882032300502
20
38.317519010769303
30
0
11
85.475217164962828
21
41.32409645789582
31
0
6
DASHED
0
LINE
5
146
100
AcDbEntity
8
0
100
AcDbLine
10
-92.748705643533924
20
-38.767755853095338
30
0
11
-9.708402474514779
21
-49.468141482589445
31
0
0
LINE
5
147
100
AcDbEntity
8
0
100
AcDbLine
10
-9.708402474514779
20
-49.468141482589445
30
0
11
3.6077381835691576e-07
21
-49.468141482589445
31
0
0
LINE
5
148
100
AcDbEntity
8
0
100
AcDbLine
10
-126.39088259120544
20
-19.332482700539533
30
0
11
-92.748705643533924
21
-38.767755853095338
31
0
0
LINE
5
149
100
AcDbEntity
8
0
100
AcDbLine
10
126.39088203230051
20
-19.33248141271946
30
0
11
92.748706209004581
21
-38.767754500252735
31
0
0
LINE
5
150
100
AcDbEntity
8
0
100
AcDbLine
10
-8.4602446457015983
20
37.497152199003096
30
0
11
-9.5459183301207897
21
37.497152199003096
31
0
0
LINE
5
151
100
AcDbEntity
8
0
100
AcDbLine
10
3.3889465688765489e-07
20
-46.468141470838916
30
0
11
9.3388506914360363
21
-46.4681418288164
31
0
6
DASHED
0
LINE
5
152
100
AcDbEntity
8
0
100
AcDbLine
10
-86.834327443713292
20
40.232852608843643
30
0
11
-67.840092933850016
21
38.776296607750957
31
0
6
DASHED
0
LINE
5
153
100
AcDbEntity
8
0
100
AcDbLine
10
-67.840092933850016
20
38.776296607750957
30
0
11
-69.296648083512764
21
19.782061978412912
31
0
6
DASHED
0
LINE
5
154
100
AcDbEntity
8
0
100
AcDbLine
10
-69.296648083512764
20
19.782061978412912
30
0
11
-88.290882591460502
21
21.238618033542327
31
0
6
DASHED
0
LINE
5
155
100
AcDbEntity
8
0
100
AcDbLine
10
-88.290882591460502
20
21.238618033542327
30
0
11
-86.834327443713292
21
40.232852608843643
31
0
6
DASHED
0
LINE
5
156
100
AcDbEntity
8
0
100
AcDbLine
10
-88.424825723764187
20
1.9970070244883045
30
0
11
-86.968269722653019
21
20.991241534334272
31
0
6
DASHED
0
LINE
5
157
100
AcDbEntity
8
0
100
AcDbLine
10
-69.430591213893223
20
0.54045102337413553
30
0
11
-88.424825723764187
21
1.9970070244883045
31
0
6
DASHED
0
LINE
5
158
100
AcDbEntity
8
0
100
AcDbLine
10
-86.968269722653019
20
20.991241534334272
30
0
11
-67.974035212800075
21
19.534685533242325
31
0
6
DASHED
0
LINE
5
159
100
AcDbEntity
8
0
100
AcDbLine
10
-67.974035212800075
20
19.534685533242325
30
0
11
-69.430591213893223
21
0.54045102337413553
31
0
6
DASHED
0
LINE
5
160
100
AcDbEntity
8
0
100
AcDbLine
10
-66.74885492008778
20
19.400747692580758
30
0
11
-69.430591213893223
21
0.54045102337413553
31
0
6
DASHED
0
LINE
5
161
100
AcDbEntity
8
0
100
AcDbLine
10
-66.614920951630808
20
38.64235995034899
30
0
11
-10.034030997460256
21
30.597150693030557
31
0
6
DASHED
0
LINE
5
162
100
AcDbEntity
8
0
100
AcDbLine
10
-10.034030997460256
20
30.597150693030557
30
0
11
-12.715767617208249
21
11.736854069753509
31
0
6
DASHED
0
LINE
5
163
100
AcDbEntity
8
0
100
AcDbLine
10
-12.715767617208249
20
11.736854069753509
30
0
11
-69.296648083512764
21
19.782061978412912
31
0
6
DASHED
0
LINE
5
164
100
AcDbEntity
8
0
100
AcDbLine
10
-69.296648083512764
20
19.782061978412912
30
0
11
-66.614920951630808
21
38.64235995034899
31
0
6
DASHED
0
LINE
5
165
100
AcDbEntity
8
0
100
AcDbLine
10
-69.427921352806848
20
0.55911630127526724
30
0
11
-66.746203678593275
21
19.41941561798334
31
0
6
DASHED
0
LINE
5
166
100
AcDbEntity
8
0
100
AcDbLine
10
-12.847050392171727
20
-7.4860916107971676
30
0
11
-69.427921352806848
21
0.55911630127526724
31
0
6
DASHED
0
LINE
5
167
100
AcDbEntity
8
0
100
AcDbLine
10
-10.165313737107361
20
11.37420627145567
30
0
11
-12.847050392171727
21
-7.4860916107971676
31
0
6
DASHED
0
LINE
5
168
100
AcDbEntity
8
0
100
AcDbLine
10
-66.746203678593275
20
19.41941561798334
30
0
11
-10.165313737107361
21
11.37420627145567
31
0
6
DASHED
0
LINE
5
169
100
AcDbEntity
8
0
100
AcDbLine
10
-66.746220040151002
20
0.17780643006527547
30
0
11
-10.165330010553326
21
-7.8674022967842312
31
0
6
DASHED
0
LINE
5
170
100
AcDbEntity
8
0
100
AcDbLine
10
-69.427940230108931
20
-18.682492528939456
30
0
11
-66.746220040151002
21
0.17780643006527547
31
0
6
DASHED
0
LINE
5
171
100
AcDbEntity
8
0
100
AcDbLine
10
-88.4248287383936
20
-17.244603920805069
30
0
11
-86.968272737292423
21
1.7496305890577637
31
0
6
DASHED
0
LINE
5
172
100
AcDbEntity
8
0
100
AcDbLine
10
-86.968272737292423
20
1.7496305890577637
30
0
11
-67.974038227434022
21
0.29307458796014785
31
0
6
DASHED
0
LINE
5
173
100
AcDbEntity
8
0
100
AcDbLine
10
-67.974038227434022
20
0.29307458796014785
30
0
11
-69.430594228530339
21
-18.701159921897798
31
0
6
DASHED
0
LINE
5
174
100
AcDbEntity
8
0
100
AcDbLine
10
-69.430594228530339
20
-18.701159921897798
30
0
11
-88.4248287383936
21
-17.244603920805069
31
0
6
DASHED
0
LINE
5
175
100
AcDbEntity
8
0
100
AcDbLine
10
-88.169577369990591
20
-17.2641776452801
30
0
11
-69.172947752005243
21
-18.720917313094894
31
0
6
DASHED
0
LINE
5
176
100
AcDbEntity
8
0
100
AcDbLine
10
-6.6571137734111261
20
-27.607844794014987
30
0
11
-67.95307797302489
21
-18.892202012802962
31
0
6
DASHED
0
LINE
5
177
100
AcDbEntity
8
0
100
AcDbLine
10
-67.95307797302489
20
-18.892202012802962
30
0
11
-70.6348142090702
21
-37.752498689900541
31
0
6
DASHED
0
LINE
5
178
100
AcDbEntity
8
0
100
AcDbLine
10
-9.3388500136467218
20
-46.46814147083893
30
0
11
-70.6348142090702
21
-37.752498689900541
31
0
6
DASHED
0
LINE
5
179
100
AcDbEntity
8
0
100
AcDbLine
10
4.0387952401198722e-07
20
-55.378656730324749
30
0
11
-5.6015747253508061e-07
21
76.806985074660176
31
0
6
DASHED
0
LINE
5
180
100
AcDbEntity
8
0
100
AcDbLine
10
10.034030597006165
20
30.597150517008412
30
0
11
66.614918590391483
21
38.642373564257277
31
0
6
DASHED
0
LINE
5
181
100
AcDbEntity
8
0
100
AcDbLine
10
66.614918590391483
20
38.642373564257277
30
0
11
69.296659605439629
21
19.782077893769106
31
0
6
DASHED
0
LINE
5
182
100
AcDbEntity
8
0
100
AcDbLine
10
69.296659605439629
20
19.782077893769106
30
0
11
12.715771612755788
21
11.736854519213299
31
0
6
DASHED
0
LINE
5
183
100
AcDbEntity
8
0
100
AcDbLine
10
12.715771612755788
20
11.736854519213299
30
0
11
10.034030597006165
21
30.597150517008412
31
0
6
DASHED
0
LINE
5
184
100
AcDbEntity
8
0
100
AcDbLine
10
10.165311890545306
20
11.374206419728015
30
0
11
66.746200002536156
21
19.419428632842223
31
0
6
DASHED
0
LINE
5
185
100
AcDbEntity
8
0
100
AcDbLine
10
66.746200002536156
20
19.419428632842223
30
0
11
69.427942547030952
21
0.55913370341820512
31
0
6
DASHED
0
LINE
5
186
100
AcDbEntity
8
0
100
AcDbLine
10
69.427942547030952
20
0.55913370341820512
30
0
11
12.847052906294943
21
-7.4860895780671051
31
0
6
DASHED
0
LINE
5
187
100
AcDbEntity
8
0
100
AcDbLine
10
12.847052906294943
20
-7.4860895780671051
30
0
11
10.165311890545306
21
11.374206419728015
31
0
6
DASHED
0
LINE
5
188
100
AcDbEntity
8
0
100
AcDbLine
10
67.839863605405966
20
38.776293998001634
30
0
11
86.834079709638473
21
40.23308999803551
31
0
6
DASHED
0
LINE
5
189
100
AcDbEntity
8
0
100
AcDbLine
10
86.834079709638473
20
40.23308999803551
30
0
11
88.290875709672321
21
21.238873893803035
31
0
6
DASHED
0
LINE
5
190
100
AcDbEntity
8
0
100
AcDbLine
10
88.290875709672321
20
21.238873893803035
30
0
11
69.296659605439629
21
19.782077893769106
31
0
6
DASHED
0
LINE
5
191
100
AcDbEntity
8
0
100
AcDbLine
10
69.296659605439629
20
19.782077893769106
30
0
11
67.839863605405966
21
38.776293998001634
31
0
6
DASHED
0
LINE
5
192
100
AcDbEntity
8
0
100
AcDbLine
10
88.155710591278847
20
10.397564601689604
30
0
11
88.139839570520365
21
10.368404044946175
31
0
6
DASHED
0
LINE
5
193
100
AcDbEntity
8
0
100
AcDbLine
10
10.165330125308111
20
-7.8674018196426223
30
0
11
66.746218297752847
21
0.17781996830714392
31
0
6
DASHED
0
LINE
5
194
100
AcDbEntity
8
0
100
AcDbLine
10
66.746218297752847
20
0.17781996830714392
30
0
11
69.427959134443014
21
-18.682474770188556
31
0
6
DASHED
0
LINE
5
195
100
AcDbEntity
8
0
100
AcDbLine
10
69.427959134443014
20
-18.682474770188556
30
0
11
12.847071141057745
21
-26.727697817437694
31
0
6
DASHED
0
LINE
5
196
100
AcDbEntity
8
0
100
AcDbLine
10
12.847071141057745
20
-26.727697817437694
30
0
11
10.165330125308111
21
-7.8674018196426223
31
0
6
DASHED
0
LINE
5
197
100
AcDbEntity
8
0
100
AcDbLine
10
-69.427940230108931
20
-18.682492528939456
30
0
11
-12.847066118989442
21
-26.727698705184242
31
0
6
DASHED
0
LINE
5
198
100
AcDbEntity
8
0
100
AcDbLine
10
6.6571141761030184
20
-27.607844696913602
30
0
11
67.953076391221828
21
-18.892187959337839
31
0
6
DASHED
0
LINE
5
199
100
AcDbEntity
8
0
100
AcDbLine
10
9.3388551918525877
20
-46.468140694708644
30
0
11
6.6571141761030184
21
-27.607844696913602
31
0
6
DASHED
0
LINE
5
200
100
AcDbEntity
8
0
100
AcDbLine
10
70.634817056922046
20
-37.752482411227348
30
0
11
9.3388551918525877
21
-46.468140694708644
31
0
6
DASHED
0
LINE
5
201
100
AcDbEntity
8
0
100
AcDbLine
10
67.953076391221828
20
-18.892187959337839
30
0
11
70.634817056922046
21
-37.752482411227348
31
0
6
DASHED
0
LINE
5
202
100
AcDbEntity
8
0
100
AcDbLine
10
-88.167182261866657
20
-17.264361311977723
30
0
11
-69.172947752005243
21
-18.720917313094894
31
0
6
DASHED
0
LINE
5
203
100
AcDbEntity
8
0
100
AcDbLine
10
-69.172947752005243
20
-18.720917313094894
30
0
11
-70.629503608672564
21
-37.715149938861316
31
0
6
DASHED
0
LINE
5
204
100
AcDbEntity
8
0
100
AcDbLine
10
-70.629503608672564
20
-37.715149938861316
30
0
11
-89.623738262967578
21
-36.258595821840295
31
0
6
DASHED
0
LINE
5
205
100
AcDbEntity
8
0
100
AcDbLine
10
-89.623738262967578
20
-36.258595821840295
30
0
11
-88.167182261866657
21
-17.264361311977723
31
0
6
DASHED
0
LINE
5
206
100
AcDbEntity
8
0
100
AcDbLine
10
88.290882032300502
20
0.21751858728054302
30
0
11
126.39088203230051
21
0.21751858728055071
31
0
6
DASHED
0
LINE
5
207
100
AcDbEntity
8
0
100
AcDbLine
10
126.39088203230051
20
0.21751858728055071
30
0
11
126.39088203230051
21
-19.33248141271946
31
0
6
DASHED
0
LINE
5
208
100
AcDbEntity
8
0
100
AcDbLine
10
126.39088203230051
20
-18.83248141271946
30
0
11
88.290882032300502
21
-18.83248141271946
31
0
6
DASHED
0
LINE
5
209
100
AcDbEntity
8
0
100
AcDbLine
10
88.290882032300502
20
-18.83248141271946
30
0
11
88.290882032300502
21
0.21751858728054302
31
0
6
DASHED
0
LINE
5
210
100
AcDbEntity
8
0
100
AcDbLine
10
126.39088203230051
20
46.322972509518728
30
0
11
126.39088203230051
21
-19.33248141271946
31
0
0
LINE
5
211
100
AcDbEntity
8
0
100
AcDbLine
10
-90.364802631867917
20
-19.332482700539529
30
0
11
-126.39088259120544
21
-19.332482700539533
31
0
0
LINE
5
212
100
AcDbEntity
8
0
100
AcDbLine
10
-70.689179384686781
20
-38.249797703752833
30
0
11
-9.3742195105321962
21
-46.96814147083893
31
0
0
LINE
5
213
100
AcDbEntity
8
0
100
AcDbLine
10
-70.689179384686781
20
-38.249797703752833
30
0
11
-90.364802631867917
21
-36.771751975272686
31
0
0
LINE
5
214
100
AcDbEntity
8
0
100
AcDbLine
10
3.6077381835691576e-07
20
-49.468141482589445
30
0
11
9.7084031960624166
21
-49.468141411785538
31
0
0
LINE
5
215
100
AcDbEntity
8
0
100
AcDbLine
10
90.364803168224654
20
-36.771750657201949
30
0
11
70.689179942602522
21
-38.249796672672844
31
0
0
LINE
5
216
100
AcDbEntity
8
0
100
AcDbLine
10
67.974034927865048
20
19.534686524718914
30
0
11
86.968251032097555
21
20.991482524752783
31
0
6
DASHED
0
LINE
5
217
100
AcDbEntity
8
0
100
AcDbLine
10
86.968251032097555
20
20.991482524752783
30
0
11
88.425047032131488
21
1.9972664205202919
31
0
6
DASHED
0
LINE
5
218
100
AcDbEntity
8
0
100
AcDbLine
10
88.425047032131488
20
1.9972664205202919
30
0
11
69.430830927898924
21
0.54047042048641603
31
0
6
DASHED
0
LINE
5
219
100
AcDbEntity
8
0
100
AcDbLine
10
69.430830927898924
20
0.54047042048641603
30
0
11
67.974034927865048
21
19.534686524718914
31
0
6
DASHED
0
LINE
5
220
100
AcDbEntity
8
0
100
AcDbLine
10
67.974038223159198
20
0.29307557943678342
30
0
11
86.968254327391719
21
1.7498715794706563
31
0
6
DASHED
0
LINE
5
221
100
AcDbEntity
8
0
100
AcDbLine
10
86.968254327391719
20
1.7498715794706563
30
0
11
88.425050327425566
21
-17.244344524761843
31
0
6
DASHED
0
LINE
5
222
100
AcDbEntity
8
0
100
AcDbLine
10
88.425050327425566
20
-17.244344524761843
30
0
11
69.430834223193045
21
-18.701140524795729
31
0
6
DASHED
0
LINE
5
223
100
AcDbEntity
8
0
100
AcDbLine
10
69.430834223193045
20
-18.701140524795729
30
0
11
67.974038223159198
21
0.29307557943678342
31
0
6
DASHED
0
LINE
5
224
100
AcDbEntity
8
0
100
AcDbLine
10
89.623960129336936
20
-36.258336408329505
30
0
11
70.629744025104415
21
-37.715132408363353
31
0
6
DASHED
0
LINE
5
225
100
AcDbEntity
8
0
100
AcDbLine
10
70.629744025104415
20
-37.715132408363353
30
0
11
69.172948025070554
21
-18.720916304130839
31
0
6
DASHED
0
LINE
5
226
100
AcDbEntity
8
0
100
AcDbLine
10
88.167164129303032
20
-17.264120304096974
30
0
11
89.623960129336936
21
-36.258336408329505
31
0
6
DASHED
0
LINE
5
227
100
AcDbEntity
8
0
100
AcDbLine
10
69.172948025070554
20
-18.720916304130839
30
0
11
88.167164129303032
21
-17.264120304096974
31
0
6
DASHED
0
LINE
5
228
100
AcDbEntity
8
0
100
AcDbLine
10
9.7084031960624166
20
-49.468141411785538
30
0
11
92.748706209004581
21
-38.767754500252735
31
0
0
LINE
5
229
100
AcDbEntity
8
0
100
AcDbLine
10
126.39088203230051
20
-19.33248141271946
30
0
11
90.364803168224654
21
-19.33248141271946
31
0
0
LINE
5
230
100
AcDbEntity
8
0
100
AcDbLine
10
90.364803168224654
20
-36.771750657201949
30
0
11
90.364803168224654
21
-19.33248141271946
31
0
0
LINE
5
231
100
AcDbEntity
8
0
100
AcDbLine
10
-90.364802631867917
20
-19.332482700539529
30
0
11
-90.364802631867917
21
-36.771751975272686
31
0
0
LINE
5
232
100
AcDbEntity
8
0
100
AcDbLine
10
-85.121631182542075
20
46.324110787501446
30
0
11
-126.39088259120444
21
46.324108694162298
31
0
0
LWPOLYLINE
5
233
100
AcDbEntity
8
0
100
AcDbPolyline
90
5
70
1
43
0.0
10
-9.680334865792986
20
35.597150693027132
10
-85.121631182542075
20
46.324110787501446
10
85.121556805321205
20
46.324110787501446
10
9.6802689056442119
20
35.597150438305569
10
-2.2314654661830642e-07
20
35.597150693030564
0
LINE
5
234
100
AcDbEntity
8
0
100
AcDbLine
10
85.121556805321205
20
46.324110787501446
30
0
11
126.39088203230051
21
46.322972509518728
31
0
0
ENDSEC
0
SECTION
2
OBJECTS
0
DICTIONARY
5
C
100
AcDbDictionary
3
ACAD_GROUP
350
D
3
ACAD_MLINESTYLE
350
17
0
DICTIONARY
5
D
100
AcDbDictionary
0
DICTIONARY
5
1A
330
C
100
AcDbDictionary
0
DICTIONARY
5
17
100
AcDbDictionary
0
ENDSEC
0
EOF
