0
SECTION
2
HEADER
9
$INSUNITS
70
4
9
$ACADVER
1
AC1014
9
$HANDSEED
5
FFFF
0
ENDSEC
0
SECTION
2
TABLES
0
TABLE
2
VPORT
5
8
100
AcDbSymbolTable
0
ENDTAB
0
TABLE
2
LTYPE
5
5
100
AcDbSymbolTable
0
LTYPE
5
14
100
AcDbSymbolTableRecord
100
AcDbLinetypeTableRecord
2
BYBLOCK
70
0
0
LTYPE
5
15
100
AcDbSymbolTableRecord
100
AcDbLinetypeTableRecord
2
BYLAYER
70
0
0
LTYPE
5
16
100
AcDbSymbolTableRecord
100
AcDbLinetypeTableRecord
2
DASHED
70
0
3
Dashed __ __ __ __ __ __ __ __ __ __ __ __ __ _
72
65
73
2
40
0.75
49
0.5
74
0
49
-0.25
74
0
0
ENDTAB
0
TABLE
2
LAYER
5
2
100
AcDbSymbolTable
70
2
0
LAYER
5
50
100
AcDbSymbolTableRecord
100
AcDbLayerTableRecord
2
0
70
0
62
7
6
CONTINUOUS
0
ENDTAB
0
TABLE
2
STYLE
5
3
100
AcDbSymbolTable
70
1
0
STYLE
5
11
100
AcDbSymbolTableRecord
100
AcDbTextStyleTableRecord
2
STANDARD
70
0
0
ENDTAB
0
TABLE
2
VIEW
5
6
100
AcDbSymbolTable
70
0
0
ENDTAB
0
TABLE
2
UCS
5
7
100
AcDbSymbolTable
70
0
0
ENDTAB
0
TABLE
2
APPID
5
9
100
AcDbSymbolTable
70
2
0
APPID
5
12
100
AcDbSymbolTableRecord
100
AcDbRegAppTableRecord
2
ACAD
70
0
0
ENDTAB
0
TABLE
2
DIMSTYLE
5
A
100
AcDbSymbolTable
70
1
0
ENDTAB
0
TABLE
2
BLOCK_RECORD
5
1
100
AcDbSymbolTable
70
1
0
BLOCK_RECORD
5
1F
100
AcDbSymbolTableRecord
100
AcDbBlockTableRecord
2
*MODEL_SPACE
0
BLOCK_RECORD
5
1B
100
AcDbSymbolTableRecord
100
AcDbBlockTableRecord
2
*PAPER_SPACE
0
ENDTAB
0
ENDSEC
0
SECTION
2
BLOCKS
0
BLOCK
5
20
100
AcDbEntity
100
AcDbBlockBegin
2
*MODEL_SPACE
0
ENDBLK
5
21
100
AcDbEntity
100
AcDbBlockEnd
0
BLOCK
5
1C
100
AcDbEntity
100
AcDbBlockBegin
2
*PAPER_SPACE
0
ENDBLK
5
1D
100
AcDbEntity
100
AcDbBlockEnd
0
ENDSEC
0
SECTION
2
ENTITIES
0
POINT
5
100
100
AcDbEntity
8
0
100
AcDbPoint
10
-116.86588259120396
20
28.792517299460751
30
0
0
POINT
5
101
100
AcDbEntity
8
0
100
AcDbPoint
10
-97.815882591203945
20
28.792517299461057
30
0
0
POINT
5
102
100
AcDbEntity
8
0
100
AcDbPoint
10
-97.815882591203945
20
9.7425172994603493
30
0
0
POINT
5
103
100
AcDbEntity
8
0
100
AcDbPoint
10
-116.86588259120396
20
9.7425172994603493
30
0
0
POINT
5
104
100
AcDbEntity
8
0
100
AcDbPoint
10
-116.86588259120396
20
-9.3074827005400618
30
0
0
POINT
5
105
100
AcDbEntity
8
0
100
AcDbPoint
10
-97.815882591203945
20
-9.3074827005397545
30
0
0
POINT
5
106
100
AcDbEntity
8
0
100
AcDbPoint
10
97.815882032300507
20
28.792519010769304
30
0
0
POINT
5
107
100
AcDbEntity
8
0
100
AcDbPoint
10
116.86588203230052
20
28.792519010769304
30
0
0
POINT
5
108
100
AcDbEntity
8
0
100
AcDbPoint
10
116.86588203230052
20
9.7425185872805464
30
0
0
POINT
5
109
100
AcDbEntity
8
0
100
AcDbPoint
10
97.815882032300507
20
9.7425185872805464
30
0
0
POINT
5
110
100
AcDbEntity
8
0
100
AcDbPoint
10
97.815882032300507
20
-9.3074814127194578
30
0
0
POINT
5
111
100
AcDbEntity
8
0
100
AcDbPoint
10
116.86588203230052
20
-9.3074814127194578
30
0
0
POINT
5
112
100
AcDbEntity
8
0
100
AcDbPoint
10
-59.750812652331817
20
28.005280196704096
30
0
0
POINT
5
113
100
AcDbEntity
8
0
100
AcDbPoint
10
-40.890515959766738
20
25.323544067175451
30
0
0
POINT
5
114
100
AcDbEntity
8
0
100
AcDbPoint
10
-22.030219267201666
20
22.641807937646746
30
0
0
POINT
5
115
100
AcDbEntity
8
0
100
AcDbPoint
10
-22.143204306376333
20
-35.026690682906612
30
0
0
POINT
5
116
100
AcDbEntity
8
0
100
AcDbPoint
10
-59.863797691506527
20
-29.663218423849735
30
0
0
POINT
5
117
100
AcDbEntity
8
0
100
AcDbPoint
10
-41.003500998941462
20
-32.34495455337813
30
0
0
POINT
5
118
100
AcDbEntity
8
0
100
AcDbPoint
10
-20.936330011944886
20
3.2849269478792587
30
0
0
POINT
5
119
100
AcDbEntity
8
0
100
AcDbPoint
10
-58.656923397075019
20
8.6483992069365172
30
0
0
POINT
5
120
100
AcDbEntity
8
0
100
AcDbPoint
10
-39.796626704509961
20
5.9666630774079472
30
0
0
POINT
5
121
100
AcDbEntity
8
0
100
AcDbPoint
10
-20.936346373502566
20
-15.956682240038623
30
0
0
POINT
5
122
100
AcDbEntity
8
0
100
AcDbPoint
10
-58.656939758632703
20
-10.593209980981539
30
0
0
POINT
5
123
100
AcDbEntity
8
0
100
AcDbPoint
10
-39.796643066067638
20
-13.274946110510054
30
0
0
POINT
5
124
100
AcDbEntity
8
0
100
AcDbPoint
10
58.525638512007831
20
27.871357000651827
30
0
0
POINT
5
125
100
AcDbEntity
8
0
100
AcDbPoint
10
20.805045228029396
20
22.507884030208057
30
0
0
POINT
5
126
100
AcDbEntity
8
0
100
AcDbPoint
10
39.665341870018565
20
25.189620515429986
30
0
0
POINT
5
127
100
AcDbEntity
8
0
100
AcDbPoint
10
58.65693821936928
20
-10.593196595298412
30
0
0
POINT
5
128
100
AcDbEntity
8
0
100
AcDbPoint
10
20.936344935390963
20
-15.956669565742473
30
0
0
POINT
5
129
100
AcDbEntity
8
0
100
AcDbPoint
10
39.796641577380029
20
-13.274933080520416
30
0
0
POINT
5
130
100
AcDbEntity
8
0
100
AcDbPoint
10
-78.065487763134144
20
30.007457307137457
30
0
0
POINT
5
131
100
AcDbEntity
8
0
100
AcDbPoint
10
-78.199430468277626
20
10.765846278859762
30
0
0
POINT
5
132
100
AcDbEntity
8
0
100
AcDbPoint
10
-78.199433482921549
20
-8.4757646664183923
30
0
0
POINT
5
133
100
AcDbEntity
8
0
100
AcDbPoint
10
-79.398342971378014
20
-27.489756096443557
30
0
0
POINT
5
134
100
AcDbEntity
8
0
100
AcDbPoint
10
58.656919924152646
20
8.6484120692367483
30
0
0
POINT
5
135
100
AcDbEntity
8
0
100
AcDbPoint
10
20.936326640174201
20
3.2849390987928073
30
0
0
POINT
5
136
100
AcDbEntity
8
0
100
AcDbPoint
10
39.796623282163345
20
5.9666755840148111
30
0
0
POINT
5
137
100
AcDbEntity
8
0
100
AcDbPoint
10
59.863796312838389
20
-29.663204522943396
30
0
0
POINT
5
138
100
AcDbEntity
8
0
100
AcDbPoint
10
22.143203028859876
20
-35.026677493387623
30
0
0
POINT
5
139
100
AcDbEntity
8
0
100
AcDbPoint
10
41.003499670849081
20
-32.344941008165478
30
0
0
POINT
5
140
100
AcDbEntity
8
0
100
AcDbPoint
10
78.065369657539094
20
30.007583945902319
30
0
0
POINT
5
141
100
AcDbEntity
8
0
100
AcDbPoint
10
78.199540979998261
20
10.765976472619602
30
0
0
POINT
5
142
100
AcDbEntity
8
0
100
AcDbPoint
10
78.199544275292382
20
-8.4756344726625326
30
0
0
POINT
5
143
100
AcDbEntity
8
0
100
AcDbPoint
10
79.528664859921946
20
-27.48907977937515
30
0
0
LINE
5
144
100
AcDbEntity
8
0
100
AcDbLine
10
-88.290882591205445
20
-18.832482700539529
30
0
11
-126.39088259120544
21
-18.832482700539533
31
0
0
LINE
5
145
100
AcDbEntity
8
0
100
AcDbLine
10
-89.623738262967578
20
-36.258595821840295
30
0
11
-88.167182261866657
21
-17.264361311977723
31
0
0
LINE
5
146
100
AcDbEntity
8
0
100
AcDbLine
10
-70.629503608672564
20
-37.715149938861316
30
0
11
-89.623738262967578
21
-36.258595821840295
31
0
0
LWPOLYLINE
5
147
100
AcDbEntity
8
0
100
AcDbPolyline
90
4
70
1
43
0.0
10
-9.3388500136467218
20
-46.46814147083893
10
-70.6348142090702
20
-37.752498689900541
10
-67.95307797302489
20
-18.892202012802962
10
-6.6571137734111261
20
-27.607844794014987
0
LINE
5
148
100
AcDbEntity
8
0
100
AcDbLine
10
-112.36480263186793
20
-25.332482700539529
30
0
11
-112.36480263186793
21
-19.332482700539529
31
0
0
LINE
5
149
100
AcDbEntity
8
0
100
AcDbLine
10
-126.39088259120642
20
41.324095211141923
30
0
11
-126.39088259120544
21
-18.853346248673446
31
0
0
LINE
5
150
100
AcDbEntity
8
0
100
AcDbLine
10
-85.475217767720522
20
41.324095211145107
30
0
11
-126.39088259120642
21
41.324095211141923
31
0
0
CIRCLE
5
151
100
AcDbEntity
8
0
100
AcDbCircle
10
-89.139854470257262
20
40.674095635648293
30
0
40
2.4500000000000011
210
0
220
-0
230
1
0
LINE
5
152
100
AcDbEntity
8
0
100
AcDbLine
10
-10.034030997460256
20
30.597150693030557
30
0
11
-85.475217767720522
21
41.324095211145107
31
0
0
LINE
5
153
100
AcDbEntity
8
0
100
AcDbLine
10
-10.034028663986083
20
30.597150693030571
30
0
11
10.034030551166895
21
30.5971508422884
31
0
0
LWPOLYLINE
5
154
100
AcDbEntity
8
0
100
AcDbPolyline
90
8
70
1
43
0.0
10
10.034030597006165
20
30.597150517008412
10
66.614918590391483
20
38.642373564257277
10
69.296659605439629
20
19.782077893769106
10
88.290875709672321
20
21.238873893803035
10
86.834079709638473
20
40.23308999803551
10
67.839863605405966
20
38.776293998001634
10
69.296659605439629
20
19.782077893769106
10
12.715771612755788
20
11.736854519213299
0
LINE
5
155
100
AcDbEntity
8
0
100
AcDbLine
10
65.585744033158704
20
45.064052153468808
30
0
11
66.430658694441007
21
39.123840102106449
31
0
0
LINE
5
156
100
AcDbEntity
8
0
100
AcDbLine
10
45.785037195284282
20
42.247669949194417
30
0
11
65.585744033158704
21
45.064052153468808
31
0
0
LINE
5
157
100
AcDbEntity
8
0
100
AcDbLine
10
46.629951856566393
20
36.307457897832087
30
0
11
45.785037195284282
21
42.247669949194417
31
0
0
LINE
5
158
100
AcDbEntity
8
0
100
AcDbLine
10
-65.586387373552114
20
45.061490732661213
30
0
11
-45.785551012104627
21
42.246019300169131
31
0
0
LINE
5
159
100
AcDbEntity
8
0
100
AcDbLine
10
-66.431028803299739
20
39.121239824226976
30
0
11
-65.586387373552114
21
45.061490732661213
31
0
0
LINE
5
160
100
AcDbEntity
8
0
100
AcDbLine
10
-45.785551012104627
20
42.246019300169131
30
0
11
-46.630192441852287
21
36.305768391734901
31
0
0
CIRCLE
5
161
100
AcDbEntity
8
0
100
AcDbCircle
10
89.114918967582497
20
40.673996767038652
30
0
40
2.4500000000000028
210
0
220
-0
230
1
0
LINE
5
162
100
AcDbEntity
8
0
100
AcDbLine
10
126.39088203230051
20
46.322972509518728
30
0
11
126.39088203230051
21
-19.33248141271946
31
0
0
LINE
5
163
100
AcDbEntity
8
0
100
AcDbLine
10
88.287452441129744
20
-18.83248141271946
30
0
11
126.39088203230051
21
-18.83248141271946
31
0
0
LINE
5
164
100
AcDbEntity
8
0
100
AcDbLine
10
88.167164129303032
20
-17.264120304096974
30
0
11
89.623960129336936
21
-36.258336408329505
31
0
0
LINE
5
165
100
AcDbEntity
8
0
100
AcDbLine
10
70.634814759732194
20
-37.752497659613539
30
0
11
89.623960129336936
21
-36.258336408329505
31
0
0
LWPOLYLINE
5
166
100
AcDbEntity
8
0
100
AcDbPolyline
90
2
70
1
43
0.0
10
70.63481823533985
20
-37.752497659613518
10
9.3388506914360381
20
-46.4681418288164
0
CIRCLE
5
167
100
AcDbEntity
8
0
100
AcDbCircle
10
0
20
-45.818141470814375
30
0
40
2.4499999999999966
210
0
220
-0
230
1
0
LINE
5
168
100
AcDbEntity
8
0
100
AcDbLine
10
-9.338849926679277
20
-46.468141482589445
30
0
11
9.338850688224591
21
-46.468141342471284
31
0
0
LINE
5
169
100
AcDbEntity
8
0
100
AcDbLine
10
10.034030597006165
20
30.597150517008412
30
0
11
85.475217164962828
21
41.32409645789582
31
0
0
LINE
5
170
100
AcDbEntity
8
0
100
AcDbLine
10
85.475217164962828
20
41.32409645789582
30
0
11
126.39089030215703
21
41.322977160386891
31
0
0
LINE
5
171
100
AcDbEntity
8
0
100
AcDbLine
10
-88.290882591203911
20
19.267517299462192
30
0
11
-126.39088259120393
21
19.267517299460231
31
0
0
LINE
5
172
100
AcDbEntity
8
0
100
AcDbLine
10
-126.39088259120544
20
0.21751729946046966
30
0
11
-88.290882591205445
21
0.21751729946032775
31
0
0
LINE
5
173
100
AcDbEntity
8
0
100
AcDbLine
10
-126.39088259120393
20
38.317517299460235
30
0
11
-88.290882591203939
21
38.317517299460235
31
0
0
LINE
5
174
100
AcDbEntity
8
0
100
AcDbLine
10
-88.290882591203939
20
38.317517299460235
30
0
11
-88.290882591203911
21
19.267517299462192
31
0
0
LINE
5
175
100
AcDbEntity
8
0
100
AcDbLine
10
-88.29088259120573
20
19.267517299462472
30
0
11
-88.290882591205744
21
0.21751729946032805
31
0
0
LINE
5
176
100
AcDbEntity
8
0
100
AcDbLine
10
-88.290882591205445
20
0.21751729946032775
30
0
11
-88.290882591205445
21
-18.832482700539529
31
0
0
LWPOLYLINE
5
177
100
AcDbEntity
8
0
100
AcDbPolyline
90
4
70
1
43
0.0
10
-88.290882591460502
20
21.238618033542327
10
-86.834327443713292
20
40.232852608843643
10
-67.840092933850016
20
38.776296607750957
10
-69.296648083512764
20
19.782061978412912
0
LWPOLYLINE
5
178
100
AcDbEntity
8
0
100
AcDbPolyline
90
4
70
1
43
0.0
10
-86.968269722653019
20
20.991241534334272
10
-67.974035212800075
20
19.534685533242325
10
-69.430591213893223
20
0.54045102337413553
10
-88.424825723764187
20
1.9970070244883045
0
LINE
5
179
100
AcDbEntity
8
0
100
AcDbLine
10
-88.4248287383936
20
-17.244603920805069
30
0
11
-86.968272737292423
21
1.7496305890577646
31
0
0
LINE
5
180
100
AcDbEntity
8
0
100
AcDbLine
10
-86.968272737292423
20
1.7496305890577646
30
0
11
-67.974038227434022
21
0.2930745879601479
31
0
0
LINE
5
181
100
AcDbEntity
8
0
100
AcDbLine
10
-67.974038227434022
20
0.2930745879601479
30
0
11
-69.430594228530339
21
-18.701159921897798
31
0
0
LINE
5
182
100
AcDbEntity
8
0
100
AcDbLine
10
-88.167182261866657
20
-17.264361311977723
30
0
11
-69.172947752005243
21
-18.720917313094894
31
0
0
LINE
5
183
100
AcDbEntity
8
0
100
AcDbLine
10
-69.172947752005243
20
-18.720917313094894
30
0
11
-70.629503608672564
21
-37.715149938861316
31
0
0
LINE
5
184
100
AcDbEntity
8
0
100
AcDbLine
10
-66.746220040151002
20
0.17780643006527547
30
0
11
-10.165330010553326
21
-7.8674022967842312
31
0
0
LINE
5
185
100
AcDbEntity
8
0
100
AcDbLine
10
-12.715767617208249
20
11.736854069753509
30
0
11
-69.296648083512764
21
19.782061978412912
31
0
0
LWPOLYLINE
5
186
100
AcDbEntity
8
0
100
AcDbPolyline
90
4
70
1
43
0.0
10
-10.165313737107361
20
11.37420627145567
10
-12.847050392171727
20
-7.4860916107971676
10
-69.427921352806834
20
0.55911630127526757
10
-66.746203678593275
20
19.41941561798334
0
LINE
5
187
100
AcDbEntity
8
0
100
AcDbLine
10
-10.034030997460256
20
30.597150693030557
30
0
11
-12.715767617208249
21
11.736854069753509
31
0
0
LINE
5
188
100
AcDbEntity
8
0
100
AcDbLine
10
-66.614920951630808
20
38.64235995034899
30
0
11
-10.034030997460256
21
30.597150693030557
31
0
0
LWPOLYLINE
5
189
100
AcDbEntity
8
0
100
AcDbPolyline
90
4
70
1
43
0.0
10
10.165311890545306
20
11.374206419728015
10
66.746200002536156
20
19.419428632842223
10
69.427942547030952
20
0.55913370341820512
10
12.847052906294943
20
-7.4860895780671051
0
LWPOLYLINE
5
190
100
AcDbEntity
8
0
100
AcDbPolyline
90
4
70
1
43
0.0
10
10.165330125308111
20
-7.8674018196426223
10
66.746218297752847
20
0.17781996830714353
10
69.427959134443014
20
-18.682474770188556
10
12.847071141057747
20
-26.727697817437694
0
LWPOLYLINE
5
191
100
AcDbEntity
8
0
100
AcDbPolyline
90
4
70
1
43
0.0
10
69.430830927898924
20
0.54047042048641603
10
67.974034927865048
20
19.534686524718914
10
86.968251032097555
20
20.991482524752783
10
88.425047032131488
20
1.9972664205202919
0
LWPOLYLINE
5
192
100
AcDbEntity
8
0
100
AcDbPolyline
90
4
70
1
43
0.0
10
67.974038223159198
20
0.29307557943678342
10
86.968254327391719
20
1.7498715794706563
10
88.425050327425566
20
-17.244344524761843
10
69.430834223193045
20
-18.701140524795729
0
LINE
5
193
100
AcDbEntity
8
0
100
AcDbLine
10
88.290882032300502
20
19.267519010769306
30
0
11
88.290882032300502
21
38.317519010769303
31
0
0
LINE
5
194
100
AcDbEntity
8
0
100
AcDbLine
10
88.290882032300502
20
38.317519010769303
30
0
11
126.39088203230051
21
38.317519010769317
31
0
0
LINE
5
195
100
AcDbEntity
8
0
100
AcDbLine
10
126.39088203230051
20
19.267518587280541
30
0
11
88.290882032300502
21
19.267519010769306
31
0
0
LINE
5
196
100
AcDbEntity
8
0
100
AcDbLine
10
88.290882032300502
20
0.21751858728054302
30
0
11
88.290882032300502
21
19.267518587280545
31
0
0
LINE
5
197
100
AcDbEntity
8
0
100
AcDbLine
10
126.39088203230051
20
0.21751858728054302
30
0
11
88.290882032300502
21
0.21751858728054302
31
0
0
LINE
5
198
100
AcDbEntity
8
0
100
AcDbLine
10
88.290882032300502
20
-18.83248141271946
30
0
11
88.290882032300502
21
0.21751858728054302
31
0
0
LINE
5
199
100
AcDbEntity
8
0
100
AcDbLine
10
70.629744025104415
20
-37.715132408363353
30
0
11
69.172948025070554
21
-18.720916304130839
31
0
0
LINE
5
200
100
AcDbEntity
8
0
100
AcDbLine
10
67.953076391221828
20
-18.892187959337839
30
0
11
70.634817056922046
21
-37.752482411227348
31
0
0
LINE
5
201
100
AcDbEntity
8
0
100
AcDbLine
10
89.623960129336936
20
-36.258336408329505
30
0
11
70.629744025104415
21
-37.715132408363353
31
0
0
LINE
5
202
100
AcDbEntity
8
0
100
AcDbLine
10
9.3388551918525877
20
-46.468140694708644
30
0
11
6.6571141761030184
21
-27.607844696913602
31
0
0
LINE
5
203
100
AcDbEntity
8
0
100
AcDbLine
10
6.6571141761030184
20
-27.607844696913602
30
0
11
67.953076391221828
21
-18.892187959337839
31
0
0
LINE
5
204
100
AcDbEntity
8
0
100
AcDbLine
10
126.39088203230051
20
-18.83248141271946
30
0
11
88.290882032300502
21
-18.83248141271946
31
0
0
LINE
5
205
100
AcDbEntity
8
0
100
AcDbLine
10
112.36480316822465
20
-19.33248141271946
30
0
11
112.36480316822465
21
-25.33248141271946
31
0
0
LINE
5
206
100
AcDbEntity
8
0
100
AcDbLine
10
-107.34088259120395
20
38.317517299460235
30
0
11
-107.34088259120543
21
-18.832482700539529
31
0
6
DASHED
0
LINE
5
207
100
AcDbEntity
8
0
100
AcDbLine
10
-88.290882591205744
20
9.7425172994613991
30
0
11
-126.39088259120591
21
9.7425172994607809
31
0
6
DASHED
0
LINE
5
208
100
AcDbEntity
8
0
100
AcDbLine
10
-88.290882591205445
20
-9.3074827005395999
30
0
11
-126.39088259120561
21
-9.3074827005402181
31
0
6
DASHED
0
LINE
5
209
100
AcDbEntity
8
0
100
AcDbLine
10
-88.290882591203939
20
28.792517299461213
30
0
11
-126.39088259120624
21
28.792517299460595
31
0
6
DASHED
0
LINE
5
210
100
AcDbEntity
8
0
100
AcDbLine
10
-126.39088259120393
20
38.317517299460235
30
0
11
-107.34088259120395
21
38.317517299460235
31
0
0
LINE
5
211
100
AcDbEntity
8
0
100
AcDbLine
10
-116.86588259120396
20
38.317517299460235
30
0
11
-116.86588259120396
21
-18.832482700539529
31
0
6
DASHED
0
LINE
5
212
100
AcDbEntity
8
0
100
AcDbLine
10
-107.34088259120395
20
38.317517299460235
30
0
11
-88.290882591203939
21
38.317517299460235
31
0
0
LINE
5
213
100
AcDbEntity
8
0
100
AcDbLine
10
-97.815882591203945
20
38.317517299460235
30
0
11
-97.815882591203945
21
-18.832482700539529
31
0
6
DASHED
0
LINE
5
214
100
AcDbEntity
8
0
100
AcDbLine
10
107.34088203230051
20
38.31751901076931
30
0
11
107.33916723671513
21
-18.83248141271946
31
0
6
DASHED
0
LINE
5
215
100
AcDbEntity
8
0
100
AcDbLine
10
88.290882032300502
20
28.792519010769304
30
0
11
126.39088203230051
21
28.792519010769304
31
0
6
DASHED
0
LINE
5
216
100
AcDbEntity
8
0
100
AcDbLine
10
88.290882032300502
20
9.7425185872805447
30
0
11
126.39088203230051
21
9.7425185872805447
31
0
6
DASHED
0
LINE
5
217
100
AcDbEntity
8
0
100
AcDbLine
10
88.290882032300502
20
-9.3074814127194578
30
0
11
126.39088203230051
21
-9.3074814127194578
31
0
6
DASHED
0
LINE
5
218
100
AcDbEntity
8
0
100
AcDbLine
10
88.290882032300502
20
38.317519010769303
30
0
11
107.34088203230051
21
38.31751901076931
31
0
0
LINE
5
219
100
AcDbEntity
8
0
100
AcDbLine
10
107.34088203230051
20
38.31751901076931
30
0
11
126.39088203230051
21
38.317519010769317
31
0
0
LINE
5
220
100
AcDbEntity
8
0
100
AcDbLine
10
97.815882032300507
20
38.31751901076931
30
0
11
97.815882032300507
21
-9.3074814127194578
31
0
6
DASHED
0
LINE
5
221
100
AcDbEntity
8
0
100
AcDbLine
10
116.86588203230052
20
38.31751901076931
30
0
11
116.86588203230052
21
-9.3074814127194578
31
0
6
DASHED
0
LINE
5
222
100
AcDbEntity
8
0
100
AcDbLine
10
89.623960129336936
20
-36.258336408329505
30
0
11
89.623960129336936
21
-18.83248141271946
31
0
0
LINE
5
223
100
AcDbEntity
8
0
100
AcDbLine
10
-112.36480263186793
20
-25.332482700539529
30
0
11
-92.364802631867931
21
-25.332482700539529
31
0
0
LINE
5
224
100
AcDbEntity
8
0
100
AcDbLine
10
112.36480316822465
20
-25.33248141271946
30
0
11
92.364803168224654
21
-25.33248141271946
31
0
0
LINE
5
225
100
AcDbEntity
8
0
100
AcDbLine
10
92.364803168224654
20
-25.33248141271946
30
0
11
92.364803168224654
21
-18.83248141271946
31
0
0
LINE
5
226
100
AcDbEntity
8
0
100
AcDbLine
10
-92.364802631867931
20
-25.332482700539529
30
0
11
-92.364802631867931
21
-18.832482700539529
31
0
0
LINE
5
227
100
AcDbEntity
8
0
100
AcDbLine
10
-68.568370508681383
20
29.279179293081935
30
0
11
-87.56260501758689
21
30.735735321192983
31
0
6
DASHED
0
LINE
5
228
100
AcDbEntity
8
0
100
AcDbLine
10
-77.337210188781654
20
39.504574608297304
30
0
11
-78.793765337486633
21
20.510340005977618
31
0
6
DASHED
0
LINE
5
229
100
AcDbEntity
8
0
100
AcDbLine
10
-77.47115246772654
20
20.262963533788295
30
0
11
-78.927708468828698
21
1.2687290239312199
31
0
6
DASHED
0
LINE
5
230
100
AcDbEntity
8
0
100
AcDbLine
10
-77.471155482363216
20
1.0213525885089563
30
0
11
-78.927711483479882
21
-17.972881921345738
31
0
6
DASHED
0
LINE
5
231
100
AcDbEntity
8
0
100
AcDbLine
10
-78.927711483479882
20
-17.972881921345738
30
0
11
-80.126620935820071
21
-36.986872880350809
31
0
6
DASHED
0
LINE
5
232
100
AcDbEntity
8
0
100
AcDbLine
10
77.336971657522213
20
39.504691998018572
30
0
11
78.793767657555975
21
20.510475893786069
31
0
6
DASHED
0
LINE
5
233
100
AcDbEntity
8
0
100
AcDbLine
10
77.471142979981309
20
20.263084524735852
30
0
11
78.927938980015199
21
1.268868420503354
31
0
6
DASHED
0
LINE
5
234
100
AcDbEntity
8
0
100
AcDbLine
10
77.471146275275458
20
1.0214735794537197
30
0
11
78.927942275309306
21
-17.972742524778784
31
0
6
DASHED
0
LINE
5
235
100
AcDbEntity
8
0
100
AcDbLine
10
78.927942275309306
20
-17.972742524778784
30
0
11
80.129387444534572
21
-37.005417033971518
31
0
6
DASHED
0
LINE
5
236
100
AcDbEntity
8
0
100
AcDbLine
10
7.997984683977803
20
-37.03799269581112
30
0
11
69.29394672407193
21
-28.322335185282594
31
0
0
LINE
5
237
100
AcDbEntity
8
0
100
AcDbLine
10
11.506200633182928
20
-17.297549818540158
30
0
11
68.087088716097938
21
-9.2523274009407057
31
0
0
LINE
5
238
100
AcDbEntity
8
0
100
AcDbLine
10
11.506182398420124
20
1.9440584208304545
30
0
11
68.087071274783554
21
9.9892811681302121
31
0
0
LINE
5
239
100
AcDbEntity
8
0
100
AcDbLine
10
11.374901104880976
20
21.167002518110856
30
0
11
67.95578909791557
21
29.212225729013195
31
0
0
LINE
5
240
100
AcDbEntity
8
0
100
AcDbLine
10
-11.374899307334253
20
21.167002381392031
30
0
11
-68.568370508681383
21
29.279179293081935
31
0
0
LINE
5
241
100
AcDbEntity
8
0
100
AcDbLine
10
-68.702313213346656
20
10.037568278308232
30
0
11
-87.69654772320861
21
11.494124279411288
31
0
6
DASHED
0
LINE
5
242
100
AcDbEntity
8
0
100
AcDbLine
10
68.702432927881986
20
10.037578472602666
30
0
11
87.696649032114522
21
11.49437447263654
31
0
6
DASHED
0
LINE
5
243
100
AcDbEntity
8
0
100
AcDbLine
10
-87.696550737843012
20
-7.7474866658736516
30
0
11
-68.70231622798218
21
-9.2040426669688244
31
0
6
DASHED
0
LINE
5
244
100
AcDbEntity
8
0
100
AcDbLine
10
-88.895460262417117
20
-26.761478566909005
30
0
11
-69.901225680338896
21
-28.218033625978105
31
0
6
DASHED
0
LINE
5
245
100
AcDbEntity
8
0
100
AcDbLine
10
88.895562129319984
20
-26.761228356213238
30
0
11
69.901346025087477
21
-28.218024356247096
31
0
6
DASHED
0
LINE
5
246
100
AcDbEntity
8
0
100
AcDbLine
10
68.702436223176122
20
-9.2040324726794722
30
0
11
87.696652327408628
21
-7.747236472645592
31
0
6
DASHED
0
LINE
5
247
100
AcDbEntity
8
0
100
AcDbLine
10
-67.840092933850016
20
38.776296607750957
30
0
11
-11.259202856154824
21
30.731088219164889
31
0
6
DASHED
0
LINE
5
248
100
AcDbEntity
8
0
100
AcDbLine
10
-11.259202856154824
20
30.731088219164889
30
0
11
-13.94093898568344
21
11.870791526599982
31
0
6
DASHED
0
LINE
5
249
100
AcDbEntity
8
0
100
AcDbLine
10
-13.94093898568344
20
11.870791526599982
30
0
11
-70.521829063378703
21
19.915999915185907
31
0
6
DASHED
0
LINE
5
250
100
AcDbEntity
8
0
100
AcDbLine
10
-70.521829063378703
20
19.915999915185907
30
0
11
-67.840092933850016
21
38.776296607750957
31
0
6
DASHED
0
LINE
5
251
100
AcDbEntity
8
0
100
AcDbLine
10
-69.180960998614353
20
29.346148261468432
30
0
11
-12.60007092091913
21
21.300939872882431
31
0
6
DASHED
0
LINE
5
252
100
AcDbEntity
8
0
100
AcDbLine
10
-67.840092933850016
20
38.776296607750957
30
0
11
-58.409944587567495
21
37.435428542986621
31
0
6
DASHED
0
LINE
5
253
100
AcDbEntity
8
0
100
AcDbLine
10
-11.259202856154824
20
30.731088219164889
30
0
11
-20.689351202437347
21
32.071956283929211
31
0
0
LINE
5
254
100
AcDbEntity
8
0
100
AcDbLine
10
-58.409944587567495
20
37.435428542986621
30
0
11
-39.549647895002423
21
34.753692413457969
31
0
6
DASHED
0
LINE
5
255
100
AcDbEntity
8
0
100
AcDbLine
10
-58.409944587567495
20
37.435428542986621
30
0
11
-61.091680717096139
21
18.575131850421581
31
0
6
DASHED
0
LINE
5
256
100
AcDbEntity
8
0
100
AcDbLine
10
-20.689351202437347
20
32.071956283929211
30
0
11
-23.371087331965978
21
13.211659591364299
31
0
6
DASHED
0
LINE
5
257
100
AcDbEntity
8
0
100
AcDbLine
10
-39.549647895002423
20
34.753692413457969
30
0
11
-42.231384024531067
21
15.893395720892944
31
0
6
DASHED
0
LINE
5
258
100
AcDbEntity
8
0
100
AcDbLine
10
-20.802336241612164
20
-25.596542336624175
30
0
11
-23.484072371140492
21
-44.456839029189027
31
0
6
DASHED
0
LINE
5
259
100
AcDbEntity
8
0
100
AcDbLine
10
-11.372187895329615
20
-26.93741040138837
30
0
11
-20.802336241612164
21
-25.596542336624175
31
0
0
LINE
5
260
100
AcDbEntity
8
0
100
AcDbLine
10
-39.662632934177253
20
-22.91480620709563
30
0
11
-42.34436906370567
21
-41.775102899660617
31
0
6
DASHED
0
LINE
5
261
100
AcDbEntity
8
0
100
AcDbLine
10
-11.372187895329615
20
-26.93741040138837
30
0
11
-14.053924024857967
21
-45.7977070939532
31
0
6
DASHED
0
LINE
5
262
100
AcDbEntity
8
0
100
AcDbLine
10
-67.95307797302489
20
-18.892202012802962
30
0
11
-58.522929626742346
21
-20.233070077567202
31
0
6
DASHED
0
LINE
5
263
100
AcDbEntity
8
0
100
AcDbLine
10
-58.522929626742346
20
-20.233070077567202
30
0
11
-61.204665756270714
21
-39.093366770132263
31
0
6
DASHED
0
LINE
5
264
100
AcDbEntity
8
0
100
AcDbLine
10
-14.053924024857967
20
-45.7977070939532
30
0
11
-70.634814102553364
21
-37.752498705368055
31
0
6
DASHED
0
LINE
5
265
100
AcDbEntity
8
0
100
AcDbLine
10
-58.522929626742346
20
-20.233070077567202
30
0
11
-39.662632934177253
21
-22.91480620709563
31
0
6
DASHED
0
LINE
5
266
100
AcDbEntity
8
0
100
AcDbLine
10
-70.634814102553364
20
-37.752498705368055
30
0
11
-67.95307797302489
21
-18.892202012802962
31
0
6
DASHED
0
LINE
5
267
100
AcDbEntity
8
0
100
AcDbLine
10
-69.293946037789141
20
-28.322350359085515
30
0
11
-12.71305596009379
21
-36.367558747670785
31
0
6
DASHED
0
LINE
5
268
100
AcDbEntity
8
0
100
AcDbLine
10
-67.95307797302489
20
-18.892202012802962
30
0
11
-11.372187895329615
21
-26.93741040138837
31
0
6
DASHED
0
LINE
5
269
100
AcDbEntity
8
0
100
AcDbLine
10
-68.087071743357598
20
9.9892672717008164
30
0
11
-11.506181665662343
21
1.9440588831149697
31
0
6
DASHED
0
LINE
5
270
100
AcDbEntity
8
0
100
AcDbLine
10
-57.316055332310739
20
18.078547553219032
30
0
11
-59.997791461839313
21
-0.78174913934601076
31
0
6
DASHED
0
LINE
5
271
100
AcDbEntity
8
0
100
AcDbLine
10
-12.84704973042661
20
-7.4860894631674419
30
0
11
-69.427939808121906
21
0.55911892541828379
31
0
6
DASHED
0
LINE
5
272
100
AcDbEntity
8
0
100
AcDbLine
10
-19.59546194718062
20
12.715075294161659
30
0
11
-22.277198076709155
21
-6.1452213984031552
31
0
6
DASHED
0
LINE
5
273
100
AcDbEntity
8
0
100
AcDbLine
10
-66.746203678593275
20
19.41941561798334
30
0
11
-10.165313600898074
21
11.374207229397372
31
0
6
DASHED
0
LINE
5
274
100
AcDbEntity
8
0
100
AcDbLine
10
-69.427939808121906
20
0.55911892541828379
30
0
11
-66.746203678593275
21
19.41941561798334
31
0
6
DASHED
0
LINE
5
275
100
AcDbEntity
8
0
100
AcDbLine
10
-57.316055332310739
20
18.078547553219032
30
0
11
-38.455758639745667
21
15.39681142369046
31
0
6
DASHED
0
LINE
5
276
100
AcDbEntity
8
0
100
AcDbLine
10
-66.746203678593275
20
19.41941561798334
30
0
11
-57.316055332310739
21
18.078547553219032
31
0
6
DASHED
0
LINE
5
277
100
AcDbEntity
8
0
100
AcDbLine
10
-38.455758639745667
20
15.39681142369046
30
0
11
-41.137494769274255
21
-3.4634852688745799
31
0
6
DASHED
0
LINE
5
278
100
AcDbEntity
8
0
100
AcDbLine
10
-10.165313600898074
20
11.374207229397372
30
0
11
-19.59546194718062
21
12.715075294161659
31
0
0
LINE
5
279
100
AcDbEntity
8
0
100
AcDbLine
10
-10.165313600898074
20
11.374207229397372
30
0
11
-12.84704973042661
21
-7.4860894631674419
31
0
6
DASHED
0
LINE
5
280
100
AcDbEntity
8
0
100
AcDbLine
10
-68.087088104915281
20
-9.2523419162172669
30
0
11
-11.506198027219998
21
-17.297550304802876
31
0
6
DASHED
0
LINE
5
281
100
AcDbEntity
8
0
100
AcDbLine
10
-19.595478308738311
20
-6.5265338937561861
30
0
11
-22.277214438266824
21
-25.386830586321057
31
0
6
DASHED
0
LINE
5
282
100
AcDbEntity
8
0
100
AcDbLine
10
-38.45577500130338
20
-3.8447977642275442
30
0
11
-41.137511130831896
21
-22.705094456792562
31
0
6
DASHED
0
LINE
5
283
100
AcDbEntity
8
0
100
AcDbLine
10
-66.746220040151002
20
0.17780643006527547
30
0
11
-10.165329962455761
21
-7.8674019585204347
31
0
6
DASHED
0
LINE
5
284
100
AcDbEntity
8
0
100
AcDbLine
10
-57.316071693868466
20
-1.1630616346990119
30
0
11
-38.45577500130338
21
-3.8447977642275442
31
0
6
DASHED
0
LINE
5
285
100
AcDbEntity
8
0
100
AcDbLine
10
-10.165329962455761
20
-7.8674019585204347
30
0
11
-12.847066091984232
21
-26.727698651085316
31
0
6
DASHED
0
LINE
5
286
100
AcDbEntity
8
0
100
AcDbLine
10
-10.165329962455761
20
-7.8674019585204347
30
0
11
-19.595478308738311
21
-6.5265338937561861
31
0
0
LINE
5
287
100
AcDbEntity
8
0
100
AcDbLine
10
-69.427956169679561
20
-18.682490262499812
30
0
11
-66.746220040151002
21
0.17780643006527547
31
0
6
DASHED
0
LINE
5
288
100
AcDbEntity
8
0
100
AcDbLine
10
-66.746220040151002
20
0.17780643006527547
30
0
11
-57.316071693868466
21
-1.1630616346990119
31
0
6
DASHED
0
LINE
5
289
100
AcDbEntity
8
0
100
AcDbLine
10
-12.847066091984232
20
-26.727698651085316
30
0
11
-69.427956169679561
21
-18.682490262499812
31
0
6
DASHED
0
LINE
5
290
100
AcDbEntity
8
0
100
AcDbLine
10
-57.316071693868466
20
-1.1630616346990119
30
0
11
-59.997807823396954
21
-20.02335832726407
31
0
6
DASHED
0
LINE
5
291
100
AcDbEntity
8
0
100
AcDbLine
10
69.296655075613387
20
19.78207692226831
30
0
11
12.71576514964563
21
11.736867466602483
31
0
6
DASHED
0
LINE
5
292
100
AcDbEntity
8
0
100
AcDbLine
10
11.374896907034726
20
21.167015787597094
30
0
11
67.955786833002421
21
29.21222524326279
31
0
6
DASHED
0
LINE
5
293
100
AcDbEntity
8
0
100
AcDbLine
10
38.324473627407635
20
34.619768836424562
30
0
11
41.006210112629503
21
15.759472194435396
31
0
6
DASHED
0
LINE
5
294
100
AcDbEntity
8
0
100
AcDbLine
10
19.464176985418426
20
31.938032351202633
30
0
11
38.324473627407635
21
34.619768836424562
31
0
6
DASHED
0
LINE
5
295
100
AcDbEntity
8
0
100
AcDbLine
10
19.464176985418426
20
31.938032351202633
30
0
11
22.145913470640359
21
13.077735709213467
31
0
6
DASHED
0
LINE
5
296
100
AcDbEntity
8
0
100
AcDbLine
10
10.034028664423818
20
30.597164108591713
30
0
11
66.614918590391483
21
38.642373564257277
31
0
6
DASHED
0
LINE
5
297
100
AcDbEntity
8
0
100
AcDbLine
10
57.184770269396893
20
37.30150532164631
30
0
11
59.866506754618797
21
18.441208679657343
31
0
6
DASHED
0
LINE
5
298
100
AcDbEntity
8
0
100
AcDbLine
10
66.614918590391483
20
38.642373564257277
30
0
11
69.296655075613387
21
19.78207692226831
31
0
6
DASHED
0
LINE
5
299
100
AcDbEntity
8
0
100
AcDbLine
10
66.614918590391483
20
38.642373564257277
30
0
11
57.184770269396893
21
37.30150532164631
31
0
0
LINE
5
300
100
AcDbEntity
8
0
100
AcDbLine
10
10.034028664423818
20
30.597164108591713
30
0
11
19.464176985418426
21
31.938032351202633
31
0
6
DASHED
0
LINE
5
301
100
AcDbEntity
8
0
100
AcDbLine
10
12.71576514964563
20
11.736867466602483
30
0
11
10.034028664423818
21
30.597164108591713
31
0
6
DASHED
0
LINE
5
302
100
AcDbEntity
8
0
100
AcDbLine
10
66.746218297752847
20
0.17781996830714353
30
0
11
69.427954782974908
21
-18.682476673681876
31
0
6
DASHED
0
LINE
5
303
100
AcDbEntity
8
0
100
AcDbLine
10
69.427954782974908
20
-18.682476673681876
30
0
11
12.847064857007243
21
-26.727686129348118
31
0
6
DASHED
0
LINE
5
304
100
AcDbEntity
8
0
100
AcDbLine
10
10.165328371785245
20
-7.8673894873589054
30
0
11
66.746218297752847
21
0.17781996830714353
31
0
6
DASHED
0
LINE
5
305
100
AcDbEntity
8
0
100
AcDbLine
10
38.455773334769042
20
-3.8447847595258153
30
0
11
41.137509819991067
21
-22.705081401514995
31
0
6
DASHED
0
LINE
5
306
100
AcDbEntity
8
0
100
AcDbLine
10
66.746218297752847
20
0.17781996830714353
30
0
11
57.316069976758286
21
-1.163048274303895
31
0
0
LINE
5
307
100
AcDbEntity
8
0
100
AcDbLine
10
19.595476692779869
20
-6.5265212447478955
30
0
11
22.277213178001986
21
-25.38681788673706
31
0
6
DASHED
0
LINE
5
308
100
AcDbEntity
8
0
100
AcDbLine
10
19.595476692779869
20
-6.5265212447478955
30
0
11
38.455773334769042
21
-3.8447847595258153
31
0
6
DASHED
0
LINE
5
309
100
AcDbEntity
8
0
100
AcDbLine
10
10.165328371785245
20
-7.8673894873589054
30
0
11
19.595476692779869
21
-6.5265212447478955
31
0
6
DASHED
0
LINE
5
310
100
AcDbEntity
8
0
100
AcDbLine
10
12.847064857007243
20
-26.727686129348118
30
0
11
10.165328371785245
21
-7.8673894873589054
31
0
6
DASHED
0
LINE
5
311
100
AcDbEntity
8
0
100
AcDbLine
10
57.316069976758286
20
-1.163048274303895
30
0
11
59.997806461980254
21
-20.023344916292928
31
0
6
DASHED
0
LINE
5
312
100
AcDbEntity
8
0
100
AcDbLine
10
11.506196614396236
20
-17.297537808353518
30
0
11
68.087086540363885
21
-9.2523283526873623
31
0
6
DASHED
0
LINE
5
313
100
AcDbEntity
8
0
100
AcDbLine
10
12.84704656179046
20
-7.4860774648127997
30
0
11
10.165310076568588
21
11.374219177176421
31
0
6
DASHED
0
LINE
5
314
100
AcDbEntity
8
0
100
AcDbLine
10
19.595458397563196
20
12.715087419787396
30
0
11
38.455755039552358
21
15.3968239050094
31
0
6
DASHED
0
LINE
5
315
100
AcDbEntity
8
0
100
AcDbLine
10
38.455755039552358
20
15.3968239050094
30
0
11
41.137491524774333
21
-3.4634727369797758
31
0
6
DASHED
0
LINE
5
316
100
AcDbEntity
8
0
100
AcDbLine
10
19.595458397563196
20
12.715087419787396
30
0
11
22.277194882785199
21
-6.1452092222017747
31
0
6
DASHED
0
LINE
5
317
100
AcDbEntity
8
0
100
AcDbLine
10
11.506178319179522
20
1.9440708561818121
30
0
11
68.087068245147222
21
9.9892803118477467
31
0
6
DASHED
0
LINE
5
318
100
AcDbEntity
8
0
100
AcDbLine
10
10.165310076568588
20
11.374219177176421
30
0
11
19.595458397563196
21
12.715087419787396
31
0
6
DASHED
0
LINE
5
319
100
AcDbEntity
8
0
100
AcDbLine
10
10.165310076568588
20
11.374219177176421
30
0
11
66.746200002536156
21
19.419428632842223
31
0
6
DASHED
0
LINE
5
320
100
AcDbEntity
8
0
100
AcDbLine
10
57.316051681541666
20
18.078560390231246
30
0
11
59.997788166763627
21
-0.78173625175775086
31
0
6
DASHED
0
LINE
5
321
100
AcDbEntity
8
0
100
AcDbLine
10
66.746200002536156
20
19.419428632842223
30
0
11
69.427936487758203
21
0.55913199085324994
31
0
6
DASHED
0
LINE
5
322
100
AcDbEntity
8
0
100
AcDbLine
10
66.746200002536156
20
19.419428632842223
30
0
11
57.316051681541666
21
18.078560390231246
31
0
0
LINE
5
323
100
AcDbEntity
8
0
100
AcDbLine
10
69.427936487758203
20
0.55913199085324994
30
0
11
12.84704656179046
21
-7.4860774648127997
31
0
6
DASHED
0
LINE
5
324
100
AcDbEntity
8
0
100
AcDbLine
10
39.662631428238008
20
-22.914792687170902
30
0
11
42.344367913460133
21
-41.775089329160053
31
0
6
DASHED
0
LINE
5
325
100
AcDbEntity
8
0
100
AcDbLine
10
70.634812876443931
20
-37.752484601326813
30
0
11
14.053922950476341
21
-45.797694056993279
31
0
6
DASHED
0
LINE
5
326
100
AcDbEntity
8
0
100
AcDbLine
10
20.802334786248856
20
-25.596529172393048
30
0
11
23.484071271470906
21
-44.456825814382206
31
0
6
DASHED
0
LINE
5
327
100
AcDbEntity
8
0
100
AcDbLine
10
67.953076391221828
20
-18.892187959337839
30
0
11
70.634812876443931
21
-37.752484601326813
31
0
6
DASHED
0
LINE
5
328
100
AcDbEntity
8
0
100
AcDbLine
10
67.953076391221828
20
-18.892187959337839
30
0
11
58.522928070227266
21
-20.233056201948902
31
0
0
LINE
5
329
100
AcDbEntity
8
0
100
AcDbLine
10
11.372186465254249
20
-26.937397415004089
30
0
11
20.802334786248856
21
-25.596529172393048
31
0
6
DASHED
0
LINE
5
330
100
AcDbEntity
8
0
100
AcDbLine
10
58.522928070227266
20
-20.233056201948902
30
0
11
61.204664555449511
21
-39.093352843937872
31
0
6
DASHED
0
LINE
5
331
100
AcDbEntity
8
0
100
AcDbLine
10
20.802334786248856
20
-25.596529172393048
30
0
11
39.662631428238008
21
-22.914792687170902
31
0
6
DASHED
0
LINE
5
332
100
AcDbEntity
8
0
100
AcDbLine
10
14.053922950476341
20
-45.797694056993279
30
0
11
11.372186465254249
21
-26.937397415004089
31
0
6
DASHED
0
LINE
5
333
100
AcDbEntity
8
0
100
AcDbLine
10
11.372186465254249
20
-26.937397415004089
30
0
11
67.953076391221828
21
-18.892187959337839
31
0
6
DASHED
0
LINE
5
334
100
AcDbEntity
8
0
100
AcDbLine
10
12.713054707865295
20
-36.367545735998689
30
0
11
69.293944633832893
21
-28.32233628033233
31
0
6
DASHED
0
LINE
5
335
100
AcDbEntity
8
0
100
AcDbLine
10
78.065369657539094
20
30.007583945902319
30
0
11
87.562477709655411
21
30.735981945919271
31
0
6
DASHED
0
LINE
5
336
100
AcDbEntity
8
0
100
AcDbLine
10
-65.586387373552114
20
45.061490732661213
30
0
11
-66.501415302365942
21
38.626220637217585
31
0
0
LINE
5
337
100
AcDbEntity
8
0
100
AcDbLine
10
-45.785551012104627
20
42.246019300169131
30
0
11
-46.700578922953675
21
35.810749331069403
31
0
0
LINE
5
338
100
AcDbEntity
8
0
100
AcDbLine
10
45.785037195284282
20
42.247669949194417
30
0
11
46.700305363215904
21
35.810710445795586
31
0
0
LINE
5
339
100
AcDbEntity
8
0
100
AcDbLine
10
65.585744033158704
20
45.064052153468808
30
0
11
66.501143258283008
21
38.626182038270201
31
0
0
LINE
5
340
100
AcDbEntity
8
0
100
AcDbLine
10
112.36480316822465
20
-25.33248141271946
30
0
11
112.36480316822465
21
-18.83248141271946
31
0
0
LINE
5
341
100
AcDbEntity
8
0
100
AcDbLine
10
-112.36480263186793
20
-25.332482700539529
30
0
11
-112.36480263186793
21
-18.832482700539529
31
0
0
ENDSEC
0
SECTION
2
OBJECTS
0
DICTIONARY
5
C
100
AcDbDictionary
3
ACAD_GROUP
350
D
3
ACAD_MLINESTYLE
350
17
0
DICTIONARY
5
D
100
AcDbDictionary
0
DICTIONARY
5
1A
330
C
100
AcDbDictionary
0
DICTIONARY
5
17
100
AcDbDictionary
0
ENDSEC
0
EOF
