M48
; DRILL file KiCad 10.0.3 date 2026-06-19T20:18:03
; FORMAT={-:-/ absolute / metric / decimal}
; #@! TF.CreationDate,2026-06-19T20:18:03+09:00
; #@! TF.GenerationSoftware,Kicad,Pcbnew,10.0.3
; #@! TF.FileFunction,NonPlated,1,2,NPTH
FMAT,2
METRIC
; #@! TA.AperFunction,NonPlated,NPTH,ComponentDrill
T1C1.800
; #@! TA.AperFunction,NonPlated,NPTH,ComponentDrill
T2C2.000
; #@! TA.AperFunction,NonPlated,NPTH,ComponentDrill
T3C3.000
; #@! TA.AperFunction,NonPlated,NPTH,ComponentDrill
T4C3.050
; #@! TA.AperFunction,NonPlated,NPTH,ComponentDrill
T5C4.000
%
G90
G05
T1
X118.785Y-134.044
X128.844Y-135.476
X171.156Y-135.476
X181.214Y-134.044
T2
X28.72Y-70.7
X28.72Y-89.75
X28.72Y-108.8
X38.88Y-70.7
X38.88Y-89.75
X38.88Y-108.8
X47.77Y-70.7
X47.77Y-89.75
X47.77Y-108.8
X57.93Y-70.7
X57.93Y-89.75
X57.93Y-108.8
X66.921Y-126.664
X68.331Y-88.364
X68.471Y-107.624
X68.571Y-69.184
X76.979Y-128.096
X78.389Y-89.796
X78.529Y-109.056
X78.629Y-70.616
X87.191Y-91.048
X87.331Y-110.308
X87.431Y-71.864
X88.141Y-129.684
X97.249Y-92.48
X97.389Y-111.74
X97.489Y-73.296
X98.199Y-131.116
X106.051Y-93.733
X106.191Y-112.994
X106.291Y-74.554
X116.109Y-95.164
X116.249Y-114.426
X116.349Y-75.986
X124.911Y-96.417
X125.051Y-115.674
X125.151Y-77.234
X134.969Y-97.848
X135.109Y-117.106
X135.209Y-78.666
X164.791Y-78.668
X164.891Y-117.108
X165.031Y-97.848
X174.849Y-77.237
X174.949Y-115.677
X175.089Y-96.417
X183.651Y-75.984
X183.751Y-114.424
X183.891Y-95.164
X193.709Y-74.553
X193.809Y-112.993
X193.949Y-93.733
X201.803Y-131.115
X202.511Y-73.3
X202.611Y-111.74
X202.751Y-92.48
X211.862Y-129.684
X212.569Y-71.868
X212.669Y-110.308
X212.809Y-91.048
X221.371Y-70.616
X221.471Y-109.056
X221.611Y-89.796
X223.021Y-128.096
X231.429Y-69.184
X231.529Y-107.624
X231.669Y-88.364
X233.079Y-126.664
X242.07Y-70.7
X242.07Y-89.75
X242.07Y-108.8
X252.23Y-70.7
X252.23Y-89.75
X252.23Y-108.8
X261.12Y-70.7
X261.12Y-89.75
X261.12Y-108.8
X271.28Y-70.7
X271.28Y-89.75
X271.28Y-108.8
T3
X29.99Y-68.16
X29.99Y-87.21
X29.99Y-106.26
X36.34Y-65.62
X36.34Y-84.67
X36.34Y-103.72
X49.04Y-68.16
X49.04Y-87.21
X49.04Y-106.26
X55.39Y-65.62
X55.39Y-84.67
X55.39Y-103.72
X68.536Y-124.329
X69.946Y-86.029
X70.086Y-105.289
X70.186Y-66.849
X75.18Y-122.709
X76.59Y-84.409
X76.73Y-103.669
X76.83Y-65.229
X88.806Y-88.713
X88.946Y-107.973
X89.046Y-69.529
X89.756Y-127.349
X95.45Y-87.093
X95.59Y-106.353
X95.69Y-67.909
X96.4Y-125.729
X107.666Y-91.397
X107.806Y-110.659
X107.906Y-72.219
X114.31Y-89.777
X114.45Y-109.039
X114.55Y-70.599
X120.401Y-131.709
X126.526Y-94.081
X126.666Y-113.339
X126.766Y-74.899
X127.045Y-130.089
X133.17Y-92.461
X133.31Y-111.719
X133.41Y-73.279
X165.69Y-75.975
X165.79Y-114.415
X165.93Y-95.155
X171.619Y-72.565
X171.719Y-111.005
X171.859Y-91.745
X172.055Y-132.782
X177.984Y-129.373
X184.55Y-73.291
X184.65Y-111.731
X184.79Y-92.471
X190.479Y-69.881
X190.579Y-108.321
X190.719Y-89.061
X202.703Y-128.422
X203.41Y-70.606
X203.51Y-109.046
X203.65Y-89.786
X208.631Y-125.012
X209.339Y-67.197
X209.439Y-105.637
X209.579Y-86.377
X222.27Y-67.922
X222.37Y-106.362
X222.51Y-87.102
X223.92Y-125.402
X228.199Y-64.513
X228.299Y-102.953
X228.439Y-83.693
X229.849Y-121.993
X243.34Y-68.16
X243.34Y-87.21
X243.34Y-106.26
X249.69Y-65.62
X249.69Y-84.67
X249.69Y-103.72
X262.39Y-68.16
X262.39Y-87.21
X262.39Y-106.26
X268.74Y-65.62
X268.74Y-84.67
X268.74Y-103.72
T4
X111.047Y-140.013
X134.61Y-143.367
X165.39Y-143.367
X188.953Y-140.013
T5
X33.8Y-70.7
X33.8Y-89.75
X33.8Y-108.8
X52.85Y-70.7
X52.85Y-89.75
X52.85Y-108.8
X71.95Y-127.38
X73.36Y-89.08
X73.5Y-108.34
X73.6Y-69.9
X92.22Y-91.764
X92.36Y-111.024
X92.46Y-72.58
X93.17Y-130.4
X111.08Y-94.448
X111.22Y-113.71
X111.32Y-75.27
X113.195Y-124.925
X123.815Y-134.76
X129.94Y-97.132
X130.08Y-116.39
X130.18Y-77.95
X136.757Y-128.279
X163.243Y-128.279
X169.82Y-77.953
X169.92Y-116.393
X170.06Y-97.133
X176.185Y-134.76
X186.805Y-124.925
X188.68Y-75.268
X188.78Y-113.708
X188.92Y-94.448
X206.833Y-130.4
X207.54Y-72.584
X207.64Y-111.024
X207.78Y-91.764
X226.4Y-69.9
X226.5Y-108.34
X226.64Y-89.08
X228.05Y-127.38
X247.15Y-70.7
X247.15Y-89.75
X247.15Y-108.8
X266.2Y-70.7
X266.2Y-89.75
X266.2Y-108.8
M30
