M48
; DRILL file KiCad 10.0.3 date 2026-06-19T20:18:03
; FORMAT={-:-/ absolute / metric / decimal}
; #@! TF.CreationDate,2026-06-19T20:18:03+09:00
; #@! TF.GenerationSoftware,Kicad,Pcbnew,10.0.3
; #@! TF.FileFunction,Plated,1,2,PTH
FMAT,2
METRIC
; #@! TA.AperFunction,Plated,PTH,ViaDrill
T1C0.300
; #@! TA.AperFunction,Plated,PTH,ComponentDrill
T2C0.813
; #@! TA.AperFunction,Plated,PTH,ComponentDrill
T3C1.300
%
G90
G05
T1
X25.85Y-75.57
X25.85Y-94.618
X26.12Y-113.65
X26.13Y-98.23
X27.16Y-71.82
X27.21Y-103.84
X27.25Y-80.23
X27.25Y-84.95
X27.27Y-90.98
X44.7Y-116.55
X44.71Y-94.57
X45.48Y-80.98
X45.49Y-70.23
X45.85Y-103.55
X45.88Y-89.74
X57.86Y-98.636
X57.91Y-94.62
X64.61Y-131.12
X64.65Y-112.04
X65.49Y-121.6
X65.55Y-107.05
X66.31Y-102.5
X66.4Y-88.32
X66.77Y-69.09
X67.17Y-82.42
X77.79Y-99.1
X78.4Y-94.76
X81.6Y-133.71
X83.91Y-117.809
X85.11Y-85.46
X85.2Y-71.37
X85.28Y-100.93
X85.28Y-110.24
X85.29Y-90.87
X85.55Y-124.33
X96.68Y-101.786
X97.24Y-97.4
X102.8Y-136.63
X103.93Y-88.47
X104.02Y-93.19
X104.1Y-74.21
X104.2Y-104.58
X105.39Y-120.899
X114.96Y-104.386
X115.41Y-99.93
X121.48Y-126.36
X122.83Y-91.11
X122.88Y-108.06
X122.91Y-76.49
X123.0Y-115.42
X123.03Y-95.8
X131.4Y-139.73
X133.87Y-124.945
X134.22Y-102.68
X135.13Y-107.26
X136.04Y-123.63
X138.12Y-88.163
X138.58Y-104.77
X139.1Y-81.35
X139.75Y-89.21
X139.79Y-120.768
X140.15Y-86.41
X140.779Y-138.049
X140.86Y-104.56
X142.19Y-108.9
X142.25Y-109.817
X142.42Y-110.82
X144.56Y-85.43
X145.08Y-87.705
X145.62Y-93.18
X150.0Y-103.88
X150.043Y-90.24
X150.07Y-81.44
X154.44Y-91.38
X155.13Y-89.02
X155.78Y-86.5
X156.27Y-109.39
X156.29Y-110.36
X156.44Y-108.57
X157.932Y-136.13
X158.86Y-104.6
X160.2Y-120.008
X160.94Y-103.26
X161.143Y-98.343
X161.3Y-91.57
X161.72Y-122.37
X162.24Y-84.49
X162.85Y-117.38
X162.9Y-111.87
X163.09Y-83.74
X164.01Y-82.06
X164.39Y-85.11
X165.97Y-84.88
X166.55Y-89.62
X168.53Y-130.94
X175.98Y-101.17
X176.47Y-105.044
X179.63Y-96.33
X180.83Y-86.596
X181.25Y-109.65
X181.32Y-90.17
X181.37Y-75.86
X181.65Y-122.781
X182.888Y-86.32
X183.85Y-138.48
X184.75Y-82.27
X185.46Y-86.94
X194.59Y-98.58
X195.09Y-102.446
X198.48Y-93.45
X199.08Y-112.52
X199.45Y-82.76
X200.11Y-106.84
X200.16Y-87.9
X200.54Y-73.46
X200.57Y-123.62
X201.96Y-82.4
X211.78Y-118.395
X213.58Y-95.84
X214.119Y-99.79
X214.47Y-134.17
X218.99Y-109.22
X219.25Y-101.29
X219.29Y-70.44
X219.31Y-89.51
X219.35Y-85.04
X220.63Y-123.83
X232.48Y-93.18
X233.075Y-97.03
X233.59Y-116.515
X234.28Y-113.62
X235.75Y-131.23
X237.12Y-132.49
X238.55Y-101.1
X238.59Y-113.65
X239.95Y-104.09
X239.99Y-84.99
X240.016Y-99.83
X240.11Y-70.54
X240.17Y-89.44
X251.99Y-101.25
X252.03Y-96.11
X252.5Y-113.64
X252.51Y-116.548
X253.473Y-98.33
X253.51Y-94.64
X258.052Y-103.9
X258.101Y-99.14
X258.2Y-89.7
X258.31Y-85.01
X258.45Y-71.02
X259.28Y-112.11
X259.36Y-114.98
X259.51Y-94.617
X270.88Y-113.65
X270.88Y-116.58
X271.25Y-94.6
X271.27Y-98.42
X274.5Y-77.07
X274.5Y-96.17
T2
X142.35Y-71.22
X142.35Y-73.76
X142.35Y-76.3
X142.35Y-78.84
X142.35Y-81.38
X142.35Y-83.92
X142.35Y-86.46
X142.35Y-89.0
X142.35Y-91.54
X142.35Y-94.08
X142.35Y-96.62
X142.35Y-99.16
X142.35Y-101.7
X157.57Y-71.22
X157.57Y-73.76
X157.57Y-76.3
X157.57Y-78.84
X157.57Y-81.38
X157.57Y-83.92
X157.57Y-86.46
X157.57Y-89.0
X157.57Y-91.54
X157.57Y-94.08
X157.57Y-96.62
X157.57Y-99.16
X157.57Y-101.7
X161.01Y-80.15
X161.01Y-82.69
T3
X146.77Y-78.79
X153.27Y-78.79
M30
