%TF.GenerationSoftware,KiCad,Pcbnew,10.0.3*%
%TF.CreationDate,2026-06-19T20:17:58+09:00*%
%TF.ProjectId,mami,6d616d69-2e6b-4696-9361-645f70636258,rev?*%
%TF.SameCoordinates,Original*%
%TF.FileFunction,Legend,Top*%
%TF.FilePolarity,Positive*%
%FSLAX46Y46*%
G04 Gerber Fmt 4.6, Leading zero omitted, Abs format (unit mm)*
G04 Created by KiCad (PCBNEW 10.0.3) date 2026-06-19 20:17:58*
%MOMM*%
%LPD*%
G01*
G04 APERTURE LIST*
%ADD10C,2.000000*%
%ADD11C,4.000000*%
%ADD12C,1.524000*%
G04 APERTURE END LIST*
D10*
%TO.C,SW15*%
X106290680Y-74554222D03*
D11*
X111320000Y-75270000D03*
D10*
X116349320Y-75985778D03*
%TD*%
%TO.C,SW41*%
X261120000Y-89750000D03*
D11*
X266200000Y-89750000D03*
D10*
X271280000Y-89750000D03*
%TD*%
%TO.C,SW39*%
X242070000Y-108800000D03*
D11*
X247150000Y-108800000D03*
D10*
X252230000Y-108800000D03*
%TD*%
%TO.C,SW22*%
X164790828Y-78668278D03*
D11*
X169820148Y-77952500D03*
D10*
X174849468Y-77236722D03*
%TD*%
%TO.C,SW36*%
X223020680Y-128095778D03*
D11*
X228050000Y-127380000D03*
D10*
X233079320Y-126664222D03*
%TD*%
%TO.C,SW12*%
X87190680Y-91048322D03*
D11*
X92220000Y-91764100D03*
D10*
X97249320Y-92479878D03*
%TD*%
%TO.C,SW33*%
X221370680Y-70615778D03*
D11*
X226400000Y-69900000D03*
D10*
X231429320Y-69184222D03*
%TD*%
%TO.C,SW29*%
X202510730Y-73299946D03*
D11*
X207540050Y-72584168D03*
D10*
X212569370Y-71868390D03*
%TD*%
%TO.C,SW17*%
X106190680Y-112994222D03*
D11*
X111220000Y-113710000D03*
D10*
X116249320Y-114425778D03*
%TD*%
%TO.C,SW13*%
X87330680Y-110308222D03*
D11*
X92360000Y-111024000D03*
D10*
X97389320Y-111739778D03*
%TD*%
%TO.C,SW23*%
X165030680Y-97848283D03*
D11*
X170060000Y-97132505D03*
D10*
X175089320Y-96416727D03*
%TD*%
%TO.C,SW6*%
X47770000Y-108800000D03*
D11*
X52850000Y-108800000D03*
D10*
X57930000Y-108800000D03*
%TD*%
%TO.C,SW20*%
X125050680Y-115674222D03*
D11*
X130080000Y-116390000D03*
D10*
X135109320Y-117105778D03*
%TD*%
%TO.C,SW32*%
X201803235Y-131115458D03*
D11*
X206832555Y-130399680D03*
D10*
X211861875Y-129683902D03*
%TD*%
%TO.C,SW7*%
X68570680Y-69184222D03*
D11*
X73600000Y-69900000D03*
D10*
X78629320Y-70615778D03*
%TD*%
%TO.C,SW24*%
X164890680Y-117108283D03*
D11*
X169920000Y-116392505D03*
D10*
X174949320Y-115676727D03*
%TD*%
%TO.C,SW40*%
X261120000Y-70700000D03*
D11*
X266200000Y-70700000D03*
D10*
X271280000Y-70700000D03*
%TD*%
%TO.C,SW4*%
X47770000Y-70700000D03*
D11*
X52850000Y-70700000D03*
D10*
X57930000Y-70700000D03*
%TD*%
%TO.C,SW38*%
X242070000Y-89750000D03*
D11*
X247150000Y-89750000D03*
D10*
X252230000Y-89750000D03*
%TD*%
%TO.C,SW34*%
X221610680Y-89795778D03*
D11*
X226640000Y-89080000D03*
D10*
X231669320Y-88364222D03*
%TD*%
%TO.C,SW11*%
X87430680Y-71864222D03*
D11*
X92460000Y-72580000D03*
D10*
X97489320Y-73295778D03*
%TD*%
%TO.C,SW5*%
X47770000Y-89750000D03*
D11*
X52850000Y-89750000D03*
D10*
X57930000Y-89750000D03*
%TD*%
%TO.C,SW1*%
X28720000Y-70700000D03*
D11*
X33800000Y-70700000D03*
D10*
X38880000Y-70700000D03*
%TD*%
%TO.C,SW3*%
X28720000Y-108800000D03*
D11*
X33800000Y-108800000D03*
D10*
X38880000Y-108800000D03*
%TD*%
%TO.C,SW31*%
X202610680Y-111739946D03*
D11*
X207640000Y-111024168D03*
D10*
X212669320Y-110308390D03*
%TD*%
%TO.C,SW9*%
X68470680Y-107624222D03*
D11*
X73500000Y-108340000D03*
D10*
X78529320Y-109055778D03*
%TD*%
%TO.C,SW26*%
X183650778Y-75984115D03*
D11*
X188680098Y-75268337D03*
D10*
X193709418Y-74552559D03*
%TD*%
%TO.C,SW16*%
X106050581Y-93732622D03*
D11*
X111079901Y-94448400D03*
D10*
X116109221Y-95164178D03*
%TD*%
%TO.C,SW18*%
X125150680Y-77234222D03*
D11*
X130180000Y-77950000D03*
D10*
X135209320Y-78665778D03*
%TD*%
D12*
%TO.C,J1*%
X161010000Y-82690000D03*
X161010000Y-80150000D03*
%TD*%
D10*
%TO.C,SW19*%
X124910680Y-96416722D03*
D11*
X129940000Y-97132500D03*
D10*
X134969320Y-97848278D03*
%TD*%
%TO.C,SW2*%
X28720000Y-89750000D03*
D11*
X33800000Y-89750000D03*
D10*
X38880000Y-89750000D03*
%TD*%
%TO.C,SW30*%
X202750680Y-92479878D03*
D11*
X207780000Y-91764100D03*
D10*
X212809320Y-91048322D03*
%TD*%
%TO.C,SW28*%
X183750778Y-114424115D03*
D11*
X188780098Y-113708337D03*
D10*
X193809418Y-112992559D03*
%TD*%
%TO.C,SW10*%
X66920680Y-126664222D03*
D11*
X71950000Y-127380000D03*
D10*
X76979320Y-128095778D03*
%TD*%
%TO.C,SW8*%
X68330680Y-88364222D03*
D11*
X73360000Y-89080000D03*
D10*
X78389320Y-89795778D03*
%TD*%
%TO.C,SW35*%
X221470680Y-109055778D03*
D11*
X226500000Y-108340000D03*
D10*
X231529320Y-107624222D03*
%TD*%
%TO.C,SW27*%
X183890778Y-95164115D03*
D11*
X188920098Y-94448337D03*
D10*
X193949418Y-93732559D03*
%TD*%
%TO.C,SW37*%
X242070000Y-70700000D03*
D11*
X247150000Y-70700000D03*
D10*
X252230000Y-70700000D03*
%TD*%
%TO.C,SW14*%
X88140680Y-129684222D03*
D11*
X93170000Y-130400000D03*
D10*
X98199320Y-131115778D03*
%TD*%
%TO.C,SW42*%
X261120000Y-108800000D03*
D11*
X266200000Y-108800000D03*
D10*
X271280000Y-108800000D03*
%TD*%
M02*
