%TF.GenerationSoftware,KiCad,Pcbnew,10.0.3*%
%TF.CreationDate,2026-06-19T20:17:58+09:00*%
%TF.ProjectId,mami,6d616d69-2e6b-4696-9361-645f70636258,rev?*%
%TF.SameCoordinates,Original*%
%TF.FileFunction,Soldermask,Top*%
%TF.FilePolarity,Negative*%
%FSLAX46Y46*%
G04 Gerber Fmt 4.6, Leading zero omitted, Abs format (unit mm)*
G04 Created by KiCad (PCBNEW 10.0.3) date 2026-06-19 20:17:58*
%MOMM*%
%LPD*%
G01*
G04 APERTURE LIST*
%ADD10C,2.000000*%
%ADD11C,3.000000*%
%ADD12C,4.000000*%
%ADD13C,3.050000*%
%ADD14C,1.800000*%
%ADD15C,1.524000*%
G04 APERTURE END LIST*
D10*
%TO.C,SW15*%
X106290680Y-74554222D03*
D11*
X107905899Y-72218506D03*
D12*
X111320000Y-75270000D03*
D11*
X114550438Y-70598569D03*
D10*
X116349320Y-75985778D03*
%TD*%
D12*
%TO.C,SW25*%
X163242828Y-128278930D03*
D13*
X165390163Y-143366890D03*
D14*
X171155816Y-135475778D03*
D11*
X172055257Y-132782174D03*
D12*
X176185136Y-134760000D03*
D11*
X177984018Y-129372791D03*
D14*
X181214456Y-134044222D03*
D12*
X186805391Y-124925480D03*
D13*
X188952726Y-140013441D03*
%TD*%
D10*
%TO.C,SW41*%
X261120000Y-89750000D03*
D11*
X262390000Y-87210000D03*
D12*
X266200000Y-89750000D03*
D11*
X268740000Y-84670000D03*
D10*
X271280000Y-89750000D03*
%TD*%
%TO.C,SW39*%
X242070000Y-108800000D03*
D11*
X243340000Y-106260000D03*
D12*
X247150000Y-108800000D03*
D11*
X249690000Y-103720000D03*
D10*
X252230000Y-108800000D03*
%TD*%
%TO.C,SW22*%
X164790828Y-78668278D03*
D11*
X165690269Y-75974674D03*
D12*
X169820148Y-77952500D03*
D11*
X171619030Y-72565291D03*
D10*
X174849468Y-77236722D03*
%TD*%
%TO.C,SW36*%
X223020680Y-128095778D03*
D11*
X223920121Y-125402174D03*
D12*
X228050000Y-127380000D03*
D11*
X229848882Y-121992791D03*
D10*
X233079320Y-126664222D03*
%TD*%
%TO.C,SW12*%
X87190680Y-91048322D03*
D11*
X88805899Y-88712606D03*
D12*
X92220000Y-91764100D03*
D11*
X95450438Y-87092669D03*
D10*
X97249320Y-92479878D03*
%TD*%
%TO.C,SW33*%
X221370680Y-70615778D03*
D11*
X222270121Y-67922174D03*
D12*
X226400000Y-69900000D03*
D11*
X228198882Y-64512791D03*
D10*
X231429320Y-69184222D03*
%TD*%
%TO.C,SW29*%
X202510730Y-73299946D03*
D11*
X203410171Y-70606342D03*
D12*
X207540050Y-72584168D03*
D11*
X209338932Y-67196959D03*
D10*
X212569370Y-71868390D03*
%TD*%
%TO.C,SW17*%
X106190680Y-112994222D03*
D11*
X107805899Y-110658506D03*
D12*
X111220000Y-113710000D03*
D11*
X114450438Y-109038569D03*
D10*
X116249320Y-114425778D03*
%TD*%
%TO.C,SW13*%
X87330680Y-110308222D03*
D11*
X88945899Y-107972506D03*
D12*
X92360000Y-111024000D03*
D11*
X95590438Y-106352569D03*
D10*
X97389320Y-111739778D03*
%TD*%
%TO.C,SW23*%
X165030680Y-97848283D03*
D11*
X165930121Y-95154679D03*
D12*
X170060000Y-97132505D03*
D11*
X171858882Y-91745296D03*
D10*
X175089320Y-96416727D03*
%TD*%
%TO.C,SW6*%
X47770000Y-108800000D03*
D11*
X49040000Y-106260000D03*
D12*
X52850000Y-108800000D03*
D11*
X55390000Y-103720000D03*
D10*
X57930000Y-108800000D03*
%TD*%
%TO.C,SW20*%
X125050680Y-115674222D03*
D11*
X126665899Y-113338506D03*
D12*
X130080000Y-116390000D03*
D11*
X133310438Y-111718569D03*
D10*
X135109320Y-117105778D03*
%TD*%
%TO.C,SW32*%
X201803235Y-131115458D03*
D11*
X202702676Y-128421854D03*
D12*
X206832555Y-130399680D03*
D11*
X208631437Y-125012471D03*
D10*
X211861875Y-129683902D03*
%TD*%
%TO.C,SW7*%
X68570680Y-69184222D03*
D11*
X70185899Y-66848506D03*
D12*
X73600000Y-69900000D03*
D11*
X76830438Y-65228569D03*
D10*
X78629320Y-70615778D03*
%TD*%
%TO.C,SW24*%
X164890680Y-117108283D03*
D11*
X165790121Y-114414679D03*
D12*
X169920000Y-116392505D03*
D11*
X171718882Y-111005296D03*
D10*
X174949320Y-115676727D03*
%TD*%
%TO.C,SW40*%
X261120000Y-70700000D03*
D11*
X262390000Y-68160000D03*
D12*
X266200000Y-70700000D03*
D11*
X268740000Y-65620000D03*
D10*
X271280000Y-70700000D03*
%TD*%
%TO.C,SW4*%
X47770000Y-70700000D03*
D11*
X49040000Y-68160000D03*
D12*
X52850000Y-70700000D03*
D11*
X55390000Y-65620000D03*
D10*
X57930000Y-70700000D03*
%TD*%
%TO.C,SW38*%
X242070000Y-89750000D03*
D11*
X243340000Y-87210000D03*
D12*
X247150000Y-89750000D03*
D11*
X249690000Y-84670000D03*
D10*
X252230000Y-89750000D03*
%TD*%
%TO.C,SW34*%
X221610680Y-89795778D03*
D11*
X222510121Y-87102174D03*
D12*
X226640000Y-89080000D03*
D11*
X228438882Y-83692791D03*
D10*
X231669320Y-88364222D03*
%TD*%
%TO.C,SW11*%
X87430680Y-71864222D03*
D11*
X89045899Y-69528506D03*
D12*
X92460000Y-72580000D03*
D11*
X95690438Y-67908569D03*
D10*
X97489320Y-73295778D03*
%TD*%
%TO.C,SW5*%
X47770000Y-89750000D03*
D11*
X49040000Y-87210000D03*
D12*
X52850000Y-89750000D03*
D11*
X55390000Y-84670000D03*
D10*
X57930000Y-89750000D03*
%TD*%
%TO.C,SW1*%
X28720000Y-70700000D03*
D11*
X29990000Y-68160000D03*
D12*
X33800000Y-70700000D03*
D11*
X36340000Y-65620000D03*
D10*
X38880000Y-70700000D03*
%TD*%
%TO.C,SW3*%
X28720000Y-108800000D03*
D11*
X29990000Y-106260000D03*
D12*
X33800000Y-108800000D03*
D11*
X36340000Y-103720000D03*
D10*
X38880000Y-108800000D03*
%TD*%
D12*
%TO.C,SW21*%
X113194545Y-124925480D03*
D13*
X111047210Y-140013441D03*
D14*
X118785480Y-134044222D03*
D11*
X120400699Y-131708506D03*
D12*
X123814800Y-134760000D03*
D11*
X127045238Y-130088569D03*
D14*
X128844120Y-135475778D03*
D12*
X136757108Y-128278930D03*
D13*
X134609773Y-143366890D03*
%TD*%
D10*
%TO.C,SW31*%
X202610680Y-111739946D03*
D11*
X203510121Y-109046342D03*
D12*
X207640000Y-111024168D03*
D11*
X209438882Y-105636959D03*
D10*
X212669320Y-110308390D03*
%TD*%
%TO.C,SW9*%
X68470680Y-107624222D03*
D11*
X70085899Y-105288506D03*
D12*
X73500000Y-108340000D03*
D11*
X76730438Y-103668569D03*
D10*
X78529320Y-109055778D03*
%TD*%
%TO.C,SW26*%
X183650778Y-75984115D03*
D11*
X184550219Y-73290511D03*
D12*
X188680098Y-75268337D03*
D11*
X190478980Y-69881128D03*
D10*
X193709418Y-74552559D03*
%TD*%
%TO.C,SW16*%
X106050581Y-93732622D03*
D11*
X107665800Y-91396906D03*
D12*
X111079901Y-94448400D03*
D11*
X114310339Y-89776969D03*
D10*
X116109221Y-95164178D03*
%TD*%
%TO.C,SW18*%
X125150680Y-77234222D03*
D11*
X126765899Y-74898506D03*
D12*
X130180000Y-77950000D03*
D11*
X133410438Y-73278569D03*
D10*
X135209320Y-78665778D03*
%TD*%
D15*
%TO.C,J1*%
X161010000Y-82690000D03*
X161010000Y-80150000D03*
%TD*%
D10*
%TO.C,SW19*%
X124910680Y-96416722D03*
D11*
X126525899Y-94081006D03*
D12*
X129940000Y-97132500D03*
D11*
X133170438Y-92461069D03*
D10*
X134969320Y-97848278D03*
%TD*%
%TO.C,SW2*%
X28720000Y-89750000D03*
D11*
X29990000Y-87210000D03*
D12*
X33800000Y-89750000D03*
D11*
X36340000Y-84670000D03*
D10*
X38880000Y-89750000D03*
%TD*%
%TO.C,SW30*%
X202750680Y-92479878D03*
D11*
X203650121Y-89786274D03*
D12*
X207780000Y-91764100D03*
D11*
X209578882Y-86376891D03*
D10*
X212809320Y-91048322D03*
%TD*%
%TO.C,SW28*%
X183750778Y-114424115D03*
D11*
X184650219Y-111730511D03*
D12*
X188780098Y-113708337D03*
D11*
X190578980Y-108321128D03*
D10*
X193809418Y-112992559D03*
%TD*%
%TO.C,SW10*%
X66920680Y-126664222D03*
D11*
X68535899Y-124328506D03*
D12*
X71950000Y-127380000D03*
D11*
X75180438Y-122708569D03*
D10*
X76979320Y-128095778D03*
%TD*%
%TO.C,SW8*%
X68330680Y-88364222D03*
D11*
X69945899Y-86028506D03*
D12*
X73360000Y-89080000D03*
D11*
X76590438Y-84408569D03*
D10*
X78389320Y-89795778D03*
%TD*%
%TO.C,SW35*%
X221470680Y-109055778D03*
D11*
X222370121Y-106362174D03*
D12*
X226500000Y-108340000D03*
D11*
X228298882Y-102952791D03*
D10*
X231529320Y-107624222D03*
%TD*%
%TO.C,SW27*%
X183890778Y-95164115D03*
D11*
X184790219Y-92470511D03*
D12*
X188920098Y-94448337D03*
D11*
X190718980Y-89061128D03*
D10*
X193949418Y-93732559D03*
%TD*%
%TO.C,SW37*%
X242070000Y-70700000D03*
D11*
X243340000Y-68160000D03*
D12*
X247150000Y-70700000D03*
D11*
X249690000Y-65620000D03*
D10*
X252230000Y-70700000D03*
%TD*%
%TO.C,SW14*%
X88140680Y-129684222D03*
D11*
X89755899Y-127348506D03*
D12*
X93170000Y-130400000D03*
D11*
X96400438Y-125728569D03*
D10*
X98199320Y-131115778D03*
%TD*%
%TO.C,SW42*%
X261120000Y-108800000D03*
D11*
X262390000Y-106260000D03*
D12*
X266200000Y-108800000D03*
D11*
X268740000Y-103720000D03*
D10*
X271280000Y-108800000D03*
%TD*%
%TO.C,SW43*%
X153270000Y-78790000D03*
X146770000Y-78790000D03*
%TD*%
D15*
%TO.C,U1*%
X157570000Y-73760000D03*
X157570000Y-76300000D03*
X157570000Y-78840000D03*
X157570000Y-81380000D03*
X157570000Y-83920000D03*
X157570000Y-86460000D03*
X157570000Y-89000000D03*
X157570000Y-91540000D03*
X157570000Y-94080000D03*
X157570000Y-96620000D03*
X157570000Y-99160000D03*
X157570000Y-101700000D03*
X142350000Y-101700000D03*
X142350000Y-99160000D03*
X142350000Y-96620000D03*
X142350000Y-94080000D03*
X142350000Y-91540000D03*
X142350000Y-89000000D03*
X142350000Y-86460000D03*
X142350000Y-83920000D03*
X142350000Y-81380000D03*
X142350000Y-78840000D03*
X142350000Y-76300000D03*
X142350000Y-73760000D03*
X142350000Y-71220000D03*
X157570000Y-71220000D03*
%TD*%
M02*
