G04 #@! TF.GenerationSoftware,KiCad,Pcbnew,10.0.3*
G04 #@! TF.CreationDate,2026-07-21T08:44:27+09:00*
G04 #@! TF.ProjectId,mami,6d616d69-2e6b-4696-9361-645f70636258,rev?*
G04 #@! TF.SameCoordinates,Original*
G04 #@! TF.FileFunction,Soldermask,Top*
G04 #@! TF.FilePolarity,Negative*
%FSLAX46Y46*%
G04 Gerber Fmt 4.6, Leading zero omitted, Abs format (unit mm)*
G04 Created by KiCad (PCBNEW 10.0.3) date 2026-07-21 08:44:27*
%MOMM*%
%LPD*%
G01*
G04 APERTURE LIST*
%ADD10C,2.000000*%
%ADD11C,3.000000*%
%ADD12C,4.000000*%
%ADD13C,3.050000*%
%ADD14C,1.800000*%
%ADD15C,1.524000*%
G04 APERTURE END LIST*
D10*
X101820680Y-71454222D03*
D11*
X103435899Y-69118506D03*
D12*
X106850000Y-72170000D03*
D11*
X110080438Y-67498569D03*
D10*
X111879320Y-72885778D03*
X258300000Y-87600000D03*
D11*
X259570000Y-85060000D03*
D12*
X263380000Y-87600000D03*
D11*
X265920000Y-82520000D03*
D10*
X268460000Y-87600000D03*
X239240000Y-106630000D03*
D11*
X240510000Y-104090000D03*
D12*
X244320000Y-106630000D03*
D11*
X246860000Y-101550000D03*
D10*
X249400000Y-106630000D03*
X162290680Y-75525778D03*
D11*
X163190121Y-72832174D03*
D12*
X167320000Y-74810000D03*
D11*
X169118882Y-69422791D03*
D10*
X172349320Y-74094222D03*
X220838425Y-125209627D03*
D11*
X221909816Y-122579680D03*
D12*
X225903453Y-124819894D03*
D11*
X228046234Y-119560000D03*
D10*
X230968481Y-124430161D03*
X82820680Y-87974222D03*
D11*
X84435899Y-85638506D03*
D12*
X87850000Y-88690000D03*
D11*
X91080438Y-84018569D03*
D10*
X92879320Y-89405778D03*
X219514972Y-67719733D03*
D11*
X220586363Y-65089786D03*
D12*
X224580000Y-67330000D03*
D11*
X226722781Y-62070106D03*
D10*
X229645028Y-66940267D03*
X101690680Y-109900222D03*
D11*
X103305899Y-107564506D03*
D12*
X106720000Y-110616000D03*
D11*
X109950438Y-105944569D03*
D10*
X111749320Y-111331778D03*
X82830680Y-107214222D03*
D11*
X84445899Y-104878506D03*
D12*
X87860000Y-107930000D03*
D11*
X91090438Y-103258569D03*
D10*
X92889320Y-108645778D03*
X162420680Y-94775778D03*
D11*
X163320121Y-92082174D03*
D12*
X167450000Y-94060000D03*
D11*
X169248882Y-88672791D03*
D10*
X172479320Y-93344222D03*
X43680000Y-106670000D03*
D11*
X44950000Y-104130000D03*
D12*
X48760000Y-106670000D03*
D11*
X51300000Y-101590000D03*
D10*
X53840000Y-106670000D03*
X120550680Y-112580222D03*
D11*
X122165899Y-110244506D03*
D12*
X125580000Y-113296000D03*
D11*
X128810438Y-108624569D03*
D10*
X130609320Y-114011778D03*
X63444972Y-66960267D03*
D11*
X64906095Y-64525187D03*
D12*
X68510000Y-67350000D03*
D11*
X71432247Y-62479838D03*
D10*
X73575028Y-67739733D03*
X162420680Y-114004115D03*
D11*
X163320121Y-111310511D03*
D12*
X167450000Y-113288337D03*
D11*
X169248882Y-107901128D03*
D10*
X172479320Y-112572559D03*
X258290000Y-68570000D03*
D11*
X259560000Y-66030000D03*
D12*
X263370000Y-68570000D03*
D11*
X265910000Y-63490000D03*
D10*
X268450000Y-68570000D03*
X43670000Y-68570000D03*
D11*
X44940000Y-66030000D03*
D12*
X48750000Y-68570000D03*
D11*
X51290000Y-63490000D03*
D10*
X53830000Y-68570000D03*
X239250000Y-87600000D03*
D11*
X240520000Y-85060000D03*
D12*
X244330000Y-87600000D03*
D11*
X246870000Y-82520000D03*
D10*
X249410000Y-87600000D03*
X219634972Y-86949733D03*
D11*
X220706363Y-84319786D03*
D12*
X224700000Y-86560000D03*
D11*
X226842781Y-81300106D03*
D10*
X229765028Y-86170267D03*
X82960680Y-68764222D03*
D11*
X84575899Y-66428506D03*
D12*
X87990000Y-69480000D03*
D11*
X91220438Y-64808569D03*
D10*
X93019320Y-70195778D03*
X43690000Y-87630000D03*
D11*
X44960000Y-85090000D03*
D12*
X48770000Y-87630000D03*
D11*
X51310000Y-82550000D03*
D10*
X53850000Y-87630000D03*
X24620000Y-68570000D03*
D11*
X25890000Y-66030000D03*
D12*
X29700000Y-68570000D03*
D11*
X32240000Y-63490000D03*
D10*
X34780000Y-68570000D03*
X24630000Y-106670000D03*
D11*
X25900000Y-104130000D03*
D12*
X29710000Y-106670000D03*
D11*
X32250000Y-101590000D03*
D10*
X34790000Y-106670000D03*
X200140680Y-108635778D03*
D11*
X201040121Y-105942174D03*
D12*
X205170000Y-107920000D03*
D11*
X206968882Y-102532791D03*
D10*
X210199320Y-107204222D03*
X63314972Y-105440267D03*
D11*
X64776095Y-103005187D03*
D12*
X68380000Y-105830000D03*
D11*
X71302247Y-100959838D03*
D10*
X73445028Y-106219733D03*
X181150630Y-72841615D03*
D11*
X182050071Y-70148011D03*
D12*
X186179950Y-72125837D03*
D11*
X187978832Y-66738628D03*
D10*
X191209270Y-71410059D03*
X101680581Y-90658522D03*
D11*
X103295800Y-88322806D03*
D12*
X106709901Y-91374300D03*
D11*
X109940339Y-86702869D03*
D10*
X111739221Y-92090078D03*
X120680680Y-74134222D03*
D11*
X122295899Y-71798506D03*
D12*
X125710000Y-74850000D03*
D11*
X128940438Y-70178569D03*
D10*
X130739320Y-75565778D03*
X120540680Y-93342622D03*
D11*
X122155899Y-91006906D03*
D12*
X125570000Y-94058400D03*
D11*
X128800438Y-89386969D03*
D10*
X130599320Y-94774178D03*
X24640000Y-87630000D03*
D11*
X25910000Y-85090000D03*
D12*
X29720000Y-87630000D03*
D11*
X32260000Y-82550000D03*
D10*
X34800000Y-87630000D03*
X200140680Y-89395778D03*
D11*
X201040121Y-86702174D03*
D12*
X205170000Y-88680000D03*
D11*
X206968882Y-83292791D03*
D10*
X210199320Y-87964222D03*
X181280778Y-111319947D03*
D11*
X182180219Y-108626343D03*
D12*
X186310098Y-110604169D03*
D11*
X188108980Y-105216960D03*
D10*
X191339418Y-109888391D03*
X62044972Y-124440267D03*
D11*
X63506095Y-122005187D03*
D12*
X67110000Y-124830000D03*
D11*
X70032247Y-119959838D03*
D10*
X72175028Y-125219733D03*
X63314972Y-86210267D03*
D11*
X64776095Y-83775187D03*
D12*
X68380000Y-86600000D03*
D11*
X71302247Y-81729838D03*
D10*
X73445028Y-86989733D03*
X219668425Y-106209182D03*
D11*
X220739816Y-103579235D03*
D12*
X224733453Y-105819449D03*
D11*
X226876234Y-100559555D03*
D10*
X229798481Y-105429716D03*
X181280680Y-92075778D03*
D11*
X182180121Y-89382174D03*
D12*
X186310000Y-91360000D03*
D11*
X188108882Y-85972791D03*
D10*
X191339320Y-90644222D03*
X239240000Y-68570000D03*
D11*
X240510000Y-66030000D03*
D12*
X244320000Y-68570000D03*
D11*
X246860000Y-63490000D03*
D10*
X249400000Y-68570000D03*
X258290000Y-106630000D03*
D11*
X259560000Y-104090000D03*
D12*
X263370000Y-106630000D03*
D11*
X265910000Y-101550000D03*
D10*
X268450000Y-106630000D03*
D12*
X160427692Y-125198930D03*
D13*
X162575027Y-140286890D03*
D14*
X168340680Y-132395778D03*
D11*
X169240121Y-129702174D03*
D12*
X173370000Y-131680000D03*
D11*
X175168882Y-126292791D03*
D14*
X178399320Y-130964222D03*
D12*
X183990255Y-121845480D03*
D13*
X186137590Y-136933441D03*
D10*
X199000680Y-128025778D03*
D11*
X199900121Y-125332174D03*
D12*
X204030000Y-127310000D03*
D11*
X205828882Y-121922791D03*
D10*
X209059320Y-126594222D03*
D12*
X109029745Y-121845480D03*
D13*
X106882410Y-136933441D03*
D14*
X114620680Y-130964222D03*
D11*
X116235899Y-128628506D03*
D12*
X119650000Y-131680000D03*
D11*
X122880438Y-127008569D03*
D14*
X124679320Y-132395778D03*
D12*
X132592308Y-125198930D03*
D13*
X130444973Y-140286890D03*
D15*
X156650000Y-81334000D03*
X156650000Y-78794000D03*
D10*
X83980680Y-126584222D03*
D11*
X85595899Y-124248506D03*
D12*
X89010000Y-127300000D03*
D11*
X92240438Y-122628569D03*
D10*
X94039320Y-128015778D03*
X149740000Y-76390000D03*
X143240000Y-76390000D03*
D15*
X154040000Y-70740000D03*
X154040000Y-73280000D03*
X154040000Y-75820000D03*
X154040000Y-78360000D03*
X154040000Y-80900000D03*
X154040000Y-83440000D03*
X154040000Y-85980000D03*
X154040000Y-88520000D03*
X154040000Y-91060000D03*
X154040000Y-93600000D03*
X154040000Y-96140000D03*
X154040000Y-98680000D03*
X138820000Y-98680000D03*
X138820000Y-96140000D03*
X138820000Y-93600000D03*
X138820000Y-91060000D03*
X138820000Y-88520000D03*
X138820000Y-85980000D03*
X138820000Y-83440000D03*
X138820000Y-80900000D03*
X138820000Y-78360000D03*
X138820000Y-75820000D03*
X138820000Y-73280000D03*
X138820000Y-70740000D03*
X138820000Y-68200000D03*
X154040000Y-68200000D03*
D10*
X200010582Y-70157446D03*
D11*
X200910023Y-67463842D03*
D12*
X205039902Y-69441668D03*
D11*
X206838784Y-64054459D03*
D10*
X210069222Y-68725890D03*
M02*
