%TF.GenerationSoftware,KiCad,Pcbnew,10.0.3*%
%TF.CreationDate,2026-07-21T08:44:18+09:00*%
%TF.ProjectId,mami,6d616d69-2e6b-4696-9361-645f70636258,rev?*%
%TF.SameCoordinates,Original*%
%TF.FileFunction,Drillmap*%
%TF.FilePolarity,Positive*%
%FSLAX45Y45*%
G04 Gerber Fmt 4.5, Leading zero omitted, Abs format (unit mm)*
G04 Created by KiCad (PCBNEW 10.0.3) date 2026-07-21 08:44:18*
%MOMM*%
%LPD*%
G01*
G04 APERTURE LIST*
%ADD10C,0.100000*%
%ADD11C,0.050000*%
%ADD12C,0.120000*%
%ADD13C,0.200000*%
%ADD14C,0.130000*%
G04 APERTURE END LIST*
D10*
X2062303Y-5673575D02*
G75*
G02*
X2136361Y-5599517I74058J0D01*
G01*
X2062303Y-11515174D02*
X2062303Y-5673575D01*
X2136361Y-5599516D02*
X5431215Y-5599516D01*
X2162303Y-11615174D02*
G75*
G02*
X2062296Y-11515174I-3J100004D01*
G01*
X2162303Y-11615174D02*
X5589017Y-11615174D01*
X5431215Y-5599516D02*
G75*
G02*
X5530068Y-5684364I5J-100004D01*
G01*
D11*
X5507690Y-5502550D02*
X5507690Y-5502550D01*
D10*
X5589017Y-11615174D02*
G75*
G02*
X5689016Y-11715174I3J-99996D01*
G01*
X5689017Y-13265344D02*
X5689017Y-11715174D01*
X5781174Y-13365036D02*
G75*
G02*
X5689016Y-13265344I7846J99696D01*
G01*
X5984750Y-5684365D02*
G75*
G02*
X5530061Y-5684365I-227345J34849D01*
G01*
X5984750Y-5684365D02*
G75*
G02*
X6083596Y-5599515I98850J-15155D01*
G01*
X6083596Y-5599516D02*
X6103869Y-5599516D01*
X6103869Y-5599516D02*
X13647988Y-6672211D01*
D11*
X6318690Y-5506550D02*
X6318690Y-5506550D01*
D10*
X7587909Y-13507176D02*
X5781174Y-13365036D01*
X13647988Y-6672211D02*
X15654794Y-6672211D01*
X13717506Y-14378740D02*
X7587909Y-13507176D01*
D11*
X14247000Y-10198000D02*
X15047000Y-10198000D01*
X15047000Y-12398000D01*
X14247000Y-12398000D01*
X14247000Y-10198000D01*
D10*
X14325201Y-14378740D02*
X13717506Y-14378740D01*
X14424046Y-14293892D02*
G75*
G02*
X14325201Y-14378741I-98846J15152D01*
G01*
X14424046Y-14293892D02*
G75*
G02*
X14878735Y-14293892I227345J-34848D01*
G01*
X14977581Y-14378740D02*
G75*
G02*
X14878734Y-14293892I-1J100000D01*
G01*
X15585276Y-14378740D02*
X14977581Y-14378740D01*
X15654794Y-6672211D02*
X23198913Y-5599516D01*
X21714872Y-13507176D02*
X15585276Y-14378740D01*
X23198913Y-5599516D02*
X23216694Y-5599517D01*
X23216694Y-5599517D02*
G75*
G02*
X23315539Y-5684368I-4J-100003D01*
G01*
X23521631Y-13365011D02*
X21714872Y-13507176D01*
X23613787Y-11715174D02*
X23613787Y-13265319D01*
X23613787Y-11715174D02*
G75*
G02*
X23713787Y-11615167I100003J4D01*
G01*
X23613787Y-13265319D02*
G75*
G02*
X23521631Y-13365008I-100007J9D01*
G01*
X23770227Y-5684380D02*
G75*
G02*
X23315531Y-5684369I-227347J34851D01*
G01*
X23770227Y-5684380D02*
G75*
G02*
X23869075Y-5599541I98843J-15160D01*
G01*
X23869075Y-5599535D02*
X27140482Y-5599624D01*
X27140479Y-11615174D02*
X23713787Y-11615174D01*
X27140482Y-5599624D02*
G75*
G02*
X27240476Y-5699624I-2J-99996D01*
G01*
X27240479Y-5699624D02*
X27240479Y-11515174D01*
X27240479Y-11515174D02*
G75*
G02*
X27140479Y-11615179I-99999J-6D01*
G01*
D12*
X4702000Y-9163000D02*
X5052000Y-9163000D01*
X4702000Y-9483000D02*
X4702000Y-9163000D01*
X5052000Y-9163000D02*
X5052000Y-9483000D01*
X5052000Y-9483000D02*
X4702000Y-9483000D01*
X2797000Y-9163000D02*
X3147000Y-9163000D01*
X2797000Y-9483000D02*
X2797000Y-9163000D01*
X3147000Y-9163000D02*
X3147000Y-9483000D01*
X3147000Y-9483000D02*
X2797000Y-9483000D01*
X10396287Y-9825589D02*
X10441376Y-9508782D01*
X10441376Y-9508782D02*
X10787884Y-9558097D01*
X10742795Y-9874905D02*
X10396287Y-9825589D01*
X10787884Y-9558097D02*
X10742795Y-9874905D01*
X12283297Y-12017759D02*
X12328385Y-11700952D01*
X12328385Y-11700952D02*
X12674894Y-11750267D01*
X12629805Y-12067075D02*
X12283297Y-12017759D01*
X12674894Y-11750267D02*
X12629805Y-12067075D01*
X8511297Y-11481159D02*
X8556385Y-11164352D01*
X8556385Y-11164352D02*
X8902894Y-11213667D01*
X8857805Y-11530475D02*
X8511297Y-11481159D01*
X8902894Y-11213667D02*
X8857805Y-11530475D01*
X24257000Y-7257000D02*
X24607000Y-7257000D01*
X24257000Y-7577000D02*
X24257000Y-7257000D01*
X24607000Y-7257000D02*
X24607000Y-7577000D01*
X24607000Y-7577000D02*
X24257000Y-7577000D01*
X16615106Y-7901667D02*
X16961615Y-7852352D01*
X16660195Y-8218475D02*
X16615106Y-7901667D01*
X16961615Y-7852352D02*
X17006703Y-8169159D01*
X17006703Y-8169159D02*
X16660195Y-8218475D01*
X18504187Y-7633251D02*
X18850695Y-7583935D01*
X18549275Y-7950058D02*
X18504187Y-7633251D01*
X18850695Y-7583935D02*
X18895784Y-7900743D01*
X18895784Y-7900743D02*
X18549275Y-7950058D01*
X11690297Y-13856159D02*
X11735385Y-13539352D01*
X11735385Y-13539352D02*
X12081894Y-13588667D01*
X12036805Y-13905475D02*
X11690297Y-13856159D01*
X12081894Y-13588667D02*
X12036805Y-13905475D01*
X20400106Y-11212667D02*
X20746615Y-11163352D01*
X20445195Y-11529475D02*
X20400106Y-11212667D01*
X20746615Y-11163352D02*
X20791703Y-11480159D01*
X20791703Y-11480159D02*
X20445195Y-11529475D01*
X10410297Y-7905159D02*
X10455385Y-7588352D01*
X10455385Y-7588352D02*
X10801894Y-7637667D01*
X10756805Y-7954475D02*
X10410297Y-7905159D01*
X10801894Y-7637667D02*
X10756805Y-7954475D01*
X16628106Y-11749501D02*
X16974615Y-11700185D01*
X16673195Y-12066308D02*
X16628106Y-11749501D01*
X16974615Y-11700185D02*
X17019703Y-12016993D01*
X17019703Y-12016993D02*
X16673195Y-12066308D01*
X17220106Y-13588667D02*
X17566615Y-13539352D01*
X17265195Y-13905475D02*
X17220106Y-13588667D01*
X17566615Y-13539352D02*
X17611703Y-13856159D01*
X17611703Y-13856159D02*
X17265195Y-13905475D01*
X8626297Y-13418159D02*
X8671385Y-13101352D01*
X8671385Y-13101352D02*
X9017894Y-13150667D01*
X8972805Y-13467475D02*
X8626297Y-13418159D01*
X9017894Y-13150667D02*
X8972805Y-13467475D01*
X24257000Y-11063000D02*
X24607000Y-11063000D01*
X24257000Y-11383000D02*
X24257000Y-11063000D01*
X24607000Y-11063000D02*
X24607000Y-11383000D01*
X24607000Y-11383000D02*
X24257000Y-11383000D01*
X12296297Y-8173159D02*
X12341385Y-7856352D01*
X12341385Y-7856352D02*
X12687894Y-7905667D01*
X12642805Y-8222475D02*
X12296297Y-8173159D01*
X12687894Y-7905667D02*
X12642805Y-8222475D01*
X4701000Y-11067000D02*
X5051000Y-11067000D01*
X4701000Y-11387000D02*
X4701000Y-11067000D01*
X5051000Y-11067000D02*
X5051000Y-11387000D01*
X5051000Y-11387000D02*
X4701000Y-11387000D01*
X16628106Y-9826667D02*
X16974615Y-9777352D01*
X16673195Y-10143475D02*
X16628106Y-9826667D01*
X16974615Y-9777352D02*
X17019703Y-10094159D01*
X17019703Y-10094159D02*
X16673195Y-10143475D01*
X20401202Y-9286844D02*
X20747710Y-9237529D01*
X20446290Y-9603652D02*
X20401202Y-9286844D01*
X20747710Y-9237529D02*
X20792798Y-9554336D01*
X20792798Y-9554336D02*
X20446290Y-9603652D01*
X26162000Y-11063000D02*
X26512000Y-11063000D01*
X26162000Y-11383000D02*
X26162000Y-11063000D01*
X26512000Y-11063000D02*
X26512000Y-11383000D01*
X26512000Y-11383000D02*
X26162000Y-11383000D01*
X4700000Y-7257000D02*
X5050000Y-7257000D01*
X4700000Y-7577000D02*
X4700000Y-7257000D01*
X5050000Y-7257000D02*
X5050000Y-7577000D01*
X5050000Y-7577000D02*
X4700000Y-7577000D01*
X26162000Y-7257000D02*
X26512000Y-7257000D01*
X26162000Y-7577000D02*
X26162000Y-7257000D01*
X26512000Y-7257000D02*
X26512000Y-7577000D01*
X26512000Y-7577000D02*
X26162000Y-7577000D01*
X6484241Y-13190103D02*
X6508791Y-12871046D01*
X6508791Y-12871046D02*
X6857759Y-12897897D01*
X6833209Y-13216954D02*
X6484241Y-13190103D01*
X6857759Y-12897897D02*
X6833209Y-13216954D01*
X26163000Y-9160000D02*
X26513000Y-9160000D01*
X26163000Y-9480000D02*
X26163000Y-9160000D01*
X26513000Y-9160000D02*
X26513000Y-9480000D01*
X26513000Y-9480000D02*
X26163000Y-9480000D01*
X6606706Y-9365212D02*
X6631256Y-9046155D01*
X6631256Y-9046155D02*
X6980224Y-9073007D01*
X6955674Y-9392064D02*
X6606706Y-9365212D01*
X6980224Y-9073007D02*
X6955674Y-9392064D01*
X22323241Y-9068897D02*
X22672209Y-9042046D01*
X22347791Y-9387954D02*
X22323241Y-9068897D01*
X22672209Y-9042046D02*
X22696759Y-9361103D01*
X22696759Y-9361103D02*
X22347791Y-9387954D01*
X24258000Y-9160000D02*
X24608000Y-9160000D01*
X24258000Y-9480000D02*
X24258000Y-9160000D01*
X24608000Y-9160000D02*
X24608000Y-9480000D01*
X24608000Y-9480000D02*
X24258000Y-9480000D01*
X20286106Y-13151667D02*
X20632615Y-13102352D01*
X20331195Y-13468475D02*
X20286106Y-13151667D01*
X20632615Y-13102352D02*
X20677703Y-13419159D01*
X20677703Y-13419159D02*
X20331195Y-13468475D01*
X6611268Y-11293551D02*
X6635818Y-10974494D01*
X6635818Y-10974494D02*
X6984786Y-11001346D01*
X6960236Y-11320403D02*
X6611268Y-11293551D01*
X6984786Y-11001346D02*
X6960236Y-11320403D01*
X22327776Y-10995007D02*
X22676744Y-10968155D01*
X22352326Y-11314064D02*
X22327776Y-10995007D01*
X22676744Y-10968155D02*
X22701294Y-11287212D01*
X22701294Y-11287212D02*
X22352326Y-11314064D01*
X10397297Y-11749759D02*
X10442385Y-11432952D01*
X10442385Y-11432952D02*
X10788894Y-11482267D01*
X10743805Y-11799075D02*
X10397297Y-11749759D01*
X10788894Y-11482267D02*
X10743805Y-11799075D01*
X22312241Y-7143897D02*
X22661209Y-7117046D01*
X22336791Y-7462954D02*
X22312241Y-7143897D01*
X22661209Y-7117046D02*
X22685759Y-7436103D01*
X22685759Y-7436103D02*
X22336791Y-7462954D01*
X18514106Y-9556667D02*
X18860615Y-9507352D01*
X18559195Y-9873475D02*
X18514106Y-9556667D01*
X18860615Y-9507352D02*
X18905703Y-9824159D01*
X18905703Y-9824159D02*
X18559195Y-9873475D01*
X18514116Y-11481084D02*
X18860624Y-11431769D01*
X18559205Y-11797892D02*
X18514116Y-11481084D01*
X18860624Y-11431769D02*
X18905713Y-11748576D01*
X18905713Y-11748576D02*
X18559205Y-11797892D01*
X6625268Y-7439551D02*
X6649818Y-7120494D01*
X6649818Y-7120494D02*
X6998786Y-7147346D01*
X6974236Y-7466403D02*
X6625268Y-7439551D01*
X6998786Y-7147346D02*
X6974236Y-7466403D01*
X2795000Y-7257000D02*
X3145000Y-7257000D01*
X2795000Y-7577000D02*
X2795000Y-7257000D01*
X3145000Y-7257000D02*
X3145000Y-7577000D01*
X3145000Y-7577000D02*
X2795000Y-7577000D01*
X22450241Y-12894897D02*
X22799209Y-12868046D01*
X22474791Y-13213954D02*
X22450241Y-12894897D01*
X22799209Y-12868046D02*
X22823759Y-13187103D01*
X22823759Y-13187103D02*
X22474791Y-13213954D01*
X12282297Y-10093999D02*
X12327385Y-9777192D01*
X12327385Y-9777192D02*
X12673894Y-9826507D01*
X12628805Y-10143315D02*
X12282297Y-10093999D01*
X12673894Y-9826507D02*
X12628805Y-10143315D01*
X2796000Y-11067000D02*
X3146000Y-11067000D01*
X2796000Y-11387000D02*
X2796000Y-11067000D01*
X3146000Y-11067000D02*
X3146000Y-11387000D01*
X3146000Y-11387000D02*
X2796000Y-11387000D01*
X8524297Y-7636159D02*
X8569385Y-7319352D01*
X8569385Y-7319352D02*
X8915894Y-7368667D01*
X8870805Y-7685475D02*
X8524297Y-7636159D01*
X8915894Y-7368667D02*
X8870805Y-7685475D01*
X8510297Y-9557159D02*
X8555385Y-9240352D01*
X8555385Y-9240352D02*
X8901894Y-9289667D01*
X8856805Y-9606475D02*
X8510297Y-9557159D01*
X8901894Y-9289667D02*
X8856805Y-9606475D01*
X20387097Y-7364834D02*
X20733605Y-7315518D01*
X20432185Y-7681641D02*
X20387097Y-7364834D01*
X20733605Y-7315518D02*
X20778693Y-7632326D01*
X20778693Y-7632326D02*
X20432185Y-7681641D01*
D13*
D10*
X2287000Y-7328000D02*
X2317000Y-7358000D01*
X2317000Y-7328000D02*
X2287000Y-7358000D01*
X2287000Y-9226000D02*
X2317000Y-9256000D01*
X2317000Y-9226000D02*
X2287000Y-9256000D01*
X2476000Y-7616000D02*
X2506000Y-7646000D01*
X2506000Y-7616000D02*
X2476000Y-7646000D01*
X3508000Y-7666000D02*
X3538000Y-7696000D01*
X3538000Y-7666000D02*
X3508000Y-7696000D01*
X3630000Y-11137000D02*
X3660000Y-11167000D01*
X3660000Y-11137000D02*
X3630000Y-11167000D01*
X3632000Y-11476000D02*
X3662000Y-11506000D01*
X3662000Y-11476000D02*
X3632000Y-11506000D01*
X3646000Y-10960112D02*
X3676000Y-10990112D01*
X3676000Y-10960112D02*
X3646000Y-10990112D01*
X3649000Y-9383000D02*
X3679000Y-9413000D01*
X3679000Y-9383000D02*
X3649000Y-9413000D01*
X4011000Y-11099000D02*
X4041000Y-11129000D01*
X4041000Y-11099000D02*
X4011000Y-11129000D01*
X4097000Y-10986000D02*
X4127000Y-11016000D01*
X4127000Y-10986000D02*
X4097000Y-11016000D01*
X4102000Y-9231000D02*
X4132000Y-9261000D01*
X4132000Y-9231000D02*
X4102000Y-9261000D01*
X4106595Y-7970000D02*
X4136595Y-8000000D01*
X4136595Y-7970000D02*
X4106595Y-8000000D01*
X4109000Y-6867000D02*
X4139000Y-6897000D01*
X4139000Y-6867000D02*
X4109000Y-6897000D01*
X4186000Y-10126000D02*
X4216000Y-10156000D01*
X4216000Y-10126000D02*
X4186000Y-10156000D01*
X4194000Y-8844000D02*
X4224000Y-8874000D01*
X4224000Y-8844000D02*
X4194000Y-8874000D01*
X5370000Y-11287000D02*
X5400000Y-11317000D01*
X5400000Y-11287000D02*
X5370000Y-11317000D01*
X5373000Y-10975000D02*
X5403000Y-11005000D01*
X5403000Y-10975000D02*
X5373000Y-11005000D01*
X5507000Y-9233000D02*
X5537000Y-9263000D01*
X5537000Y-9233000D02*
X5507000Y-9263000D01*
X5510000Y-9644000D02*
X5540000Y-9674000D01*
X5540000Y-9644000D02*
X5510000Y-9674000D01*
X5926339Y-11037339D02*
X5956339Y-11067339D01*
X5956339Y-11037339D02*
X5926339Y-11067339D01*
X5926339Y-12778339D02*
X5956339Y-12808339D01*
X5956339Y-12778339D02*
X5926339Y-12808339D01*
X6038000Y-7514000D02*
X6068000Y-7544000D01*
X6068000Y-7514000D02*
X6038000Y-7544000D01*
X6072000Y-11849000D02*
X6102000Y-11879000D01*
X6102000Y-11849000D02*
X6072000Y-11879000D01*
X6109000Y-8655000D02*
X6139000Y-8685000D01*
X6139000Y-8655000D02*
X6109000Y-8685000D01*
X6112000Y-10583000D02*
X6142000Y-10613000D01*
X6142000Y-10583000D02*
X6112000Y-10613000D01*
X6113541Y-9545000D02*
X6143541Y-9575000D01*
X6143541Y-9545000D02*
X6113541Y-9575000D01*
X6116000Y-8048000D02*
X6146000Y-8078000D01*
X6146000Y-8048000D02*
X6116000Y-8078000D01*
X6116000Y-10027000D02*
X6146000Y-10057000D01*
X6146000Y-10027000D02*
X6116000Y-10057000D01*
X6122000Y-6676000D02*
X6152000Y-6706000D01*
X6152000Y-6676000D02*
X6122000Y-6706000D01*
X6215000Y-11166000D02*
X6245000Y-11196000D01*
X6245000Y-11166000D02*
X6215000Y-11196000D01*
X7241000Y-13017000D02*
X7271000Y-13047000D01*
X7271000Y-13017000D02*
X7241000Y-13047000D01*
X7247000Y-7588000D02*
X7277000Y-7618000D01*
X7277000Y-7588000D02*
X7247000Y-7618000D01*
X7381000Y-9644000D02*
X7411000Y-9674000D01*
X7411000Y-9644000D02*
X7381000Y-9674000D01*
X7388000Y-9179000D02*
X7418000Y-9209000D01*
X7418000Y-9179000D02*
X7388000Y-9209000D01*
X7878000Y-12101000D02*
X7908000Y-12131000D01*
X7908000Y-12101000D02*
X7878000Y-12131000D01*
X7883000Y-8187000D02*
X7913000Y-8217000D01*
X7913000Y-8187000D02*
X7883000Y-8217000D01*
X7925839Y-9914000D02*
X7955839Y-9944000D01*
X7955839Y-9914000D02*
X7925839Y-9944000D01*
X8053000Y-10704000D02*
X8083000Y-10734000D01*
X8083000Y-10704000D02*
X8053000Y-10734000D01*
X8074000Y-8767000D02*
X8104000Y-8797000D01*
X8104000Y-8767000D02*
X8074000Y-8797000D01*
X8081000Y-6874000D02*
X8111000Y-6904000D01*
X8111000Y-6874000D02*
X8081000Y-6904000D01*
X8157000Y-11348000D02*
X8187000Y-11378000D01*
X8187000Y-11348000D02*
X8157000Y-11378000D01*
X9051000Y-7798000D02*
X9081000Y-7828000D01*
X9081000Y-7798000D02*
X9051000Y-7828000D01*
X9170000Y-9890052D02*
X9200000Y-9920052D01*
X9200000Y-9890052D02*
X9170000Y-9920052D01*
X9235000Y-9405000D02*
X9265000Y-9435000D01*
X9265000Y-9405000D02*
X9235000Y-9435000D01*
X9401000Y-13285000D02*
X9431000Y-13315000D01*
X9431000Y-13285000D02*
X9401000Y-13315000D01*
X9788000Y-8443000D02*
X9818000Y-8473000D01*
X9818000Y-8443000D02*
X9788000Y-8473000D01*
X9807000Y-10389000D02*
X9837000Y-10419000D01*
X9837000Y-10389000D02*
X9807000Y-10419000D01*
X9868794Y-9835000D02*
X9898794Y-9865000D01*
X9898794Y-9835000D02*
X9868794Y-9865000D01*
X9944000Y-7139000D02*
X9974000Y-7169000D01*
X9974000Y-7139000D02*
X9944000Y-7169000D01*
X9951000Y-9098000D02*
X9981000Y-9128000D01*
X9981000Y-9098000D02*
X9951000Y-9128000D01*
X10026000Y-11608000D02*
X10056000Y-11638000D01*
X10056000Y-11608000D02*
X10026000Y-11638000D01*
X11072000Y-10151646D02*
X11102000Y-10181646D01*
X11102000Y-10151646D02*
X11072000Y-10181646D01*
X11140000Y-9678000D02*
X11170000Y-9708000D01*
X11170000Y-9678000D02*
X11140000Y-9708000D01*
X11251000Y-8114000D02*
X11281000Y-8144000D01*
X11281000Y-8114000D02*
X11251000Y-8144000D01*
X11647000Y-10640000D02*
X11677000Y-10670000D01*
X11677000Y-10640000D02*
X11647000Y-10670000D01*
X11670000Y-8728000D02*
X11700000Y-8758000D01*
X11700000Y-8728000D02*
X11670000Y-8758000D01*
X11678000Y-12366000D02*
X11708000Y-12396000D01*
X11708000Y-12366000D02*
X11678000Y-12396000D01*
X11686556Y-10319000D02*
X11716556Y-10349000D01*
X11716556Y-10319000D02*
X11686556Y-10349000D01*
X11812000Y-9301000D02*
X11842000Y-9331000D01*
X11842000Y-9301000D02*
X11812000Y-9331000D01*
X11840000Y-7427000D02*
X11870000Y-7457000D01*
X11870000Y-7427000D02*
X11840000Y-7457000D01*
X11852000Y-11180000D02*
X11882000Y-11210000D01*
X11882000Y-11180000D02*
X11852000Y-11210000D01*
X11881000Y-11859000D02*
X11911000Y-11889000D01*
X11911000Y-11859000D02*
X11881000Y-11889000D01*
X12986000Y-10414891D02*
X13016000Y-10444891D01*
X13016000Y-10414891D02*
X12986000Y-10444891D01*
X13053000Y-9952000D02*
X13083000Y-9982000D01*
X13083000Y-9952000D02*
X13053000Y-9982000D01*
X13118000Y-12039000D02*
X13148000Y-12069000D01*
X13148000Y-12039000D02*
X13118000Y-12069000D01*
X13386000Y-8688000D02*
X13416000Y-8718000D01*
X13416000Y-8688000D02*
X13386000Y-8718000D01*
X13394000Y-10150000D02*
X13424000Y-10180000D01*
X13424000Y-10150000D02*
X13394000Y-10180000D01*
X13439000Y-8324000D02*
X13469000Y-8354000D01*
X13469000Y-8324000D02*
X13439000Y-8354000D01*
X13479000Y-13710000D02*
X13509000Y-13740000D01*
X13509000Y-13710000D02*
X13479000Y-13740000D01*
X13583000Y-10497000D02*
X13613000Y-10527000D01*
X13613000Y-10497000D02*
X13583000Y-10527000D01*
X13639000Y-8628000D02*
X13669000Y-8658000D01*
X13669000Y-8628000D02*
X13639000Y-8658000D01*
X13665000Y-7825000D02*
X13695000Y-7855000D01*
X13695000Y-7825000D02*
X13665000Y-7855000D01*
X13679000Y-10414000D02*
X13709000Y-10444000D01*
X13709000Y-10414000D02*
X13679000Y-10444000D01*
X13683000Y-12263000D02*
X13713000Y-12293000D01*
X13713000Y-12263000D02*
X13683000Y-12293000D01*
X13726000Y-8948000D02*
X13756000Y-8978000D01*
X13756000Y-8948000D02*
X13726000Y-8978000D01*
X13850000Y-13635000D02*
X13880000Y-13665000D01*
X13880000Y-13635000D02*
X13850000Y-13665000D01*
X14038000Y-9667000D02*
X14068000Y-9697000D01*
X14068000Y-9667000D02*
X14038000Y-9697000D01*
X14055000Y-11575000D02*
X14085000Y-11605000D01*
X14085000Y-11575000D02*
X14055000Y-11605000D01*
X14117000Y-10699000D02*
X14147000Y-10729000D01*
X14147000Y-10699000D02*
X14117000Y-10729000D01*
X14134000Y-8344000D02*
X14164000Y-8374000D01*
X14164000Y-8344000D02*
X14134000Y-8374000D01*
X14197000Y-8675000D02*
X14227000Y-8705000D01*
X14227000Y-8675000D02*
X14197000Y-8705000D01*
X14197000Y-9898901D02*
X14227000Y-9928901D01*
X14227000Y-9898901D02*
X14197000Y-9928901D01*
X14288000Y-10002000D02*
X14318000Y-10032000D01*
X14318000Y-10002000D02*
X14288000Y-10032000D01*
X14294000Y-8839000D02*
X14324000Y-8869000D01*
X14324000Y-8839000D02*
X14294000Y-8869000D01*
X14619000Y-7830000D02*
X14649000Y-7860000D01*
X14649000Y-7830000D02*
X14619000Y-7860000D01*
X14619000Y-8453000D02*
X14649000Y-8483000D01*
X14649000Y-8453000D02*
X14619000Y-8483000D01*
X15168000Y-8755000D02*
X15198000Y-8785000D01*
X15198000Y-8755000D02*
X15168000Y-8785000D01*
X15175000Y-10374000D02*
X15205000Y-10404000D01*
X15205000Y-10374000D02*
X15175000Y-10404000D01*
X15250000Y-8559000D02*
X15280000Y-8589000D01*
X15280000Y-8559000D02*
X15250000Y-8589000D01*
X15253000Y-10321000D02*
X15283000Y-10351000D01*
X15283000Y-10321000D02*
X15253000Y-10351000D01*
X15518000Y-9745000D02*
X15548000Y-9775000D01*
X15548000Y-9745000D02*
X15518000Y-9775000D01*
X15539000Y-11793000D02*
X15569000Y-11823000D01*
X15569000Y-11793000D02*
X15539000Y-11823000D01*
X15567000Y-13679000D02*
X15597000Y-13709000D01*
X15597000Y-13679000D02*
X15567000Y-13709000D01*
X15588000Y-8453000D02*
X15618000Y-8483000D01*
X15618000Y-8453000D02*
X15588000Y-8483000D01*
X15643000Y-6935000D02*
X15673000Y-6965000D01*
X15673000Y-6935000D02*
X15643000Y-6965000D01*
X15645268Y-10511000D02*
X15675268Y-10541000D01*
X15675268Y-10511000D02*
X15645268Y-10541000D01*
X15693854Y-12257000D02*
X15723854Y-12287000D01*
X15723854Y-12257000D02*
X15693854Y-12287000D01*
X15707000Y-8323000D02*
X15737000Y-8353000D01*
X15737000Y-8323000D02*
X15707000Y-8353000D01*
X15711000Y-8642000D02*
X15741000Y-8672000D01*
X15741000Y-8642000D02*
X15711000Y-8672000D01*
X15803000Y-10010000D02*
X15833000Y-10040000D01*
X15833000Y-10010000D02*
X15803000Y-10040000D01*
X15815000Y-7599000D02*
X15845000Y-7629000D01*
X15845000Y-7599000D02*
X15815000Y-7629000D01*
X15840000Y-8837000D02*
X15870000Y-8867000D01*
X15870000Y-8837000D02*
X15840000Y-8867000D01*
X15879000Y-11922000D02*
X15909000Y-11952000D01*
X15909000Y-11922000D02*
X15879000Y-11952000D01*
X15925000Y-13711000D02*
X15955000Y-13741000D01*
X15955000Y-13711000D02*
X15925000Y-13741000D01*
X15943000Y-7066000D02*
X15973000Y-7096000D01*
X15973000Y-7066000D02*
X15943000Y-7096000D01*
X15973000Y-8065000D02*
X16003000Y-8095000D01*
X16003000Y-8065000D02*
X15973000Y-8095000D01*
X16001000Y-10887000D02*
X16031000Y-10917000D01*
X16031000Y-10887000D02*
X16001000Y-10917000D01*
X16006000Y-9518000D02*
X16036000Y-9548000D01*
X16036000Y-9518000D02*
X16006000Y-9548000D01*
X16046000Y-11510000D02*
X16076000Y-11540000D01*
X16076000Y-11510000D02*
X16046000Y-11540000D01*
X16564000Y-12757000D02*
X16594000Y-12787000D01*
X16594000Y-12757000D02*
X16564000Y-12787000D01*
X17295000Y-9795000D02*
X17325000Y-9825000D01*
X17325000Y-9795000D02*
X17295000Y-9825000D01*
X17367000Y-10265566D02*
X17397000Y-10295566D01*
X17397000Y-10265566D02*
X17367000Y-10295566D01*
X17606000Y-8139000D02*
X17636000Y-8169000D01*
X17636000Y-8139000D02*
X17606000Y-8169000D01*
X17736000Y-7385000D02*
X17766000Y-7415000D01*
X17766000Y-7385000D02*
X17736000Y-7415000D01*
X17842000Y-8484000D02*
X17872000Y-8514000D01*
X17872000Y-8484000D02*
X17842000Y-8514000D01*
X17853000Y-10578000D02*
X17883000Y-10608000D01*
X17883000Y-10578000D02*
X17853000Y-10608000D01*
X17916000Y-9274000D02*
X17946000Y-9304000D01*
X17946000Y-9274000D02*
X17916000Y-9304000D01*
X18107000Y-11756000D02*
X18137000Y-11786000D01*
X18137000Y-11756000D02*
X18107000Y-11786000D01*
X19191000Y-9564000D02*
X19221000Y-9594000D01*
X19221000Y-9564000D02*
X19191000Y-9594000D01*
X19254000Y-9996573D02*
X19284000Y-10026573D01*
X19284000Y-9996573D02*
X19254000Y-10026573D01*
X19353000Y-7911000D02*
X19383000Y-7941000D01*
X19383000Y-7911000D02*
X19353000Y-7941000D01*
X19615000Y-10905000D02*
X19645000Y-10935000D01*
X19645000Y-10905000D02*
X19615000Y-10935000D01*
X19621000Y-12255000D02*
X19651000Y-12285000D01*
X19651000Y-12255000D02*
X19621000Y-12285000D01*
X19659000Y-7053000D02*
X19689000Y-7083000D01*
X19689000Y-7053000D02*
X19659000Y-7083000D01*
X19706000Y-8095000D02*
X19736000Y-8125000D01*
X19736000Y-8095000D02*
X19706000Y-8125000D01*
X19730000Y-10345000D02*
X19760000Y-10375000D01*
X19760000Y-10345000D02*
X19730000Y-10375000D01*
X19792000Y-9001000D02*
X19822000Y-9031000D01*
X19822000Y-9001000D02*
X19792000Y-9031000D01*
X20071000Y-11485000D02*
X20101000Y-11515000D01*
X20101000Y-11485000D02*
X20071000Y-11515000D01*
X21098000Y-9300000D02*
X21128000Y-9330000D01*
X21128000Y-9300000D02*
X21098000Y-9330000D01*
X21162000Y-9724586D02*
X21192000Y-9754586D01*
X21192000Y-9724586D02*
X21162000Y-9754586D01*
X21295000Y-7631000D02*
X21325000Y-7661000D01*
X21325000Y-7631000D02*
X21295000Y-7661000D01*
X21302000Y-13078000D02*
X21332000Y-13108000D01*
X21332000Y-13078000D02*
X21302000Y-13108000D01*
X21671000Y-8707000D02*
X21701000Y-8737000D01*
X21701000Y-8707000D02*
X21671000Y-8737000D01*
X21717000Y-6790000D02*
X21747000Y-6820000D01*
X21747000Y-6790000D02*
X21717000Y-6820000D01*
X21719000Y-9835000D02*
X21749000Y-9865000D01*
X21749000Y-9835000D02*
X21719000Y-9865000D01*
X21758000Y-8187000D02*
X21788000Y-8217000D01*
X21788000Y-8187000D02*
X21758000Y-8217000D01*
X21794000Y-10679000D02*
X21824000Y-10709000D01*
X21824000Y-10679000D02*
X21794000Y-10709000D01*
X21837000Y-12013000D02*
X21867000Y-12043000D01*
X21867000Y-12013000D02*
X21837000Y-12043000D01*
X21960000Y-11257000D02*
X21990000Y-11287000D01*
X21990000Y-11257000D02*
X21960000Y-11287000D01*
X23039000Y-9639198D02*
X23069000Y-9669198D01*
X23069000Y-9639198D02*
X23039000Y-9669198D01*
X23041000Y-9107000D02*
X23071000Y-9137000D01*
X23071000Y-9107000D02*
X23041000Y-9137000D01*
X23222000Y-7460000D02*
X23252000Y-7490000D01*
X23252000Y-7460000D02*
X23222000Y-7490000D01*
X23270000Y-11174000D02*
X23300000Y-11204000D01*
X23300000Y-11174000D02*
X23270000Y-11204000D01*
X23284000Y-13086000D02*
X23314000Y-13116000D01*
X23314000Y-13086000D02*
X23284000Y-13116000D01*
X23659000Y-10148000D02*
X23689000Y-10178000D01*
X23689000Y-10148000D02*
X23659000Y-10178000D01*
X23667000Y-8766000D02*
X23697000Y-8796000D01*
X23697000Y-8766000D02*
X23667000Y-8796000D01*
X23667000Y-9737000D02*
X23697000Y-9767000D01*
X23697000Y-9737000D02*
X23667000Y-9767000D01*
X23668000Y-8245000D02*
X23698000Y-8275000D01*
X23698000Y-8245000D02*
X23668000Y-8275000D01*
X23675000Y-6864000D02*
X23705000Y-6894000D01*
X23705000Y-6864000D02*
X23675000Y-6894000D01*
X23737000Y-11126000D02*
X23767000Y-11156000D01*
X23767000Y-11126000D02*
X23737000Y-11156000D01*
X24955000Y-11132000D02*
X24985000Y-11162000D01*
X24985000Y-11132000D02*
X24955000Y-11162000D01*
X24955000Y-11441559D02*
X24985000Y-11471559D01*
X24985000Y-11441559D02*
X24955000Y-11471559D01*
X24968000Y-9644084D02*
X24998000Y-9674084D01*
X24998000Y-9644084D02*
X24968000Y-9674084D01*
X24973000Y-9230000D02*
X25003000Y-9260000D01*
X25003000Y-9230000D02*
X24973000Y-9260000D01*
X25123000Y-9382000D02*
X25153000Y-9412000D01*
X25153000Y-9382000D02*
X25123000Y-9412000D01*
X25182000Y-7568000D02*
X25212000Y-7598000D01*
X25212000Y-7568000D02*
X25182000Y-7598000D01*
X25563000Y-6839000D02*
X25593000Y-6869000D01*
X25593000Y-6839000D02*
X25563000Y-6869000D01*
X25572000Y-8741000D02*
X25602000Y-8771000D01*
X25602000Y-8741000D02*
X25572000Y-8771000D01*
X25575000Y-9561000D02*
X25605000Y-9591000D01*
X25605000Y-9561000D02*
X25575000Y-9591000D01*
X25575000Y-10161000D02*
X25605000Y-10191000D01*
X25605000Y-10161000D02*
X25575000Y-10191000D01*
X25580000Y-8230000D02*
X25610000Y-8260000D01*
X25610000Y-8230000D02*
X25580000Y-8260000D01*
X25639000Y-11411000D02*
X25669000Y-11441000D01*
X25669000Y-11411000D02*
X25639000Y-11441000D01*
X25653000Y-9223000D02*
X25683000Y-9253000D01*
X25683000Y-9223000D02*
X25653000Y-9253000D01*
X26777000Y-11386000D02*
X26807000Y-11416000D01*
X26807000Y-11386000D02*
X26777000Y-11416000D01*
X26822000Y-9641000D02*
X26852000Y-9671000D01*
X26852000Y-9641000D02*
X26822000Y-9671000D01*
X26826000Y-9231000D02*
X26856000Y-9261000D01*
X26856000Y-9231000D02*
X26826000Y-9261000D01*
X13922640Y-6820000D02*
G75*
G02*
X13841360Y-6820000I-40640J0D01*
G01*
X13841360Y-6820000D02*
G75*
G02*
X13922640Y-6820000I40640J0D01*
G01*
X13922640Y-7074000D02*
G75*
G02*
X13841360Y-7074000I-40640J0D01*
G01*
X13841360Y-7074000D02*
G75*
G02*
X13922640Y-7074000I40640J0D01*
G01*
X13922640Y-7328000D02*
G75*
G02*
X13841360Y-7328000I-40640J0D01*
G01*
X13841360Y-7328000D02*
G75*
G02*
X13922640Y-7328000I40640J0D01*
G01*
X13922640Y-7582000D02*
G75*
G02*
X13841360Y-7582000I-40640J0D01*
G01*
X13841360Y-7582000D02*
G75*
G02*
X13922640Y-7582000I40640J0D01*
G01*
X13922640Y-7836000D02*
G75*
G02*
X13841360Y-7836000I-40640J0D01*
G01*
X13841360Y-7836000D02*
G75*
G02*
X13922640Y-7836000I40640J0D01*
G01*
X13922640Y-8090000D02*
G75*
G02*
X13841360Y-8090000I-40640J0D01*
G01*
X13841360Y-8090000D02*
G75*
G02*
X13922640Y-8090000I40640J0D01*
G01*
X13922640Y-8344000D02*
G75*
G02*
X13841360Y-8344000I-40640J0D01*
G01*
X13841360Y-8344000D02*
G75*
G02*
X13922640Y-8344000I40640J0D01*
G01*
X13922640Y-8598000D02*
G75*
G02*
X13841360Y-8598000I-40640J0D01*
G01*
X13841360Y-8598000D02*
G75*
G02*
X13922640Y-8598000I40640J0D01*
G01*
X13922640Y-8852000D02*
G75*
G02*
X13841360Y-8852000I-40640J0D01*
G01*
X13841360Y-8852000D02*
G75*
G02*
X13922640Y-8852000I40640J0D01*
G01*
X13922640Y-9106000D02*
G75*
G02*
X13841360Y-9106000I-40640J0D01*
G01*
X13841360Y-9106000D02*
G75*
G02*
X13922640Y-9106000I40640J0D01*
G01*
X13922640Y-9360000D02*
G75*
G02*
X13841360Y-9360000I-40640J0D01*
G01*
X13841360Y-9360000D02*
G75*
G02*
X13922640Y-9360000I40640J0D01*
G01*
X13922640Y-9614000D02*
G75*
G02*
X13841360Y-9614000I-40640J0D01*
G01*
X13841360Y-9614000D02*
G75*
G02*
X13922640Y-9614000I40640J0D01*
G01*
X13922640Y-9868000D02*
G75*
G02*
X13841360Y-9868000I-40640J0D01*
G01*
X13841360Y-9868000D02*
G75*
G02*
X13922640Y-9868000I40640J0D01*
G01*
X15444640Y-6820000D02*
G75*
G02*
X15363360Y-6820000I-40640J0D01*
G01*
X15363360Y-6820000D02*
G75*
G02*
X15444640Y-6820000I40640J0D01*
G01*
X15444640Y-7074000D02*
G75*
G02*
X15363360Y-7074000I-40640J0D01*
G01*
X15363360Y-7074000D02*
G75*
G02*
X15444640Y-7074000I40640J0D01*
G01*
X15444640Y-7328000D02*
G75*
G02*
X15363360Y-7328000I-40640J0D01*
G01*
X15363360Y-7328000D02*
G75*
G02*
X15444640Y-7328000I40640J0D01*
G01*
X15444640Y-7582000D02*
G75*
G02*
X15363360Y-7582000I-40640J0D01*
G01*
X15363360Y-7582000D02*
G75*
G02*
X15444640Y-7582000I40640J0D01*
G01*
X15444640Y-7836000D02*
G75*
G02*
X15363360Y-7836000I-40640J0D01*
G01*
X15363360Y-7836000D02*
G75*
G02*
X15444640Y-7836000I40640J0D01*
G01*
X15444640Y-8090000D02*
G75*
G02*
X15363360Y-8090000I-40640J0D01*
G01*
X15363360Y-8090000D02*
G75*
G02*
X15444640Y-8090000I40640J0D01*
G01*
X15444640Y-8344000D02*
G75*
G02*
X15363360Y-8344000I-40640J0D01*
G01*
X15363360Y-8344000D02*
G75*
G02*
X15444640Y-8344000I40640J0D01*
G01*
X15444640Y-8598000D02*
G75*
G02*
X15363360Y-8598000I-40640J0D01*
G01*
X15363360Y-8598000D02*
G75*
G02*
X15444640Y-8598000I40640J0D01*
G01*
X15444640Y-8852000D02*
G75*
G02*
X15363360Y-8852000I-40640J0D01*
G01*
X15363360Y-8852000D02*
G75*
G02*
X15444640Y-8852000I40640J0D01*
G01*
X15444640Y-9106000D02*
G75*
G02*
X15363360Y-9106000I-40640J0D01*
G01*
X15363360Y-9106000D02*
G75*
G02*
X15444640Y-9106000I40640J0D01*
G01*
X15444640Y-9360000D02*
G75*
G02*
X15363360Y-9360000I-40640J0D01*
G01*
X15363360Y-9360000D02*
G75*
G02*
X15444640Y-9360000I40640J0D01*
G01*
X15444640Y-9614000D02*
G75*
G02*
X15363360Y-9614000I-40640J0D01*
G01*
X15363360Y-9614000D02*
G75*
G02*
X15444640Y-9614000I40640J0D01*
G01*
X15444640Y-9868000D02*
G75*
G02*
X15363360Y-9868000I-40640J0D01*
G01*
X15363360Y-9868000D02*
G75*
G02*
X15444640Y-9868000I40640J0D01*
G01*
X15705640Y-7879400D02*
G75*
G02*
X15624360Y-7879400I-40640J0D01*
G01*
X15624360Y-7879400D02*
G75*
G02*
X15705640Y-7879400I40640J0D01*
G01*
X15705640Y-8133400D02*
G75*
G02*
X15624360Y-8133400I-40640J0D01*
G01*
X15624360Y-8133400D02*
G75*
G02*
X15705640Y-8133400I40640J0D01*
G01*
D14*
X14324000Y-7574000D02*
X14324000Y-7704000D01*
X14259000Y-7639000D02*
X14389000Y-7639000D01*
X14974000Y-7574000D02*
X14974000Y-7704000D01*
X14909000Y-7639000D02*
X15039000Y-7639000D01*
D13*
X2318079Y-14695224D02*
X2318079Y-14495224D01*
X2318079Y-14495224D02*
X2365698Y-14495224D01*
X2365698Y-14495224D02*
X2394270Y-14504748D01*
X2394270Y-14504748D02*
X2413318Y-14523795D01*
X2413318Y-14523795D02*
X2422841Y-14542843D01*
X2422841Y-14542843D02*
X2432365Y-14580938D01*
X2432365Y-14580938D02*
X2432365Y-14609510D01*
X2432365Y-14609510D02*
X2422841Y-14647605D01*
X2422841Y-14647605D02*
X2413318Y-14666652D01*
X2413318Y-14666652D02*
X2394270Y-14685700D01*
X2394270Y-14685700D02*
X2365698Y-14695224D01*
X2365698Y-14695224D02*
X2318079Y-14695224D01*
X2518079Y-14695224D02*
X2518079Y-14561891D01*
X2518079Y-14599986D02*
X2527603Y-14580938D01*
X2527603Y-14580938D02*
X2537127Y-14571414D01*
X2537127Y-14571414D02*
X2556175Y-14561891D01*
X2556175Y-14561891D02*
X2575222Y-14561891D01*
X2641889Y-14695224D02*
X2641889Y-14561891D01*
X2641889Y-14495224D02*
X2632365Y-14504748D01*
X2632365Y-14504748D02*
X2641889Y-14514272D01*
X2641889Y-14514272D02*
X2651413Y-14504748D01*
X2651413Y-14504748D02*
X2641889Y-14495224D01*
X2641889Y-14495224D02*
X2641889Y-14514272D01*
X2765698Y-14695224D02*
X2746651Y-14685700D01*
X2746651Y-14685700D02*
X2737127Y-14666652D01*
X2737127Y-14666652D02*
X2737127Y-14495224D01*
X2870460Y-14695224D02*
X2851413Y-14685700D01*
X2851413Y-14685700D02*
X2841889Y-14666652D01*
X2841889Y-14666652D02*
X2841889Y-14495224D01*
X3099032Y-14695224D02*
X3099032Y-14495224D01*
X3099032Y-14495224D02*
X3165698Y-14638081D01*
X3165698Y-14638081D02*
X3232365Y-14495224D01*
X3232365Y-14495224D02*
X3232365Y-14695224D01*
X3413317Y-14695224D02*
X3413317Y-14590462D01*
X3413317Y-14590462D02*
X3403794Y-14571414D01*
X3403794Y-14571414D02*
X3384746Y-14561891D01*
X3384746Y-14561891D02*
X3346651Y-14561891D01*
X3346651Y-14561891D02*
X3327603Y-14571414D01*
X3413317Y-14685700D02*
X3394270Y-14695224D01*
X3394270Y-14695224D02*
X3346651Y-14695224D01*
X3346651Y-14695224D02*
X3327603Y-14685700D01*
X3327603Y-14685700D02*
X3318079Y-14666652D01*
X3318079Y-14666652D02*
X3318079Y-14647605D01*
X3318079Y-14647605D02*
X3327603Y-14628557D01*
X3327603Y-14628557D02*
X3346651Y-14619033D01*
X3346651Y-14619033D02*
X3394270Y-14619033D01*
X3394270Y-14619033D02*
X3413317Y-14609510D01*
X3508556Y-14561891D02*
X3508556Y-14761891D01*
X3508556Y-14571414D02*
X3527603Y-14561891D01*
X3527603Y-14561891D02*
X3565698Y-14561891D01*
X3565698Y-14561891D02*
X3584746Y-14571414D01*
X3584746Y-14571414D02*
X3594270Y-14580938D01*
X3594270Y-14580938D02*
X3603794Y-14599986D01*
X3603794Y-14599986D02*
X3603794Y-14657129D01*
X3603794Y-14657129D02*
X3594270Y-14676176D01*
X3594270Y-14676176D02*
X3584746Y-14685700D01*
X3584746Y-14685700D02*
X3565698Y-14695224D01*
X3565698Y-14695224D02*
X3527603Y-14695224D01*
X3527603Y-14695224D02*
X3508556Y-14685700D01*
X3689508Y-14676176D02*
X3699032Y-14685700D01*
X3699032Y-14685700D02*
X3689508Y-14695224D01*
X3689508Y-14695224D02*
X3679984Y-14685700D01*
X3679984Y-14685700D02*
X3689508Y-14676176D01*
X3689508Y-14676176D02*
X3689508Y-14695224D01*
X3689508Y-14571414D02*
X3699032Y-14580938D01*
X3699032Y-14580938D02*
X3689508Y-14590462D01*
X3689508Y-14590462D02*
X3679984Y-14580938D01*
X3679984Y-14580938D02*
X3689508Y-14571414D01*
X3689508Y-14571414D02*
X3689508Y-14590462D01*
D10*
X2027303Y-15008740D02*
X2057303Y-15038740D01*
X2057303Y-15008740D02*
X2027303Y-15038740D01*
D13*
X2356175Y-14915224D02*
X2375222Y-14915224D01*
X2375222Y-14915224D02*
X2394270Y-14924748D01*
X2394270Y-14924748D02*
X2403794Y-14934272D01*
X2403794Y-14934272D02*
X2413318Y-14953319D01*
X2413318Y-14953319D02*
X2422841Y-14991414D01*
X2422841Y-14991414D02*
X2422841Y-15039033D01*
X2422841Y-15039033D02*
X2413318Y-15077129D01*
X2413318Y-15077129D02*
X2403794Y-15096176D01*
X2403794Y-15096176D02*
X2394270Y-15105700D01*
X2394270Y-15105700D02*
X2375222Y-15115224D01*
X2375222Y-15115224D02*
X2356175Y-15115224D01*
X2356175Y-15115224D02*
X2337127Y-15105700D01*
X2337127Y-15105700D02*
X2327603Y-15096176D01*
X2327603Y-15096176D02*
X2318079Y-15077129D01*
X2318079Y-15077129D02*
X2308556Y-15039033D01*
X2308556Y-15039033D02*
X2308556Y-14991414D01*
X2308556Y-14991414D02*
X2318079Y-14953319D01*
X2318079Y-14953319D02*
X2327603Y-14934272D01*
X2327603Y-14934272D02*
X2337127Y-14924748D01*
X2337127Y-14924748D02*
X2356175Y-14915224D01*
X2508556Y-15096176D02*
X2518079Y-15105700D01*
X2518079Y-15105700D02*
X2508556Y-15115224D01*
X2508556Y-15115224D02*
X2499032Y-15105700D01*
X2499032Y-15105700D02*
X2508556Y-15096176D01*
X2508556Y-15096176D02*
X2508556Y-15115224D01*
X2584746Y-14915224D02*
X2708556Y-14915224D01*
X2708556Y-14915224D02*
X2641889Y-14991414D01*
X2641889Y-14991414D02*
X2670460Y-14991414D01*
X2670460Y-14991414D02*
X2689508Y-15000938D01*
X2689508Y-15000938D02*
X2699032Y-15010462D01*
X2699032Y-15010462D02*
X2708556Y-15029510D01*
X2708556Y-15029510D02*
X2708556Y-15077129D01*
X2708556Y-15077129D02*
X2699032Y-15096176D01*
X2699032Y-15096176D02*
X2689508Y-15105700D01*
X2689508Y-15105700D02*
X2670460Y-15115224D01*
X2670460Y-15115224D02*
X2613318Y-15115224D01*
X2613318Y-15115224D02*
X2594270Y-15105700D01*
X2594270Y-15105700D02*
X2584746Y-15096176D01*
X2832365Y-14915224D02*
X2851413Y-14915224D01*
X2851413Y-14915224D02*
X2870460Y-14924748D01*
X2870460Y-14924748D02*
X2879984Y-14934272D01*
X2879984Y-14934272D02*
X2889508Y-14953319D01*
X2889508Y-14953319D02*
X2899032Y-14991414D01*
X2899032Y-14991414D02*
X2899032Y-15039033D01*
X2899032Y-15039033D02*
X2889508Y-15077129D01*
X2889508Y-15077129D02*
X2879984Y-15096176D01*
X2879984Y-15096176D02*
X2870460Y-15105700D01*
X2870460Y-15105700D02*
X2851413Y-15115224D01*
X2851413Y-15115224D02*
X2832365Y-15115224D01*
X2832365Y-15115224D02*
X2813317Y-15105700D01*
X2813317Y-15105700D02*
X2803794Y-15096176D01*
X2803794Y-15096176D02*
X2794270Y-15077129D01*
X2794270Y-15077129D02*
X2784746Y-15039033D01*
X2784746Y-15039033D02*
X2784746Y-14991414D01*
X2784746Y-14991414D02*
X2794270Y-14953319D01*
X2794270Y-14953319D02*
X2803794Y-14934272D01*
X2803794Y-14934272D02*
X2813317Y-14924748D01*
X2813317Y-14924748D02*
X2832365Y-14915224D01*
X3022841Y-14915224D02*
X3041889Y-14915224D01*
X3041889Y-14915224D02*
X3060937Y-14924748D01*
X3060937Y-14924748D02*
X3070460Y-14934272D01*
X3070460Y-14934272D02*
X3079984Y-14953319D01*
X3079984Y-14953319D02*
X3089508Y-14991414D01*
X3089508Y-14991414D02*
X3089508Y-15039033D01*
X3089508Y-15039033D02*
X3079984Y-15077129D01*
X3079984Y-15077129D02*
X3070460Y-15096176D01*
X3070460Y-15096176D02*
X3060937Y-15105700D01*
X3060937Y-15105700D02*
X3041889Y-15115224D01*
X3041889Y-15115224D02*
X3022841Y-15115224D01*
X3022841Y-15115224D02*
X3003794Y-15105700D01*
X3003794Y-15105700D02*
X2994270Y-15096176D01*
X2994270Y-15096176D02*
X2984746Y-15077129D01*
X2984746Y-15077129D02*
X2975222Y-15039033D01*
X2975222Y-15039033D02*
X2975222Y-14991414D01*
X2975222Y-14991414D02*
X2984746Y-14953319D01*
X2984746Y-14953319D02*
X2994270Y-14934272D01*
X2994270Y-14934272D02*
X3003794Y-14924748D01*
X3003794Y-14924748D02*
X3022841Y-14915224D01*
X3175222Y-15115224D02*
X3175222Y-14981891D01*
X3175222Y-15000938D02*
X3184746Y-14991414D01*
X3184746Y-14991414D02*
X3203794Y-14981891D01*
X3203794Y-14981891D02*
X3232365Y-14981891D01*
X3232365Y-14981891D02*
X3251413Y-14991414D01*
X3251413Y-14991414D02*
X3260937Y-15010462D01*
X3260937Y-15010462D02*
X3260937Y-15115224D01*
X3260937Y-15010462D02*
X3270460Y-14991414D01*
X3270460Y-14991414D02*
X3289508Y-14981891D01*
X3289508Y-14981891D02*
X3318079Y-14981891D01*
X3318079Y-14981891D02*
X3337127Y-14991414D01*
X3337127Y-14991414D02*
X3346651Y-15010462D01*
X3346651Y-15010462D02*
X3346651Y-15115224D01*
X3441889Y-15115224D02*
X3441889Y-14981891D01*
X3441889Y-15000938D02*
X3451413Y-14991414D01*
X3451413Y-14991414D02*
X3470460Y-14981891D01*
X3470460Y-14981891D02*
X3499032Y-14981891D01*
X3499032Y-14981891D02*
X3518079Y-14991414D01*
X3518079Y-14991414D02*
X3527603Y-15010462D01*
X3527603Y-15010462D02*
X3527603Y-15115224D01*
X3527603Y-15010462D02*
X3537127Y-14991414D01*
X3537127Y-14991414D02*
X3556175Y-14981891D01*
X3556175Y-14981891D02*
X3584746Y-14981891D01*
X3584746Y-14981891D02*
X3603794Y-14991414D01*
X3603794Y-14991414D02*
X3613318Y-15010462D01*
X3613318Y-15010462D02*
X3613318Y-15115224D01*
X4003794Y-14905700D02*
X3832365Y-15162843D01*
X4260937Y-14915224D02*
X4279984Y-14915224D01*
X4279984Y-14915224D02*
X4299032Y-14924748D01*
X4299032Y-14924748D02*
X4308556Y-14934272D01*
X4308556Y-14934272D02*
X4318080Y-14953319D01*
X4318080Y-14953319D02*
X4327603Y-14991414D01*
X4327603Y-14991414D02*
X4327603Y-15039033D01*
X4327603Y-15039033D02*
X4318080Y-15077129D01*
X4318080Y-15077129D02*
X4308556Y-15096176D01*
X4308556Y-15096176D02*
X4299032Y-15105700D01*
X4299032Y-15105700D02*
X4279984Y-15115224D01*
X4279984Y-15115224D02*
X4260937Y-15115224D01*
X4260937Y-15115224D02*
X4241889Y-15105700D01*
X4241889Y-15105700D02*
X4232365Y-15096176D01*
X4232365Y-15096176D02*
X4222842Y-15077129D01*
X4222842Y-15077129D02*
X4213318Y-15039033D01*
X4213318Y-15039033D02*
X4213318Y-14991414D01*
X4213318Y-14991414D02*
X4222842Y-14953319D01*
X4222842Y-14953319D02*
X4232365Y-14934272D01*
X4232365Y-14934272D02*
X4241889Y-14924748D01*
X4241889Y-14924748D02*
X4260937Y-14915224D01*
X4413318Y-15096176D02*
X4422842Y-15105700D01*
X4422842Y-15105700D02*
X4413318Y-15115224D01*
X4413318Y-15115224D02*
X4403794Y-15105700D01*
X4403794Y-15105700D02*
X4413318Y-15096176D01*
X4413318Y-15096176D02*
X4413318Y-15115224D01*
X4546651Y-14915224D02*
X4565699Y-14915224D01*
X4565699Y-14915224D02*
X4584746Y-14924748D01*
X4584746Y-14924748D02*
X4594270Y-14934272D01*
X4594270Y-14934272D02*
X4603794Y-14953319D01*
X4603794Y-14953319D02*
X4613318Y-14991414D01*
X4613318Y-14991414D02*
X4613318Y-15039033D01*
X4613318Y-15039033D02*
X4603794Y-15077129D01*
X4603794Y-15077129D02*
X4594270Y-15096176D01*
X4594270Y-15096176D02*
X4584746Y-15105700D01*
X4584746Y-15105700D02*
X4565699Y-15115224D01*
X4565699Y-15115224D02*
X4546651Y-15115224D01*
X4546651Y-15115224D02*
X4527603Y-15105700D01*
X4527603Y-15105700D02*
X4518080Y-15096176D01*
X4518080Y-15096176D02*
X4508556Y-15077129D01*
X4508556Y-15077129D02*
X4499032Y-15039033D01*
X4499032Y-15039033D02*
X4499032Y-14991414D01*
X4499032Y-14991414D02*
X4508556Y-14953319D01*
X4508556Y-14953319D02*
X4518080Y-14934272D01*
X4518080Y-14934272D02*
X4527603Y-14924748D01*
X4527603Y-14924748D02*
X4546651Y-14915224D01*
X4803794Y-15115224D02*
X4689508Y-15115224D01*
X4746651Y-15115224D02*
X4746651Y-14915224D01*
X4746651Y-14915224D02*
X4727603Y-14943795D01*
X4727603Y-14943795D02*
X4708556Y-14962843D01*
X4708556Y-14962843D02*
X4689508Y-14972367D01*
X4994270Y-15115224D02*
X4879984Y-15115224D01*
X4937127Y-15115224D02*
X4937127Y-14915224D01*
X4937127Y-14915224D02*
X4918080Y-14943795D01*
X4918080Y-14943795D02*
X4899032Y-14962843D01*
X4899032Y-14962843D02*
X4879984Y-14972367D01*
X5108556Y-15000938D02*
X5089508Y-14991414D01*
X5089508Y-14991414D02*
X5079984Y-14981891D01*
X5079984Y-14981891D02*
X5070461Y-14962843D01*
X5070461Y-14962843D02*
X5070461Y-14953319D01*
X5070461Y-14953319D02*
X5079984Y-14934272D01*
X5079984Y-14934272D02*
X5089508Y-14924748D01*
X5089508Y-14924748D02*
X5108556Y-14915224D01*
X5108556Y-14915224D02*
X5146651Y-14915224D01*
X5146651Y-14915224D02*
X5165699Y-14924748D01*
X5165699Y-14924748D02*
X5175223Y-14934272D01*
X5175223Y-14934272D02*
X5184746Y-14953319D01*
X5184746Y-14953319D02*
X5184746Y-14962843D01*
X5184746Y-14962843D02*
X5175223Y-14981891D01*
X5175223Y-14981891D02*
X5165699Y-14991414D01*
X5165699Y-14991414D02*
X5146651Y-15000938D01*
X5146651Y-15000938D02*
X5108556Y-15000938D01*
X5108556Y-15000938D02*
X5089508Y-15010462D01*
X5089508Y-15010462D02*
X5079984Y-15019986D01*
X5079984Y-15019986D02*
X5070461Y-15039033D01*
X5070461Y-15039033D02*
X5070461Y-15077129D01*
X5070461Y-15077129D02*
X5079984Y-15096176D01*
X5079984Y-15096176D02*
X5089508Y-15105700D01*
X5089508Y-15105700D02*
X5108556Y-15115224D01*
X5108556Y-15115224D02*
X5146651Y-15115224D01*
X5146651Y-15115224D02*
X5165699Y-15105700D01*
X5165699Y-15105700D02*
X5175223Y-15096176D01*
X5175223Y-15096176D02*
X5184746Y-15077129D01*
X5184746Y-15077129D02*
X5184746Y-15039033D01*
X5184746Y-15039033D02*
X5175223Y-15019986D01*
X5175223Y-15019986D02*
X5165699Y-15010462D01*
X5165699Y-15010462D02*
X5146651Y-15000938D01*
X5260937Y-14915224D02*
X5260937Y-14953319D01*
X5337127Y-14915224D02*
X5337127Y-14953319D01*
X5632365Y-15191414D02*
X5622842Y-15181891D01*
X5622842Y-15181891D02*
X5603794Y-15153319D01*
X5603794Y-15153319D02*
X5594270Y-15134272D01*
X5594270Y-15134272D02*
X5584746Y-15105700D01*
X5584746Y-15105700D02*
X5575223Y-15058081D01*
X5575223Y-15058081D02*
X5575223Y-15019986D01*
X5575223Y-15019986D02*
X5584746Y-14972367D01*
X5584746Y-14972367D02*
X5594270Y-14943795D01*
X5594270Y-14943795D02*
X5603794Y-14924748D01*
X5603794Y-14924748D02*
X5622842Y-14896176D01*
X5622842Y-14896176D02*
X5632365Y-14886652D01*
X5813318Y-15115224D02*
X5699032Y-15115224D01*
X5756175Y-15115224D02*
X5756175Y-14915224D01*
X5756175Y-14915224D02*
X5737127Y-14943795D01*
X5737127Y-14943795D02*
X5718080Y-14962843D01*
X5718080Y-14962843D02*
X5699032Y-14972367D01*
X5984746Y-14915224D02*
X5946651Y-14915224D01*
X5946651Y-14915224D02*
X5927603Y-14924748D01*
X5927603Y-14924748D02*
X5918080Y-14934272D01*
X5918080Y-14934272D02*
X5899032Y-14962843D01*
X5899032Y-14962843D02*
X5889508Y-15000938D01*
X5889508Y-15000938D02*
X5889508Y-15077129D01*
X5889508Y-15077129D02*
X5899032Y-15096176D01*
X5899032Y-15096176D02*
X5908556Y-15105700D01*
X5908556Y-15105700D02*
X5927603Y-15115224D01*
X5927603Y-15115224D02*
X5965699Y-15115224D01*
X5965699Y-15115224D02*
X5984746Y-15105700D01*
X5984746Y-15105700D02*
X5994270Y-15096176D01*
X5994270Y-15096176D02*
X6003794Y-15077129D01*
X6003794Y-15077129D02*
X6003794Y-15029510D01*
X6003794Y-15029510D02*
X5994270Y-15010462D01*
X5994270Y-15010462D02*
X5984746Y-15000938D01*
X5984746Y-15000938D02*
X5965699Y-14991414D01*
X5965699Y-14991414D02*
X5927603Y-14991414D01*
X5927603Y-14991414D02*
X5908556Y-15000938D01*
X5908556Y-15000938D02*
X5899032Y-15010462D01*
X5899032Y-15010462D02*
X5889508Y-15029510D01*
X6175223Y-14915224D02*
X6137127Y-14915224D01*
X6137127Y-14915224D02*
X6118080Y-14924748D01*
X6118080Y-14924748D02*
X6108556Y-14934272D01*
X6108556Y-14934272D02*
X6089508Y-14962843D01*
X6089508Y-14962843D02*
X6079984Y-15000938D01*
X6079984Y-15000938D02*
X6079984Y-15077129D01*
X6079984Y-15077129D02*
X6089508Y-15096176D01*
X6089508Y-15096176D02*
X6099032Y-15105700D01*
X6099032Y-15105700D02*
X6118080Y-15115224D01*
X6118080Y-15115224D02*
X6156175Y-15115224D01*
X6156175Y-15115224D02*
X6175223Y-15105700D01*
X6175223Y-15105700D02*
X6184746Y-15096176D01*
X6184746Y-15096176D02*
X6194270Y-15077129D01*
X6194270Y-15077129D02*
X6194270Y-15029510D01*
X6194270Y-15029510D02*
X6184746Y-15010462D01*
X6184746Y-15010462D02*
X6175223Y-15000938D01*
X6175223Y-15000938D02*
X6156175Y-14991414D01*
X6156175Y-14991414D02*
X6118080Y-14991414D01*
X6118080Y-14991414D02*
X6099032Y-15000938D01*
X6099032Y-15000938D02*
X6089508Y-15010462D01*
X6089508Y-15010462D02*
X6079984Y-15029510D01*
X6432365Y-15115224D02*
X6432365Y-14915224D01*
X6518080Y-15115224D02*
X6518080Y-15010462D01*
X6518080Y-15010462D02*
X6508556Y-14991414D01*
X6508556Y-14991414D02*
X6489508Y-14981891D01*
X6489508Y-14981891D02*
X6460937Y-14981891D01*
X6460937Y-14981891D02*
X6441889Y-14991414D01*
X6441889Y-14991414D02*
X6432365Y-15000938D01*
X6641889Y-15115224D02*
X6622842Y-15105700D01*
X6622842Y-15105700D02*
X6613318Y-15096176D01*
X6613318Y-15096176D02*
X6603794Y-15077129D01*
X6603794Y-15077129D02*
X6603794Y-15019986D01*
X6603794Y-15019986D02*
X6613318Y-15000938D01*
X6613318Y-15000938D02*
X6622842Y-14991414D01*
X6622842Y-14991414D02*
X6641889Y-14981891D01*
X6641889Y-14981891D02*
X6670461Y-14981891D01*
X6670461Y-14981891D02*
X6689508Y-14991414D01*
X6689508Y-14991414D02*
X6699032Y-15000938D01*
X6699032Y-15000938D02*
X6708556Y-15019986D01*
X6708556Y-15019986D02*
X6708556Y-15077129D01*
X6708556Y-15077129D02*
X6699032Y-15096176D01*
X6699032Y-15096176D02*
X6689508Y-15105700D01*
X6689508Y-15105700D02*
X6670461Y-15115224D01*
X6670461Y-15115224D02*
X6641889Y-15115224D01*
X6822842Y-15115224D02*
X6803794Y-15105700D01*
X6803794Y-15105700D02*
X6794270Y-15086652D01*
X6794270Y-15086652D02*
X6794270Y-14915224D01*
X6975223Y-15105700D02*
X6956175Y-15115224D01*
X6956175Y-15115224D02*
X6918080Y-15115224D01*
X6918080Y-15115224D02*
X6899032Y-15105700D01*
X6899032Y-15105700D02*
X6889508Y-15086652D01*
X6889508Y-15086652D02*
X6889508Y-15010462D01*
X6889508Y-15010462D02*
X6899032Y-14991414D01*
X6899032Y-14991414D02*
X6918080Y-14981891D01*
X6918080Y-14981891D02*
X6956175Y-14981891D01*
X6956175Y-14981891D02*
X6975223Y-14991414D01*
X6975223Y-14991414D02*
X6984746Y-15010462D01*
X6984746Y-15010462D02*
X6984746Y-15029510D01*
X6984746Y-15029510D02*
X6889508Y-15048557D01*
X7060937Y-15105700D02*
X7079985Y-15115224D01*
X7079985Y-15115224D02*
X7118080Y-15115224D01*
X7118080Y-15115224D02*
X7137127Y-15105700D01*
X7137127Y-15105700D02*
X7146651Y-15086652D01*
X7146651Y-15086652D02*
X7146651Y-15077129D01*
X7146651Y-15077129D02*
X7137127Y-15058081D01*
X7137127Y-15058081D02*
X7118080Y-15048557D01*
X7118080Y-15048557D02*
X7089508Y-15048557D01*
X7089508Y-15048557D02*
X7070461Y-15039033D01*
X7070461Y-15039033D02*
X7060937Y-15019986D01*
X7060937Y-15019986D02*
X7060937Y-15010462D01*
X7060937Y-15010462D02*
X7070461Y-14991414D01*
X7070461Y-14991414D02*
X7089508Y-14981891D01*
X7089508Y-14981891D02*
X7118080Y-14981891D01*
X7118080Y-14981891D02*
X7137127Y-14991414D01*
X7213318Y-15191414D02*
X7222842Y-15181891D01*
X7222842Y-15181891D02*
X7241889Y-15153319D01*
X7241889Y-15153319D02*
X7251413Y-15134272D01*
X7251413Y-15134272D02*
X7260937Y-15105700D01*
X7260937Y-15105700D02*
X7270461Y-15058081D01*
X7270461Y-15058081D02*
X7270461Y-15019986D01*
X7270461Y-15019986D02*
X7260937Y-14972367D01*
X7260937Y-14972367D02*
X7251413Y-14943795D01*
X7251413Y-14943795D02*
X7241889Y-14924748D01*
X7241889Y-14924748D02*
X7222842Y-14896176D01*
X7222842Y-14896176D02*
X7213318Y-14886652D01*
D10*
X2057303Y-15287740D02*
G75*
G02*
X1976023Y-15287740I-40640J0D01*
G01*
X1976023Y-15287740D02*
G75*
G02*
X2057303Y-15287740I40640J0D01*
G01*
D13*
X2356175Y-15179224D02*
X2375222Y-15179224D01*
X2375222Y-15179224D02*
X2394270Y-15188748D01*
X2394270Y-15188748D02*
X2403794Y-15198272D01*
X2403794Y-15198272D02*
X2413318Y-15217319D01*
X2413318Y-15217319D02*
X2422841Y-15255414D01*
X2422841Y-15255414D02*
X2422841Y-15303033D01*
X2422841Y-15303033D02*
X2413318Y-15341129D01*
X2413318Y-15341129D02*
X2403794Y-15360176D01*
X2403794Y-15360176D02*
X2394270Y-15369700D01*
X2394270Y-15369700D02*
X2375222Y-15379224D01*
X2375222Y-15379224D02*
X2356175Y-15379224D01*
X2356175Y-15379224D02*
X2337127Y-15369700D01*
X2337127Y-15369700D02*
X2327603Y-15360176D01*
X2327603Y-15360176D02*
X2318079Y-15341129D01*
X2318079Y-15341129D02*
X2308556Y-15303033D01*
X2308556Y-15303033D02*
X2308556Y-15255414D01*
X2308556Y-15255414D02*
X2318079Y-15217319D01*
X2318079Y-15217319D02*
X2327603Y-15198272D01*
X2327603Y-15198272D02*
X2337127Y-15188748D01*
X2337127Y-15188748D02*
X2356175Y-15179224D01*
X2508556Y-15360176D02*
X2518079Y-15369700D01*
X2518079Y-15369700D02*
X2508556Y-15379224D01*
X2508556Y-15379224D02*
X2499032Y-15369700D01*
X2499032Y-15369700D02*
X2508556Y-15360176D01*
X2508556Y-15360176D02*
X2508556Y-15379224D01*
X2632365Y-15264938D02*
X2613318Y-15255414D01*
X2613318Y-15255414D02*
X2603794Y-15245891D01*
X2603794Y-15245891D02*
X2594270Y-15226843D01*
X2594270Y-15226843D02*
X2594270Y-15217319D01*
X2594270Y-15217319D02*
X2603794Y-15198272D01*
X2603794Y-15198272D02*
X2613318Y-15188748D01*
X2613318Y-15188748D02*
X2632365Y-15179224D01*
X2632365Y-15179224D02*
X2670460Y-15179224D01*
X2670460Y-15179224D02*
X2689508Y-15188748D01*
X2689508Y-15188748D02*
X2699032Y-15198272D01*
X2699032Y-15198272D02*
X2708556Y-15217319D01*
X2708556Y-15217319D02*
X2708556Y-15226843D01*
X2708556Y-15226843D02*
X2699032Y-15245891D01*
X2699032Y-15245891D02*
X2689508Y-15255414D01*
X2689508Y-15255414D02*
X2670460Y-15264938D01*
X2670460Y-15264938D02*
X2632365Y-15264938D01*
X2632365Y-15264938D02*
X2613318Y-15274462D01*
X2613318Y-15274462D02*
X2603794Y-15283986D01*
X2603794Y-15283986D02*
X2594270Y-15303033D01*
X2594270Y-15303033D02*
X2594270Y-15341129D01*
X2594270Y-15341129D02*
X2603794Y-15360176D01*
X2603794Y-15360176D02*
X2613318Y-15369700D01*
X2613318Y-15369700D02*
X2632365Y-15379224D01*
X2632365Y-15379224D02*
X2670460Y-15379224D01*
X2670460Y-15379224D02*
X2689508Y-15369700D01*
X2689508Y-15369700D02*
X2699032Y-15360176D01*
X2699032Y-15360176D02*
X2708556Y-15341129D01*
X2708556Y-15341129D02*
X2708556Y-15303033D01*
X2708556Y-15303033D02*
X2699032Y-15283986D01*
X2699032Y-15283986D02*
X2689508Y-15274462D01*
X2689508Y-15274462D02*
X2670460Y-15264938D01*
X2899032Y-15379224D02*
X2784746Y-15379224D01*
X2841889Y-15379224D02*
X2841889Y-15179224D01*
X2841889Y-15179224D02*
X2822841Y-15207795D01*
X2822841Y-15207795D02*
X2803794Y-15226843D01*
X2803794Y-15226843D02*
X2784746Y-15236367D01*
X2965698Y-15179224D02*
X3089508Y-15179224D01*
X3089508Y-15179224D02*
X3022841Y-15255414D01*
X3022841Y-15255414D02*
X3051413Y-15255414D01*
X3051413Y-15255414D02*
X3070460Y-15264938D01*
X3070460Y-15264938D02*
X3079984Y-15274462D01*
X3079984Y-15274462D02*
X3089508Y-15293510D01*
X3089508Y-15293510D02*
X3089508Y-15341129D01*
X3089508Y-15341129D02*
X3079984Y-15360176D01*
X3079984Y-15360176D02*
X3070460Y-15369700D01*
X3070460Y-15369700D02*
X3051413Y-15379224D01*
X3051413Y-15379224D02*
X2994270Y-15379224D01*
X2994270Y-15379224D02*
X2975222Y-15369700D01*
X2975222Y-15369700D02*
X2965698Y-15360176D01*
X3175222Y-15379224D02*
X3175222Y-15245891D01*
X3175222Y-15264938D02*
X3184746Y-15255414D01*
X3184746Y-15255414D02*
X3203794Y-15245891D01*
X3203794Y-15245891D02*
X3232365Y-15245891D01*
X3232365Y-15245891D02*
X3251413Y-15255414D01*
X3251413Y-15255414D02*
X3260937Y-15274462D01*
X3260937Y-15274462D02*
X3260937Y-15379224D01*
X3260937Y-15274462D02*
X3270460Y-15255414D01*
X3270460Y-15255414D02*
X3289508Y-15245891D01*
X3289508Y-15245891D02*
X3318079Y-15245891D01*
X3318079Y-15245891D02*
X3337127Y-15255414D01*
X3337127Y-15255414D02*
X3346651Y-15274462D01*
X3346651Y-15274462D02*
X3346651Y-15379224D01*
X3441889Y-15379224D02*
X3441889Y-15245891D01*
X3441889Y-15264938D02*
X3451413Y-15255414D01*
X3451413Y-15255414D02*
X3470460Y-15245891D01*
X3470460Y-15245891D02*
X3499032Y-15245891D01*
X3499032Y-15245891D02*
X3518079Y-15255414D01*
X3518079Y-15255414D02*
X3527603Y-15274462D01*
X3527603Y-15274462D02*
X3527603Y-15379224D01*
X3527603Y-15274462D02*
X3537127Y-15255414D01*
X3537127Y-15255414D02*
X3556175Y-15245891D01*
X3556175Y-15245891D02*
X3584746Y-15245891D01*
X3584746Y-15245891D02*
X3603794Y-15255414D01*
X3603794Y-15255414D02*
X3613318Y-15274462D01*
X3613318Y-15274462D02*
X3613318Y-15379224D01*
X4003794Y-15169700D02*
X3832365Y-15426843D01*
X4260937Y-15179224D02*
X4279984Y-15179224D01*
X4279984Y-15179224D02*
X4299032Y-15188748D01*
X4299032Y-15188748D02*
X4308556Y-15198272D01*
X4308556Y-15198272D02*
X4318080Y-15217319D01*
X4318080Y-15217319D02*
X4327603Y-15255414D01*
X4327603Y-15255414D02*
X4327603Y-15303033D01*
X4327603Y-15303033D02*
X4318080Y-15341129D01*
X4318080Y-15341129D02*
X4308556Y-15360176D01*
X4308556Y-15360176D02*
X4299032Y-15369700D01*
X4299032Y-15369700D02*
X4279984Y-15379224D01*
X4279984Y-15379224D02*
X4260937Y-15379224D01*
X4260937Y-15379224D02*
X4241889Y-15369700D01*
X4241889Y-15369700D02*
X4232365Y-15360176D01*
X4232365Y-15360176D02*
X4222842Y-15341129D01*
X4222842Y-15341129D02*
X4213318Y-15303033D01*
X4213318Y-15303033D02*
X4213318Y-15255414D01*
X4213318Y-15255414D02*
X4222842Y-15217319D01*
X4222842Y-15217319D02*
X4232365Y-15198272D01*
X4232365Y-15198272D02*
X4241889Y-15188748D01*
X4241889Y-15188748D02*
X4260937Y-15179224D01*
X4413318Y-15360176D02*
X4422842Y-15369700D01*
X4422842Y-15369700D02*
X4413318Y-15379224D01*
X4413318Y-15379224D02*
X4403794Y-15369700D01*
X4403794Y-15369700D02*
X4413318Y-15360176D01*
X4413318Y-15360176D02*
X4413318Y-15379224D01*
X4546651Y-15179224D02*
X4565699Y-15179224D01*
X4565699Y-15179224D02*
X4584746Y-15188748D01*
X4584746Y-15188748D02*
X4594270Y-15198272D01*
X4594270Y-15198272D02*
X4603794Y-15217319D01*
X4603794Y-15217319D02*
X4613318Y-15255414D01*
X4613318Y-15255414D02*
X4613318Y-15303033D01*
X4613318Y-15303033D02*
X4603794Y-15341129D01*
X4603794Y-15341129D02*
X4594270Y-15360176D01*
X4594270Y-15360176D02*
X4584746Y-15369700D01*
X4584746Y-15369700D02*
X4565699Y-15379224D01*
X4565699Y-15379224D02*
X4546651Y-15379224D01*
X4546651Y-15379224D02*
X4527603Y-15369700D01*
X4527603Y-15369700D02*
X4518080Y-15360176D01*
X4518080Y-15360176D02*
X4508556Y-15341129D01*
X4508556Y-15341129D02*
X4499032Y-15303033D01*
X4499032Y-15303033D02*
X4499032Y-15255414D01*
X4499032Y-15255414D02*
X4508556Y-15217319D01*
X4508556Y-15217319D02*
X4518080Y-15198272D01*
X4518080Y-15198272D02*
X4527603Y-15188748D01*
X4527603Y-15188748D02*
X4546651Y-15179224D01*
X4679984Y-15179224D02*
X4803794Y-15179224D01*
X4803794Y-15179224D02*
X4737127Y-15255414D01*
X4737127Y-15255414D02*
X4765699Y-15255414D01*
X4765699Y-15255414D02*
X4784746Y-15264938D01*
X4784746Y-15264938D02*
X4794270Y-15274462D01*
X4794270Y-15274462D02*
X4803794Y-15293510D01*
X4803794Y-15293510D02*
X4803794Y-15341129D01*
X4803794Y-15341129D02*
X4794270Y-15360176D01*
X4794270Y-15360176D02*
X4784746Y-15369700D01*
X4784746Y-15369700D02*
X4765699Y-15379224D01*
X4765699Y-15379224D02*
X4708556Y-15379224D01*
X4708556Y-15379224D02*
X4689508Y-15369700D01*
X4689508Y-15369700D02*
X4679984Y-15360176D01*
X4879984Y-15198272D02*
X4889508Y-15188748D01*
X4889508Y-15188748D02*
X4908556Y-15179224D01*
X4908556Y-15179224D02*
X4956175Y-15179224D01*
X4956175Y-15179224D02*
X4975223Y-15188748D01*
X4975223Y-15188748D02*
X4984746Y-15198272D01*
X4984746Y-15198272D02*
X4994270Y-15217319D01*
X4994270Y-15217319D02*
X4994270Y-15236367D01*
X4994270Y-15236367D02*
X4984746Y-15264938D01*
X4984746Y-15264938D02*
X4870461Y-15379224D01*
X4870461Y-15379224D02*
X4994270Y-15379224D01*
X5118080Y-15179224D02*
X5137127Y-15179224D01*
X5137127Y-15179224D02*
X5156175Y-15188748D01*
X5156175Y-15188748D02*
X5165699Y-15198272D01*
X5165699Y-15198272D02*
X5175223Y-15217319D01*
X5175223Y-15217319D02*
X5184746Y-15255414D01*
X5184746Y-15255414D02*
X5184746Y-15303033D01*
X5184746Y-15303033D02*
X5175223Y-15341129D01*
X5175223Y-15341129D02*
X5165699Y-15360176D01*
X5165699Y-15360176D02*
X5156175Y-15369700D01*
X5156175Y-15369700D02*
X5137127Y-15379224D01*
X5137127Y-15379224D02*
X5118080Y-15379224D01*
X5118080Y-15379224D02*
X5099032Y-15369700D01*
X5099032Y-15369700D02*
X5089508Y-15360176D01*
X5089508Y-15360176D02*
X5079984Y-15341129D01*
X5079984Y-15341129D02*
X5070461Y-15303033D01*
X5070461Y-15303033D02*
X5070461Y-15255414D01*
X5070461Y-15255414D02*
X5079984Y-15217319D01*
X5079984Y-15217319D02*
X5089508Y-15198272D01*
X5089508Y-15198272D02*
X5099032Y-15188748D01*
X5099032Y-15188748D02*
X5118080Y-15179224D01*
X5260937Y-15179224D02*
X5260937Y-15217319D01*
X5337127Y-15179224D02*
X5337127Y-15217319D01*
X5632365Y-15455414D02*
X5622842Y-15445891D01*
X5622842Y-15445891D02*
X5603794Y-15417319D01*
X5603794Y-15417319D02*
X5594270Y-15398272D01*
X5594270Y-15398272D02*
X5584746Y-15369700D01*
X5584746Y-15369700D02*
X5575223Y-15322081D01*
X5575223Y-15322081D02*
X5575223Y-15283986D01*
X5575223Y-15283986D02*
X5584746Y-15236367D01*
X5584746Y-15236367D02*
X5594270Y-15207795D01*
X5594270Y-15207795D02*
X5603794Y-15188748D01*
X5603794Y-15188748D02*
X5622842Y-15160176D01*
X5622842Y-15160176D02*
X5632365Y-15150652D01*
X5699032Y-15198272D02*
X5708556Y-15188748D01*
X5708556Y-15188748D02*
X5727603Y-15179224D01*
X5727603Y-15179224D02*
X5775223Y-15179224D01*
X5775223Y-15179224D02*
X5794270Y-15188748D01*
X5794270Y-15188748D02*
X5803794Y-15198272D01*
X5803794Y-15198272D02*
X5813318Y-15217319D01*
X5813318Y-15217319D02*
X5813318Y-15236367D01*
X5813318Y-15236367D02*
X5803794Y-15264938D01*
X5803794Y-15264938D02*
X5689508Y-15379224D01*
X5689508Y-15379224D02*
X5813318Y-15379224D01*
X5927603Y-15264938D02*
X5908556Y-15255414D01*
X5908556Y-15255414D02*
X5899032Y-15245891D01*
X5899032Y-15245891D02*
X5889508Y-15226843D01*
X5889508Y-15226843D02*
X5889508Y-15217319D01*
X5889508Y-15217319D02*
X5899032Y-15198272D01*
X5899032Y-15198272D02*
X5908556Y-15188748D01*
X5908556Y-15188748D02*
X5927603Y-15179224D01*
X5927603Y-15179224D02*
X5965699Y-15179224D01*
X5965699Y-15179224D02*
X5984746Y-15188748D01*
X5984746Y-15188748D02*
X5994270Y-15198272D01*
X5994270Y-15198272D02*
X6003794Y-15217319D01*
X6003794Y-15217319D02*
X6003794Y-15226843D01*
X6003794Y-15226843D02*
X5994270Y-15245891D01*
X5994270Y-15245891D02*
X5984746Y-15255414D01*
X5984746Y-15255414D02*
X5965699Y-15264938D01*
X5965699Y-15264938D02*
X5927603Y-15264938D01*
X5927603Y-15264938D02*
X5908556Y-15274462D01*
X5908556Y-15274462D02*
X5899032Y-15283986D01*
X5899032Y-15283986D02*
X5889508Y-15303033D01*
X5889508Y-15303033D02*
X5889508Y-15341129D01*
X5889508Y-15341129D02*
X5899032Y-15360176D01*
X5899032Y-15360176D02*
X5908556Y-15369700D01*
X5908556Y-15369700D02*
X5927603Y-15379224D01*
X5927603Y-15379224D02*
X5965699Y-15379224D01*
X5965699Y-15379224D02*
X5984746Y-15369700D01*
X5984746Y-15369700D02*
X5994270Y-15360176D01*
X5994270Y-15360176D02*
X6003794Y-15341129D01*
X6003794Y-15341129D02*
X6003794Y-15303033D01*
X6003794Y-15303033D02*
X5994270Y-15283986D01*
X5994270Y-15283986D02*
X5984746Y-15274462D01*
X5984746Y-15274462D02*
X5965699Y-15264938D01*
X6241889Y-15379224D02*
X6241889Y-15179224D01*
X6327604Y-15379224D02*
X6327604Y-15274462D01*
X6327604Y-15274462D02*
X6318080Y-15255414D01*
X6318080Y-15255414D02*
X6299032Y-15245891D01*
X6299032Y-15245891D02*
X6270461Y-15245891D01*
X6270461Y-15245891D02*
X6251413Y-15255414D01*
X6251413Y-15255414D02*
X6241889Y-15264938D01*
X6451413Y-15379224D02*
X6432365Y-15369700D01*
X6432365Y-15369700D02*
X6422842Y-15360176D01*
X6422842Y-15360176D02*
X6413318Y-15341129D01*
X6413318Y-15341129D02*
X6413318Y-15283986D01*
X6413318Y-15283986D02*
X6422842Y-15264938D01*
X6422842Y-15264938D02*
X6432365Y-15255414D01*
X6432365Y-15255414D02*
X6451413Y-15245891D01*
X6451413Y-15245891D02*
X6479985Y-15245891D01*
X6479985Y-15245891D02*
X6499032Y-15255414D01*
X6499032Y-15255414D02*
X6508556Y-15264938D01*
X6508556Y-15264938D02*
X6518080Y-15283986D01*
X6518080Y-15283986D02*
X6518080Y-15341129D01*
X6518080Y-15341129D02*
X6508556Y-15360176D01*
X6508556Y-15360176D02*
X6499032Y-15369700D01*
X6499032Y-15369700D02*
X6479985Y-15379224D01*
X6479985Y-15379224D02*
X6451413Y-15379224D01*
X6632365Y-15379224D02*
X6613318Y-15369700D01*
X6613318Y-15369700D02*
X6603794Y-15350652D01*
X6603794Y-15350652D02*
X6603794Y-15179224D01*
X6784746Y-15369700D02*
X6765699Y-15379224D01*
X6765699Y-15379224D02*
X6727604Y-15379224D01*
X6727604Y-15379224D02*
X6708556Y-15369700D01*
X6708556Y-15369700D02*
X6699032Y-15350652D01*
X6699032Y-15350652D02*
X6699032Y-15274462D01*
X6699032Y-15274462D02*
X6708556Y-15255414D01*
X6708556Y-15255414D02*
X6727604Y-15245891D01*
X6727604Y-15245891D02*
X6765699Y-15245891D01*
X6765699Y-15245891D02*
X6784746Y-15255414D01*
X6784746Y-15255414D02*
X6794270Y-15274462D01*
X6794270Y-15274462D02*
X6794270Y-15293510D01*
X6794270Y-15293510D02*
X6699032Y-15312557D01*
X6870461Y-15369700D02*
X6889508Y-15379224D01*
X6889508Y-15379224D02*
X6927604Y-15379224D01*
X6927604Y-15379224D02*
X6946651Y-15369700D01*
X6946651Y-15369700D02*
X6956175Y-15350652D01*
X6956175Y-15350652D02*
X6956175Y-15341129D01*
X6956175Y-15341129D02*
X6946651Y-15322081D01*
X6946651Y-15322081D02*
X6927604Y-15312557D01*
X6927604Y-15312557D02*
X6899032Y-15312557D01*
X6899032Y-15312557D02*
X6879985Y-15303033D01*
X6879985Y-15303033D02*
X6870461Y-15283986D01*
X6870461Y-15283986D02*
X6870461Y-15274462D01*
X6870461Y-15274462D02*
X6879985Y-15255414D01*
X6879985Y-15255414D02*
X6899032Y-15245891D01*
X6899032Y-15245891D02*
X6927604Y-15245891D01*
X6927604Y-15245891D02*
X6946651Y-15255414D01*
X7022842Y-15455414D02*
X7032366Y-15445891D01*
X7032366Y-15445891D02*
X7051413Y-15417319D01*
X7051413Y-15417319D02*
X7060937Y-15398272D01*
X7060937Y-15398272D02*
X7070461Y-15369700D01*
X7070461Y-15369700D02*
X7079985Y-15322081D01*
X7079985Y-15322081D02*
X7079985Y-15283986D01*
X7079985Y-15283986D02*
X7070461Y-15236367D01*
X7070461Y-15236367D02*
X7060937Y-15207795D01*
X7060937Y-15207795D02*
X7051413Y-15188748D01*
X7051413Y-15188748D02*
X7032366Y-15160176D01*
X7032366Y-15160176D02*
X7022842Y-15150652D01*
D14*
X1992303Y-15486740D02*
X1992303Y-15616740D01*
X1927303Y-15551740D02*
X2057303Y-15551740D01*
D13*
X2422841Y-15643224D02*
X2308556Y-15643224D01*
X2365698Y-15643224D02*
X2365698Y-15443224D01*
X2365698Y-15443224D02*
X2346651Y-15471795D01*
X2346651Y-15471795D02*
X2327603Y-15490843D01*
X2327603Y-15490843D02*
X2308556Y-15500367D01*
X2508556Y-15624176D02*
X2518079Y-15633700D01*
X2518079Y-15633700D02*
X2508556Y-15643224D01*
X2508556Y-15643224D02*
X2499032Y-15633700D01*
X2499032Y-15633700D02*
X2508556Y-15624176D01*
X2508556Y-15624176D02*
X2508556Y-15643224D01*
X2584746Y-15443224D02*
X2708556Y-15443224D01*
X2708556Y-15443224D02*
X2641889Y-15519414D01*
X2641889Y-15519414D02*
X2670460Y-15519414D01*
X2670460Y-15519414D02*
X2689508Y-15528938D01*
X2689508Y-15528938D02*
X2699032Y-15538462D01*
X2699032Y-15538462D02*
X2708556Y-15557510D01*
X2708556Y-15557510D02*
X2708556Y-15605129D01*
X2708556Y-15605129D02*
X2699032Y-15624176D01*
X2699032Y-15624176D02*
X2689508Y-15633700D01*
X2689508Y-15633700D02*
X2670460Y-15643224D01*
X2670460Y-15643224D02*
X2613318Y-15643224D01*
X2613318Y-15643224D02*
X2594270Y-15633700D01*
X2594270Y-15633700D02*
X2584746Y-15624176D01*
X2832365Y-15443224D02*
X2851413Y-15443224D01*
X2851413Y-15443224D02*
X2870460Y-15452748D01*
X2870460Y-15452748D02*
X2879984Y-15462272D01*
X2879984Y-15462272D02*
X2889508Y-15481319D01*
X2889508Y-15481319D02*
X2899032Y-15519414D01*
X2899032Y-15519414D02*
X2899032Y-15567033D01*
X2899032Y-15567033D02*
X2889508Y-15605129D01*
X2889508Y-15605129D02*
X2879984Y-15624176D01*
X2879984Y-15624176D02*
X2870460Y-15633700D01*
X2870460Y-15633700D02*
X2851413Y-15643224D01*
X2851413Y-15643224D02*
X2832365Y-15643224D01*
X2832365Y-15643224D02*
X2813317Y-15633700D01*
X2813317Y-15633700D02*
X2803794Y-15624176D01*
X2803794Y-15624176D02*
X2794270Y-15605129D01*
X2794270Y-15605129D02*
X2784746Y-15567033D01*
X2784746Y-15567033D02*
X2784746Y-15519414D01*
X2784746Y-15519414D02*
X2794270Y-15481319D01*
X2794270Y-15481319D02*
X2803794Y-15462272D01*
X2803794Y-15462272D02*
X2813317Y-15452748D01*
X2813317Y-15452748D02*
X2832365Y-15443224D01*
X3022841Y-15443224D02*
X3041889Y-15443224D01*
X3041889Y-15443224D02*
X3060937Y-15452748D01*
X3060937Y-15452748D02*
X3070460Y-15462272D01*
X3070460Y-15462272D02*
X3079984Y-15481319D01*
X3079984Y-15481319D02*
X3089508Y-15519414D01*
X3089508Y-15519414D02*
X3089508Y-15567033D01*
X3089508Y-15567033D02*
X3079984Y-15605129D01*
X3079984Y-15605129D02*
X3070460Y-15624176D01*
X3070460Y-15624176D02*
X3060937Y-15633700D01*
X3060937Y-15633700D02*
X3041889Y-15643224D01*
X3041889Y-15643224D02*
X3022841Y-15643224D01*
X3022841Y-15643224D02*
X3003794Y-15633700D01*
X3003794Y-15633700D02*
X2994270Y-15624176D01*
X2994270Y-15624176D02*
X2984746Y-15605129D01*
X2984746Y-15605129D02*
X2975222Y-15567033D01*
X2975222Y-15567033D02*
X2975222Y-15519414D01*
X2975222Y-15519414D02*
X2984746Y-15481319D01*
X2984746Y-15481319D02*
X2994270Y-15462272D01*
X2994270Y-15462272D02*
X3003794Y-15452748D01*
X3003794Y-15452748D02*
X3022841Y-15443224D01*
X3175222Y-15643224D02*
X3175222Y-15509891D01*
X3175222Y-15528938D02*
X3184746Y-15519414D01*
X3184746Y-15519414D02*
X3203794Y-15509891D01*
X3203794Y-15509891D02*
X3232365Y-15509891D01*
X3232365Y-15509891D02*
X3251413Y-15519414D01*
X3251413Y-15519414D02*
X3260937Y-15538462D01*
X3260937Y-15538462D02*
X3260937Y-15643224D01*
X3260937Y-15538462D02*
X3270460Y-15519414D01*
X3270460Y-15519414D02*
X3289508Y-15509891D01*
X3289508Y-15509891D02*
X3318079Y-15509891D01*
X3318079Y-15509891D02*
X3337127Y-15519414D01*
X3337127Y-15519414D02*
X3346651Y-15538462D01*
X3346651Y-15538462D02*
X3346651Y-15643224D01*
X3441889Y-15643224D02*
X3441889Y-15509891D01*
X3441889Y-15528938D02*
X3451413Y-15519414D01*
X3451413Y-15519414D02*
X3470460Y-15509891D01*
X3470460Y-15509891D02*
X3499032Y-15509891D01*
X3499032Y-15509891D02*
X3518079Y-15519414D01*
X3518079Y-15519414D02*
X3527603Y-15538462D01*
X3527603Y-15538462D02*
X3527603Y-15643224D01*
X3527603Y-15538462D02*
X3537127Y-15519414D01*
X3537127Y-15519414D02*
X3556175Y-15509891D01*
X3556175Y-15509891D02*
X3584746Y-15509891D01*
X3584746Y-15509891D02*
X3603794Y-15519414D01*
X3603794Y-15519414D02*
X3613318Y-15538462D01*
X3613318Y-15538462D02*
X3613318Y-15643224D01*
X4003794Y-15433700D02*
X3832365Y-15690843D01*
X4260937Y-15443224D02*
X4279984Y-15443224D01*
X4279984Y-15443224D02*
X4299032Y-15452748D01*
X4299032Y-15452748D02*
X4308556Y-15462272D01*
X4308556Y-15462272D02*
X4318080Y-15481319D01*
X4318080Y-15481319D02*
X4327603Y-15519414D01*
X4327603Y-15519414D02*
X4327603Y-15567033D01*
X4327603Y-15567033D02*
X4318080Y-15605129D01*
X4318080Y-15605129D02*
X4308556Y-15624176D01*
X4308556Y-15624176D02*
X4299032Y-15633700D01*
X4299032Y-15633700D02*
X4279984Y-15643224D01*
X4279984Y-15643224D02*
X4260937Y-15643224D01*
X4260937Y-15643224D02*
X4241889Y-15633700D01*
X4241889Y-15633700D02*
X4232365Y-15624176D01*
X4232365Y-15624176D02*
X4222842Y-15605129D01*
X4222842Y-15605129D02*
X4213318Y-15567033D01*
X4213318Y-15567033D02*
X4213318Y-15519414D01*
X4213318Y-15519414D02*
X4222842Y-15481319D01*
X4222842Y-15481319D02*
X4232365Y-15462272D01*
X4232365Y-15462272D02*
X4241889Y-15452748D01*
X4241889Y-15452748D02*
X4260937Y-15443224D01*
X4413318Y-15624176D02*
X4422842Y-15633700D01*
X4422842Y-15633700D02*
X4413318Y-15643224D01*
X4413318Y-15643224D02*
X4403794Y-15633700D01*
X4403794Y-15633700D02*
X4413318Y-15624176D01*
X4413318Y-15624176D02*
X4413318Y-15643224D01*
X4546651Y-15443224D02*
X4565699Y-15443224D01*
X4565699Y-15443224D02*
X4584746Y-15452748D01*
X4584746Y-15452748D02*
X4594270Y-15462272D01*
X4594270Y-15462272D02*
X4603794Y-15481319D01*
X4603794Y-15481319D02*
X4613318Y-15519414D01*
X4613318Y-15519414D02*
X4613318Y-15567033D01*
X4613318Y-15567033D02*
X4603794Y-15605129D01*
X4603794Y-15605129D02*
X4594270Y-15624176D01*
X4594270Y-15624176D02*
X4584746Y-15633700D01*
X4584746Y-15633700D02*
X4565699Y-15643224D01*
X4565699Y-15643224D02*
X4546651Y-15643224D01*
X4546651Y-15643224D02*
X4527603Y-15633700D01*
X4527603Y-15633700D02*
X4518080Y-15624176D01*
X4518080Y-15624176D02*
X4508556Y-15605129D01*
X4508556Y-15605129D02*
X4499032Y-15567033D01*
X4499032Y-15567033D02*
X4499032Y-15519414D01*
X4499032Y-15519414D02*
X4508556Y-15481319D01*
X4508556Y-15481319D02*
X4518080Y-15462272D01*
X4518080Y-15462272D02*
X4527603Y-15452748D01*
X4527603Y-15452748D02*
X4546651Y-15443224D01*
X4794270Y-15443224D02*
X4699032Y-15443224D01*
X4699032Y-15443224D02*
X4689508Y-15538462D01*
X4689508Y-15538462D02*
X4699032Y-15528938D01*
X4699032Y-15528938D02*
X4718080Y-15519414D01*
X4718080Y-15519414D02*
X4765699Y-15519414D01*
X4765699Y-15519414D02*
X4784746Y-15528938D01*
X4784746Y-15528938D02*
X4794270Y-15538462D01*
X4794270Y-15538462D02*
X4803794Y-15557510D01*
X4803794Y-15557510D02*
X4803794Y-15605129D01*
X4803794Y-15605129D02*
X4794270Y-15624176D01*
X4794270Y-15624176D02*
X4784746Y-15633700D01*
X4784746Y-15633700D02*
X4765699Y-15643224D01*
X4765699Y-15643224D02*
X4718080Y-15643224D01*
X4718080Y-15643224D02*
X4699032Y-15633700D01*
X4699032Y-15633700D02*
X4689508Y-15624176D01*
X4994270Y-15643224D02*
X4879984Y-15643224D01*
X4937127Y-15643224D02*
X4937127Y-15443224D01*
X4937127Y-15443224D02*
X4918080Y-15471795D01*
X4918080Y-15471795D02*
X4899032Y-15490843D01*
X4899032Y-15490843D02*
X4879984Y-15500367D01*
X5070461Y-15462272D02*
X5079984Y-15452748D01*
X5079984Y-15452748D02*
X5099032Y-15443224D01*
X5099032Y-15443224D02*
X5146651Y-15443224D01*
X5146651Y-15443224D02*
X5165699Y-15452748D01*
X5165699Y-15452748D02*
X5175223Y-15462272D01*
X5175223Y-15462272D02*
X5184746Y-15481319D01*
X5184746Y-15481319D02*
X5184746Y-15500367D01*
X5184746Y-15500367D02*
X5175223Y-15528938D01*
X5175223Y-15528938D02*
X5060937Y-15643224D01*
X5060937Y-15643224D02*
X5184746Y-15643224D01*
X5260937Y-15443224D02*
X5260937Y-15481319D01*
X5337127Y-15443224D02*
X5337127Y-15481319D01*
X5632365Y-15719414D02*
X5622842Y-15709891D01*
X5622842Y-15709891D02*
X5603794Y-15681319D01*
X5603794Y-15681319D02*
X5594270Y-15662272D01*
X5594270Y-15662272D02*
X5584746Y-15633700D01*
X5584746Y-15633700D02*
X5575223Y-15586081D01*
X5575223Y-15586081D02*
X5575223Y-15547986D01*
X5575223Y-15547986D02*
X5584746Y-15500367D01*
X5584746Y-15500367D02*
X5594270Y-15471795D01*
X5594270Y-15471795D02*
X5603794Y-15452748D01*
X5603794Y-15452748D02*
X5622842Y-15424176D01*
X5622842Y-15424176D02*
X5632365Y-15414652D01*
X5699032Y-15462272D02*
X5708556Y-15452748D01*
X5708556Y-15452748D02*
X5727603Y-15443224D01*
X5727603Y-15443224D02*
X5775223Y-15443224D01*
X5775223Y-15443224D02*
X5794270Y-15452748D01*
X5794270Y-15452748D02*
X5803794Y-15462272D01*
X5803794Y-15462272D02*
X5813318Y-15481319D01*
X5813318Y-15481319D02*
X5813318Y-15500367D01*
X5813318Y-15500367D02*
X5803794Y-15528938D01*
X5803794Y-15528938D02*
X5689508Y-15643224D01*
X5689508Y-15643224D02*
X5813318Y-15643224D01*
X6051413Y-15643224D02*
X6051413Y-15443224D01*
X6137127Y-15643224D02*
X6137127Y-15538462D01*
X6137127Y-15538462D02*
X6127604Y-15519414D01*
X6127604Y-15519414D02*
X6108556Y-15509891D01*
X6108556Y-15509891D02*
X6079984Y-15509891D01*
X6079984Y-15509891D02*
X6060937Y-15519414D01*
X6060937Y-15519414D02*
X6051413Y-15528938D01*
X6260937Y-15643224D02*
X6241889Y-15633700D01*
X6241889Y-15633700D02*
X6232365Y-15624176D01*
X6232365Y-15624176D02*
X6222842Y-15605129D01*
X6222842Y-15605129D02*
X6222842Y-15547986D01*
X6222842Y-15547986D02*
X6232365Y-15528938D01*
X6232365Y-15528938D02*
X6241889Y-15519414D01*
X6241889Y-15519414D02*
X6260937Y-15509891D01*
X6260937Y-15509891D02*
X6289508Y-15509891D01*
X6289508Y-15509891D02*
X6308556Y-15519414D01*
X6308556Y-15519414D02*
X6318080Y-15528938D01*
X6318080Y-15528938D02*
X6327604Y-15547986D01*
X6327604Y-15547986D02*
X6327604Y-15605129D01*
X6327604Y-15605129D02*
X6318080Y-15624176D01*
X6318080Y-15624176D02*
X6308556Y-15633700D01*
X6308556Y-15633700D02*
X6289508Y-15643224D01*
X6289508Y-15643224D02*
X6260937Y-15643224D01*
X6441889Y-15643224D02*
X6422842Y-15633700D01*
X6422842Y-15633700D02*
X6413318Y-15614652D01*
X6413318Y-15614652D02*
X6413318Y-15443224D01*
X6594270Y-15633700D02*
X6575223Y-15643224D01*
X6575223Y-15643224D02*
X6537127Y-15643224D01*
X6537127Y-15643224D02*
X6518080Y-15633700D01*
X6518080Y-15633700D02*
X6508556Y-15614652D01*
X6508556Y-15614652D02*
X6508556Y-15538462D01*
X6508556Y-15538462D02*
X6518080Y-15519414D01*
X6518080Y-15519414D02*
X6537127Y-15509891D01*
X6537127Y-15509891D02*
X6575223Y-15509891D01*
X6575223Y-15509891D02*
X6594270Y-15519414D01*
X6594270Y-15519414D02*
X6603794Y-15538462D01*
X6603794Y-15538462D02*
X6603794Y-15557510D01*
X6603794Y-15557510D02*
X6508556Y-15576557D01*
X6679985Y-15633700D02*
X6699032Y-15643224D01*
X6699032Y-15643224D02*
X6737127Y-15643224D01*
X6737127Y-15643224D02*
X6756175Y-15633700D01*
X6756175Y-15633700D02*
X6765699Y-15614652D01*
X6765699Y-15614652D02*
X6765699Y-15605129D01*
X6765699Y-15605129D02*
X6756175Y-15586081D01*
X6756175Y-15586081D02*
X6737127Y-15576557D01*
X6737127Y-15576557D02*
X6708556Y-15576557D01*
X6708556Y-15576557D02*
X6689508Y-15567033D01*
X6689508Y-15567033D02*
X6679985Y-15547986D01*
X6679985Y-15547986D02*
X6679985Y-15538462D01*
X6679985Y-15538462D02*
X6689508Y-15519414D01*
X6689508Y-15519414D02*
X6708556Y-15509891D01*
X6708556Y-15509891D02*
X6737127Y-15509891D01*
X6737127Y-15509891D02*
X6756175Y-15519414D01*
X6832366Y-15719414D02*
X6841889Y-15709891D01*
X6841889Y-15709891D02*
X6860937Y-15681319D01*
X6860937Y-15681319D02*
X6870461Y-15662272D01*
X6870461Y-15662272D02*
X6879985Y-15633700D01*
X6879985Y-15633700D02*
X6889508Y-15586081D01*
X6889508Y-15586081D02*
X6889508Y-15547986D01*
X6889508Y-15547986D02*
X6879985Y-15500367D01*
X6879985Y-15500367D02*
X6870461Y-15471795D01*
X6870461Y-15471795D02*
X6860937Y-15452748D01*
X6860937Y-15452748D02*
X6841889Y-15424176D01*
X6841889Y-15424176D02*
X6832366Y-15414652D01*
M02*
