G04 #@! TF.GenerationSoftware,KiCad,Pcbnew,10.0.3*
G04 #@! TF.CreationDate,2026-07-21T08:44:27+09:00*
G04 #@! TF.ProjectId,mami,6d616d69-2e6b-4696-9361-645f70636258,rev?*
G04 #@! TF.SameCoordinates,Original*
G04 #@! TF.FileFunction,Profile,NP*
%FSLAX46Y46*%
G04 Gerber Fmt 4.6, Leading zero omitted, Abs format (unit mm)*
G04 Created by KiCad (PCBNEW 10.0.3) date 2026-07-21 08:44:27*
%MOMM*%
%LPD*%
G01*
G04 APERTURE LIST*
G04 #@! TA.AperFunction,Profile*
%ADD10C,0.100000*%
G04 #@! TD*
%ADD11C,0.050000*%
G04 #@! TA.AperFunction,Profile*
%ADD12C,0.050000*%
G04 #@! TD*
G04 #@! TA.AperFunction,Profile*
%ADD13C,0.120000*%
G04 #@! TD*
G04 APERTURE END LIST*
D10*
X20623026Y-56735753D02*
G75*
G02*
X21363614Y-55995166I740584J3D01*
G01*
X20623026Y-115151743D02*
X20623026Y-56735753D01*
X21363614Y-55995165D02*
X54312153Y-55995165D01*
X21623026Y-116151743D02*
G75*
G02*
X20622957Y-115151743I-26J1000043D01*
G01*
X21623026Y-116151743D02*
X55890171Y-116151743D01*
X54312153Y-55995165D02*
G75*
G02*
X55300683Y-56843638I47J-1000035D01*
G01*
D11*
X55076900Y-55025500D02*
X55076900Y-55025500D01*
D10*
X55890171Y-116151743D02*
G75*
G02*
X56890157Y-117151743I29J-999957D01*
G01*
X56890171Y-132653438D02*
X56890171Y-117151743D01*
X57811741Y-133650358D02*
G75*
G02*
X56890159Y-132653438I78459J996958D01*
G01*
X59847501Y-56843650D02*
G75*
G02*
X55300607Y-56843650I-2273447J348486D01*
G01*
X59847501Y-56843650D02*
G75*
G02*
X60835956Y-55995151I988499J-151550D01*
G01*
X60835956Y-55995165D02*
X61038691Y-55995165D01*
X61038691Y-55995165D02*
X136479878Y-66722109D01*
D11*
X63186900Y-55065500D02*
X63186900Y-55065500D01*
D10*
X75879095Y-135071759D02*
X57811741Y-133650358D01*
X136479878Y-66722109D02*
X156547940Y-66722109D01*
X137175059Y-143787401D02*
X75879095Y-135071759D01*
D12*
X142470000Y-101980000D02*
X150470000Y-101980000D01*
X150470000Y-123980000D01*
X142470000Y-123980000D01*
X142470000Y-101980000D01*
D10*
X143252008Y-143787401D02*
X137175059Y-143787401D01*
X144240463Y-142938917D02*
G75*
G02*
X143252008Y-143787408I-988463J151517D01*
G01*
X144240463Y-142938917D02*
G75*
G02*
X148787355Y-142938917I2273446J-348483D01*
G01*
X149775810Y-143787402D02*
G75*
G02*
X148787344Y-142938919I-10J1000002D01*
G01*
X155852760Y-143787402D02*
X149775810Y-143787402D01*
X156547940Y-66722109D02*
X231989126Y-55995164D01*
X217148724Y-135071758D02*
X155852760Y-143787402D01*
X231989126Y-55995164D02*
X232166943Y-55995168D01*
X232166943Y-55995168D02*
G75*
G02*
X233155386Y-56843678I-43J-1000032D01*
G01*
X235216312Y-133650109D02*
X217148724Y-135071758D01*
X236137869Y-117151741D02*
X236137869Y-132653191D01*
X236137869Y-117151741D02*
G75*
G02*
X237137869Y-116151669I1000031J41D01*
G01*
X236137869Y-132653191D02*
G75*
G02*
X235216310Y-133650083I-1000069J91D01*
G01*
X237702267Y-56843805D02*
G75*
G02*
X233155315Y-56843689I-2273467J348505D01*
G01*
X237702267Y-56843805D02*
G75*
G02*
X238690746Y-55995410I988433J-151595D01*
G01*
X238690746Y-55995347D02*
X271404818Y-55996242D01*
X271404791Y-116151741D02*
X237137869Y-116151741D01*
X271404818Y-55996242D02*
G75*
G02*
X272404758Y-56996242I-18J-999958D01*
G01*
X272404791Y-56996242D02*
X272404791Y-115151741D01*
X272404791Y-115151741D02*
G75*
G02*
X271404791Y-116151791I-999991J-59D01*
G01*
D13*
X47020000Y-91630000D02*
X50520000Y-91630000D01*
X47020000Y-94830000D02*
X47020000Y-91630000D01*
X50520000Y-91630000D02*
X50520000Y-94830000D01*
X50520000Y-94830000D02*
X47020000Y-94830000D01*
X27970000Y-91630000D02*
X31470000Y-91630000D01*
X27970000Y-94830000D02*
X27970000Y-91630000D01*
X31470000Y-91630000D02*
X31470000Y-94830000D01*
X31470000Y-94830000D02*
X27970000Y-94830000D01*
X103962871Y-98255893D02*
X104413755Y-95087817D01*
X104413755Y-95087817D02*
X107878837Y-95580971D01*
X107427953Y-98749047D02*
X103962871Y-98255893D01*
X107878837Y-95580971D02*
X107427953Y-98749047D01*
X122832970Y-120177593D02*
X123283854Y-117009517D01*
X123283854Y-117009517D02*
X126748936Y-117502671D01*
X126298052Y-120670747D02*
X122832970Y-120177593D01*
X126748936Y-117502671D02*
X126298052Y-120670747D01*
X85112970Y-114811593D02*
X85563854Y-111643517D01*
X85563854Y-111643517D02*
X89028936Y-112136671D01*
X88578052Y-115304747D02*
X85112970Y-114811593D01*
X89028936Y-112136671D02*
X88578052Y-115304747D01*
X242570000Y-72570000D02*
X246070000Y-72570000D01*
X242570000Y-75770000D02*
X242570000Y-72570000D01*
X246070000Y-72570000D02*
X246070000Y-75770000D01*
X246070000Y-75770000D02*
X242570000Y-75770000D01*
X166151064Y-79016671D02*
X169616146Y-78523517D01*
X166601948Y-82184747D02*
X166151064Y-79016671D01*
X169616146Y-78523517D02*
X170067030Y-81691593D01*
X170067030Y-81691593D02*
X166601948Y-82184747D01*
X185041869Y-76332508D02*
X188506951Y-75839354D01*
X185492753Y-79500584D02*
X185041869Y-76332508D01*
X188506951Y-75839354D02*
X188957835Y-79007430D01*
X188957835Y-79007430D02*
X185492753Y-79500584D01*
X116902970Y-138561593D02*
X117353854Y-135393517D01*
X117353854Y-135393517D02*
X120818936Y-135886671D01*
X120368052Y-139054747D02*
X116902970Y-138561593D01*
X120818936Y-135886671D02*
X120368052Y-139054747D01*
X204001064Y-112126671D02*
X207466146Y-111633517D01*
X204451948Y-115294747D02*
X204001064Y-112126671D01*
X207466146Y-111633517D02*
X207917030Y-114801593D01*
X207917030Y-114801593D02*
X204451948Y-115294747D01*
X104102970Y-79051593D02*
X104553854Y-75883517D01*
X104553854Y-75883517D02*
X108018936Y-76376671D01*
X107568052Y-79544747D02*
X104102970Y-79051593D01*
X108018936Y-76376671D02*
X107568052Y-79544747D01*
X166281064Y-117495008D02*
X169746146Y-117001854D01*
X166731948Y-120663084D02*
X166281064Y-117495008D01*
X169746146Y-117001854D02*
X170197030Y-120169930D01*
X170197030Y-120169930D02*
X166731948Y-120663084D01*
X172201064Y-135886671D02*
X175666146Y-135393517D01*
X172651948Y-139054747D02*
X172201064Y-135886671D01*
X175666146Y-135393517D02*
X176117030Y-138561593D01*
X176117030Y-138561593D02*
X172651948Y-139054747D01*
X86262970Y-134181593D02*
X86713854Y-131013517D01*
X86713854Y-131013517D02*
X90178936Y-131506671D01*
X89728052Y-134674747D02*
X86262970Y-134181593D01*
X90178936Y-131506671D02*
X89728052Y-134674747D01*
X242570000Y-110630000D02*
X246070000Y-110630000D01*
X242570000Y-113830000D02*
X242570000Y-110630000D01*
X246070000Y-110630000D02*
X246070000Y-113830000D01*
X246070000Y-113830000D02*
X242570000Y-113830000D01*
X122962970Y-81731593D02*
X123413854Y-78563517D01*
X123413854Y-78563517D02*
X126878936Y-79056671D01*
X126428052Y-82224747D02*
X122962970Y-81731593D01*
X126878936Y-79056671D02*
X126428052Y-82224747D01*
X47010000Y-110670000D02*
X50510000Y-110670000D01*
X47010000Y-113870000D02*
X47010000Y-110670000D01*
X50510000Y-110670000D02*
X50510000Y-113870000D01*
X50510000Y-113870000D02*
X47010000Y-113870000D01*
X166281064Y-98266671D02*
X169746146Y-97773517D01*
X166731948Y-101434747D02*
X166281064Y-98266671D01*
X169746146Y-97773517D02*
X170197030Y-100941593D01*
X170197030Y-100941593D02*
X166731948Y-101434747D01*
X204012017Y-92868439D02*
X207477099Y-92375285D01*
X204462901Y-96036515D02*
X204012017Y-92868439D01*
X207477099Y-92375285D02*
X207927983Y-95543361D01*
X207927983Y-95543361D02*
X204462901Y-96036515D01*
X261620000Y-110630000D02*
X265120000Y-110630000D01*
X261620000Y-113830000D02*
X261620000Y-110630000D01*
X265120000Y-110630000D02*
X265120000Y-113830000D01*
X265120000Y-113830000D02*
X261620000Y-113830000D01*
X47000000Y-72570000D02*
X50500000Y-72570000D01*
X47000000Y-75770000D02*
X47000000Y-72570000D01*
X50500000Y-72570000D02*
X50500000Y-75770000D01*
X50500000Y-75770000D02*
X47000000Y-75770000D01*
X261620000Y-72570000D02*
X265120000Y-72570000D01*
X261620000Y-75770000D02*
X261620000Y-72570000D01*
X265120000Y-72570000D02*
X265120000Y-75770000D01*
X265120000Y-75770000D02*
X261620000Y-75770000D01*
X64842408Y-131901026D02*
X65087909Y-128710457D01*
X65087909Y-128710457D02*
X68577592Y-128978974D01*
X68332091Y-132169543D02*
X64842408Y-131901026D01*
X68577592Y-128978974D02*
X68332091Y-132169543D01*
X261630000Y-91600000D02*
X265130000Y-91600000D01*
X261630000Y-94800000D02*
X261630000Y-91600000D01*
X265130000Y-91600000D02*
X265130000Y-94800000D01*
X265130000Y-94800000D02*
X261630000Y-94800000D01*
X66067057Y-93652121D02*
X66312559Y-90461552D01*
X66312559Y-90461552D02*
X69802243Y-90730069D01*
X69556741Y-93920638D02*
X66067057Y-93652121D01*
X69802243Y-90730069D02*
X69556741Y-93920638D01*
X223232408Y-90688974D02*
X226722091Y-90420457D01*
X223477909Y-93879543D02*
X223232408Y-90688974D01*
X226722091Y-90420457D02*
X226967592Y-93611026D01*
X226967592Y-93611026D02*
X223477909Y-93879543D01*
X242580000Y-91600000D02*
X246080000Y-91600000D01*
X242580000Y-94800000D02*
X242580000Y-91600000D01*
X246080000Y-91600000D02*
X246080000Y-94800000D01*
X246080000Y-94800000D02*
X242580000Y-94800000D01*
X202861064Y-131516671D02*
X206326146Y-131023517D01*
X203311948Y-134684747D02*
X202861064Y-131516671D01*
X206326146Y-131023517D02*
X206777030Y-134191593D01*
X206777030Y-134191593D02*
X203311948Y-134684747D01*
X66112679Y-112935510D02*
X66358180Y-109744941D01*
X66358180Y-109744941D02*
X69847863Y-110013458D01*
X69602362Y-113204027D02*
X66112679Y-112935510D01*
X69847863Y-110013458D02*
X69602362Y-113204027D01*
X223277757Y-109950069D02*
X226767440Y-109681552D01*
X223523258Y-113140638D02*
X223277757Y-109950069D01*
X226767440Y-109681552D02*
X227012941Y-112872121D01*
X227012941Y-112872121D02*
X223523258Y-113140638D01*
X103972970Y-117497593D02*
X104423854Y-114329517D01*
X104423854Y-114329517D02*
X107888936Y-114822671D01*
X107438052Y-117990747D02*
X103972970Y-117497593D01*
X107888936Y-114822671D02*
X107438052Y-117990747D01*
X223122408Y-71438974D02*
X226612091Y-71170457D01*
X223367909Y-74629543D02*
X223122408Y-71438974D01*
X226612091Y-71170457D02*
X226857592Y-74361026D01*
X226857592Y-74361026D02*
X223367909Y-74629543D01*
X185141064Y-95566671D02*
X188606146Y-95073517D01*
X185591948Y-98734747D02*
X185141064Y-95566671D01*
X188606146Y-95073517D02*
X189057030Y-98241593D01*
X189057030Y-98241593D02*
X185591948Y-98734747D01*
X185141162Y-114810840D02*
X188606244Y-114317686D01*
X185592046Y-117978916D02*
X185141162Y-114810840D01*
X188606244Y-114317686D02*
X189057128Y-117485762D01*
X189057128Y-117485762D02*
X185592046Y-117978916D01*
X66252679Y-74395510D02*
X66498180Y-71204941D01*
X66498180Y-71204941D02*
X69987863Y-71473458D01*
X69742362Y-74664027D02*
X66252679Y-74395510D01*
X69987863Y-71473458D02*
X69742362Y-74664027D01*
X27950000Y-72570000D02*
X31450000Y-72570000D01*
X27950000Y-75770000D02*
X27950000Y-72570000D01*
X31450000Y-72570000D02*
X31450000Y-75770000D01*
X31450000Y-75770000D02*
X27950000Y-75770000D01*
X224502408Y-128948974D02*
X227992091Y-128680457D01*
X224747909Y-132139543D02*
X224502408Y-128948974D01*
X227992091Y-128680457D02*
X228237592Y-131871026D01*
X228237592Y-131871026D02*
X224747909Y-132139543D01*
X122822970Y-100939993D02*
X123273854Y-97771917D01*
X123273854Y-97771917D02*
X126738936Y-98265071D01*
X126288052Y-101433147D02*
X122822970Y-100939993D01*
X126738936Y-98265071D02*
X126288052Y-101433147D01*
X27960000Y-110670000D02*
X31460000Y-110670000D01*
X27960000Y-113870000D02*
X27960000Y-110670000D01*
X31460000Y-110670000D02*
X31460000Y-113870000D01*
X31460000Y-113870000D02*
X27960000Y-113870000D01*
X85242970Y-76361593D02*
X85693854Y-73193517D01*
X85693854Y-73193517D02*
X89158936Y-73686671D01*
X88708052Y-76854747D02*
X85242970Y-76361593D01*
X89158936Y-73686671D02*
X88708052Y-76854747D01*
X85102970Y-95571593D02*
X85553854Y-92403517D01*
X85553854Y-92403517D02*
X89018936Y-92896671D01*
X88568052Y-96064747D02*
X85102970Y-95571593D01*
X89018936Y-92896671D02*
X88568052Y-96064747D01*
X203870966Y-73648339D02*
X207336048Y-73155185D01*
X204321850Y-76816415D02*
X203870966Y-73648339D01*
X207336048Y-73155185D02*
X207786932Y-76323261D01*
X207786932Y-76323261D02*
X204321850Y-76816415D01*
M02*
