M48
; DRILL file KiCad 10.0.3 date 2026-07-21T08:44:18
; FORMAT={-:-/ absolute / metric / decimal}
; #@! TF.CreationDate,2026-07-21T08:44:18+09:00
; #@! TF.GenerationSoftware,Kicad,Pcbnew,10.0.3
; #@! TF.FileFunction,Plated,1,2,PTH
FMAT,2
METRIC
; #@! TA.AperFunction,Plated,PTH,ViaDrill
T1C0.300
; #@! TA.AperFunction,Plated,PTH,ComponentDrill
T2C0.813
; #@! TA.AperFunction,Plated,PTH,ComponentDrill
T3C1.300
%
G90
G05
T1
X23.02Y-73.43
X23.02Y-92.41
X24.91Y-76.31
X35.23Y-76.81
X36.45Y-111.52
X36.47Y-114.91
X36.61Y-109.751
X36.64Y-93.98
X40.26Y-111.14
X41.12Y-110.01
X41.17Y-92.46
X41.216Y-79.85
X41.24Y-68.82
X42.01Y-101.41
X42.09Y-88.59
X53.85Y-113.02
X53.88Y-109.9
X55.22Y-92.48
X55.25Y-96.59
X59.413Y-110.523
X59.413Y-127.933
X60.53Y-75.29
X60.87Y-118.64
X61.24Y-86.7
X61.27Y-105.98
X61.285Y-95.6
X61.31Y-80.63
X61.31Y-100.42
X61.37Y-66.91
X62.3Y-111.81
X72.56Y-130.32
X72.62Y-76.03
X73.96Y-96.59
X74.03Y-91.94
X78.93Y-121.16
X78.98Y-82.02
X79.408Y-99.29
X80.68Y-107.19
X80.89Y-87.82
X80.96Y-68.89
X81.72Y-113.63
X90.66Y-78.13
X91.85Y-99.051
X92.5Y-94.2
X94.16Y-133.0
X98.03Y-84.58
X98.22Y-104.04
X98.838Y-98.5
X99.59Y-71.54
X99.66Y-91.13
X100.41Y-116.23
X110.87Y-101.666
X111.55Y-96.93
X112.66Y-81.29
X116.62Y-106.55
X116.85Y-87.43
X116.93Y-123.81
X117.016Y-103.34
X118.27Y-93.16
X118.55Y-74.42
X118.67Y-111.95
X118.96Y-118.74
X130.01Y-104.299
X130.68Y-99.67
X131.33Y-120.54
X134.01Y-87.03
X134.09Y-101.65
X134.54Y-83.39
X134.94Y-137.25
X135.98Y-105.12
X136.54Y-86.43
X136.8Y-78.4
X136.94Y-104.29
X136.98Y-122.78
X137.41Y-89.63
X138.65Y-136.5
X140.53Y-96.82
X140.7Y-115.9
X141.32Y-107.14
X141.49Y-83.59
X142.12Y-86.9
X142.12Y-99.139
X143.03Y-100.17
X143.09Y-88.54
X146.34Y-78.45
X146.34Y-84.68
X151.83Y-87.7
X151.9Y-103.89
X152.65Y-85.74
X152.68Y-103.36
X155.33Y-97.6
X155.54Y-118.08
X155.82Y-136.94
X156.03Y-84.68
X156.58Y-69.5
X156.603Y-105.26
X157.089Y-122.72
X157.22Y-83.38
X157.26Y-86.57
X158.18Y-100.25
X158.3Y-76.14
X158.55Y-88.52
X158.94Y-119.37
X159.4Y-137.26
X159.58Y-70.81
X159.88Y-80.8
X160.16Y-109.02
X160.21Y-95.33
X160.61Y-115.25
X165.79Y-127.72
X173.1Y-98.1
X173.82Y-102.806
X176.21Y-81.54
X177.51Y-74.0
X178.57Y-84.99
X178.68Y-105.93
X179.31Y-92.89
X181.22Y-117.71
X192.06Y-95.79
X192.69Y-100.116
X193.68Y-79.26
X196.3Y-109.2
X196.36Y-122.7
X196.74Y-70.68
X197.21Y-81.1
X197.45Y-103.6
X198.07Y-90.16
X200.86Y-115.0
X211.13Y-93.15
X211.77Y-97.396
X213.1Y-76.46
X213.17Y-130.93
X216.86Y-87.22
X217.32Y-68.05
X217.34Y-98.5
X217.73Y-82.02
X218.09Y-106.94
X218.52Y-120.28
X219.75Y-112.72
X230.54Y-96.542
X230.56Y-91.22
X232.37Y-74.75
X232.85Y-111.89
X232.99Y-131.01
X236.74Y-101.63
X236.82Y-87.81
X236.82Y-97.52
X236.83Y-82.6
X236.9Y-68.79
X237.52Y-111.41
X249.7Y-111.47
X249.7Y-114.566
X249.83Y-96.591
X249.88Y-92.45
X251.38Y-93.97
X251.97Y-75.83
X255.78Y-68.54
X255.87Y-87.56
X255.9Y-95.76
X255.9Y-101.76
X255.95Y-82.45
X256.54Y-114.26
X256.68Y-92.38
X267.92Y-114.01
X268.37Y-96.56
X268.41Y-92.46
T2
X138.82Y-68.2
X138.82Y-70.74
X138.82Y-73.28
X138.82Y-75.82
X138.82Y-78.36
X138.82Y-80.9
X138.82Y-83.44
X138.82Y-85.98
X138.82Y-88.52
X138.82Y-91.06
X138.82Y-93.6
X138.82Y-96.14
X138.82Y-98.68
X154.04Y-68.2
X154.04Y-70.74
X154.04Y-73.28
X154.04Y-75.82
X154.04Y-78.36
X154.04Y-80.9
X154.04Y-83.44
X154.04Y-85.98
X154.04Y-88.52
X154.04Y-91.06
X154.04Y-93.6
X154.04Y-96.14
X154.04Y-98.68
X156.65Y-78.794
X156.65Y-81.334
T3
X143.24Y-76.39
X149.74Y-76.39
M30
