M48
; DRILL file KiCad 10.0.3 date 2026-07-21T08:44:18
; FORMAT={-:-/ absolute / metric / decimal}
; #@! TF.CreationDate,2026-07-21T08:44:18+09:00
; #@! TF.GenerationSoftware,Kicad,Pcbnew,10.0.3
; #@! TF.FileFunction,NonPlated,1,2,NPTH
FMAT,2
METRIC
; #@! TA.AperFunction,NonPlated,NPTH,ComponentDrill
T1C1.800
; #@! TA.AperFunction,NonPlated,NPTH,ComponentDrill
T2C2.000
; #@! TA.AperFunction,NonPlated,NPTH,ComponentDrill
T3C3.000
; #@! TA.AperFunction,NonPlated,NPTH,ComponentDrill
T4C3.050
; #@! TA.AperFunction,NonPlated,NPTH,ComponentDrill
T5C4.000
%
G90
G05
T1
X114.621Y-130.964
X124.679Y-132.396
X168.341Y-132.396
X178.399Y-130.964
T2
X24.62Y-68.57
X24.63Y-106.67
X24.64Y-87.63
X34.78Y-68.57
X34.79Y-106.67
X34.8Y-87.63
X43.67Y-68.57
X43.68Y-106.67
X43.69Y-87.63
X53.83Y-68.57
X53.84Y-106.67
X53.85Y-87.63
X62.045Y-124.44
X63.315Y-86.21
X63.315Y-105.44
X63.445Y-66.96
X72.175Y-125.22
X73.445Y-86.99
X73.445Y-106.22
X73.575Y-67.74
X82.821Y-87.974
X82.831Y-107.214
X82.961Y-68.764
X83.981Y-126.584
X92.879Y-89.406
X92.889Y-108.646
X93.019Y-70.196
X94.039Y-128.016
X101.681Y-90.659
X101.691Y-109.9
X101.821Y-71.454
X111.739Y-92.09
X111.749Y-111.332
X111.879Y-72.886
X120.541Y-93.343
X120.551Y-112.58
X120.681Y-74.134
X130.599Y-94.774
X130.609Y-114.012
X130.739Y-75.566
X162.291Y-75.526
X162.421Y-94.776
X162.421Y-114.004
X172.349Y-74.094
X172.479Y-93.344
X172.479Y-112.573
X181.151Y-72.842
X181.281Y-92.076
X181.281Y-111.32
X191.209Y-71.41
X191.339Y-90.644
X191.339Y-109.888
X199.001Y-128.026
X200.011Y-70.157
X200.141Y-89.396
X200.141Y-108.636
X209.059Y-126.594
X210.069Y-68.726
X210.199Y-87.964
X210.199Y-107.204
X219.515Y-67.72
X219.635Y-86.95
X219.668Y-106.209
X220.838Y-125.21
X229.645Y-66.94
X229.765Y-86.17
X229.798Y-105.43
X230.968Y-124.43
X239.24Y-68.57
X239.24Y-106.63
X239.25Y-87.6
X249.4Y-68.57
X249.4Y-106.63
X249.41Y-87.6
X258.29Y-68.57
X258.29Y-106.63
X258.3Y-87.6
X268.45Y-68.57
X268.45Y-106.63
X268.46Y-87.6
T3
X25.89Y-66.03
X25.9Y-104.13
X25.91Y-85.09
X32.24Y-63.49
X32.25Y-101.59
X32.26Y-82.55
X44.94Y-66.03
X44.95Y-104.13
X44.96Y-85.09
X51.29Y-63.49
X51.3Y-101.59
X51.31Y-82.55
X63.506Y-122.005
X64.776Y-83.775
X64.776Y-103.005
X64.906Y-64.525
X70.032Y-119.96
X71.302Y-81.73
X71.302Y-100.96
X71.432Y-62.48
X84.436Y-85.639
X84.446Y-104.879
X84.576Y-66.429
X85.596Y-124.249
X91.08Y-84.019
X91.09Y-103.259
X91.22Y-64.809
X92.24Y-122.629
X103.296Y-88.323
X103.306Y-107.565
X103.436Y-69.119
X109.94Y-86.703
X109.95Y-105.945
X110.08Y-67.499
X116.236Y-128.629
X122.156Y-91.007
X122.166Y-110.245
X122.296Y-71.799
X122.88Y-127.009
X128.8Y-89.387
X128.81Y-108.625
X128.94Y-70.179
X163.19Y-72.832
X163.32Y-92.082
X163.32Y-111.311
X169.119Y-69.423
X169.24Y-129.702
X169.249Y-88.673
X169.249Y-107.901
X175.169Y-126.293
X182.05Y-70.148
X182.18Y-89.382
X182.18Y-108.626
X187.979Y-66.739
X188.109Y-85.973
X188.109Y-105.217
X199.9Y-125.332
X200.91Y-67.464
X201.04Y-86.702
X201.04Y-105.942
X205.829Y-121.923
X206.839Y-64.054
X206.969Y-83.293
X206.969Y-102.533
X220.586Y-65.09
X220.706Y-84.32
X220.74Y-103.579
X221.91Y-122.58
X226.723Y-62.07
X226.843Y-81.3
X226.876Y-100.56
X228.046Y-119.56
X240.51Y-66.03
X240.51Y-104.09
X240.52Y-85.06
X246.86Y-63.49
X246.86Y-101.55
X246.87Y-82.52
X259.56Y-66.03
X259.56Y-104.09
X259.57Y-85.06
X265.91Y-63.49
X265.91Y-101.55
X265.92Y-82.52
T4
X106.882Y-136.933
X130.445Y-140.287
X162.575Y-140.287
X186.138Y-136.933
T5
X29.7Y-68.57
X29.71Y-106.67
X29.72Y-87.63
X48.75Y-68.57
X48.76Y-106.67
X48.77Y-87.63
X67.11Y-124.83
X68.38Y-86.6
X68.38Y-105.83
X68.51Y-67.35
X87.85Y-88.69
X87.86Y-107.93
X87.99Y-69.48
X89.01Y-127.3
X106.71Y-91.374
X106.72Y-110.616
X106.85Y-72.17
X109.03Y-121.845
X119.65Y-131.68
X125.57Y-94.058
X125.58Y-113.296
X125.71Y-74.85
X132.592Y-125.199
X160.428Y-125.199
X167.32Y-74.81
X167.45Y-94.06
X167.45Y-113.288
X173.37Y-131.68
X183.99Y-121.845
X186.18Y-72.126
X186.31Y-91.36
X186.31Y-110.604
X204.03Y-127.31
X205.04Y-69.442
X205.17Y-88.68
X205.17Y-107.92
X224.58Y-67.33
X224.7Y-86.56
X224.733Y-105.819
X225.903Y-124.82
X244.32Y-68.57
X244.32Y-106.63
X244.33Y-87.6
X263.37Y-68.57
X263.37Y-106.63
X263.38Y-87.6
M30
